SplineFontDB: 3.0
FontName: Untitled1
FullName: Untitled1
FamilyName: Untitled1
Weight: Regular
Copyright: Copyright (c) 2017, ウルヰ,,,
UComments: "2017-10-21: Created with FontForge (http://fontforge.org)"
Version: 001.000
ItalicAngle: 0
UnderlinePosition: -100
UnderlineWidth: 50
Ascent: 800
Descent: 200
InvalidEm: 0
LayerCount: 2
Layer: 0 0 "Back" 1
Layer: 1 0 "Fore" 0
XUID: [1021 881 2055310830 19285]
OS2Version: 0
OS2_WeightWidthSlopeOnly: 0
OS2_UseTypoMetrics: 1
CreationTime: 1508636382
ModificationTime: 1508682523
OS2TypoAscent: 0
OS2TypoAOffset: 1
OS2TypoDescent: 0
OS2TypoDOffset: 1
OS2TypoLinegap: 0
OS2WinAscent: 0
OS2WinAOffset: 1
OS2WinDescent: 0
OS2WinDOffset: 1
HheadAscent: 0
HheadAOffset: 1
HheadDescent: 0
HheadDOffset: 1
OS2Vendor: 'PfEd'
DEI: 91125
Encoding: ISO8859-1
UnicodeInterp: none
NameList: AGL For New Fonts
DisplaySize: -48
AntiAlias: 1
FitToEm: 0
BeginChars: 904 663

StartChar: W
Encoding: 87 87 0
Width: 1000
VWidth: 0
Flags: H
LayerCount: 2
Fore
SplineSet
543.48046875 -1.791015625 m 5
 522.823242188 -36.4814453125 l 5
 500.9765625 -2.52734375 l 5
 103.9765625 614.47265625 l 5
 79.224609375 652.940429688 l 5
 124.967773438 653 l 5
 889.967773438 654 l 5
 934.017578125 654.057617188 l 5
 911.48046875 616.208984375 l 5
 543.48046875 -1.791015625 l 5
521.176757812 58.4814453125 m 5
 845.982421875 603.942382812 l 5
 170.775390625 603.059570312 l 5
 521.176757812 58.4814453125 l 5
471.51953125 786.791015625 m 5
 492.176757812 821.481445312 l 5
 514.0234375 787.52734375 l 5
 911.0234375 170.52734375 l 5
 935.775390625 132.059570312 l 5
 890.032226562 132 l 5
 125.032226562 131 l 5
 80.982421875 130.942382812 l 5
 103.51953125 168.791015625 l 5
 471.51953125 786.791015625 l 5
493.823242188 726.518554688 m 5
 169.017578125 181.057617188 l 5
 844.224609375 181.940429688 l 5
 493.823242188 726.518554688 l 5
EndSplineSet
EndChar

StartChar: T
Encoding: 84 84 1
Width: 1000
VWidth: 0
Flags: H
LayerCount: 2
Fore
SplineSet
495.618164062 -9.9970703125 m 5
 470.62109375 -9.615234375 l 5
 471.002929688 15.3818359375 l 5
 481.002929688 670.381835938 l 5
 481.384765625 695.37890625 l 5
 506.381835938 694.997070312 l 5
 531.37890625 694.615234375 l 5
 530.997070312 669.618164062 l 5
 520.997070312 14.6181640625 l 5
 520.615234375 -10.37890625 l 5
 495.618164062 -9.9970703125 l 5
226.38671875 581.861328125 m 5
 204.248046875 593.474609375 l 5
 215.861328125 615.61328125 l 5
 247.861328125 676.61328125 l 5
 254.8125 689.864257812 l 5
 269.774414062 689.999023438 l 5
 712.774414062 693.999023438 l 5
 725.374023438 694.112304688 l 5
 732.9609375 684.052734375 l 5
 778.9609375 623.052734375 l 5
 794.012695312 603.091796875 l 5
 774.052734375 588.0390625 l 5
 754.091796875 572.987304688 l 5
 739.0390625 592.947265625 l 5
 700.625976562 643.887695312 l 5
 285.1875 640.135742188 l 5
 260.138671875 592.38671875 l 5
 248.525390625 570.248046875 l 5
 226.38671875 581.861328125 l 5
504.374023438 714.330078125 m 5
 531.73046875 760.407226562 l 5
 473.158203125 759.626953125 l 5
 504.374023438 714.330078125 l 5
485.35546875 653.813476562 m 5
 405.415039062 769.813476562 l 5
 378.841796875 808.373046875 l 5
 425.666992188 808.998046875 l 5
 575.666992188 810.998046875 l 5
 620.26953125 811.592773438 l 5
 597.497070312 773.237304688 l 5
 527.4375 655.237304688 l 5
 507.506835938 621.669921875 l 5
 485.35546875 653.813476562 l 5
EndSplineSet
EndChar

StartChar: P
Encoding: 80 80 2
Width: 1000
VWidth: 0
Flags: H
LayerCount: 2
Fore
SplineSet
257.350585938 439.147460938 m 5
 772.147460938 392.649414062 l 1
 767.649414062 342.852539062 l 1
 252.852539062 389.350585938 l 1
 257.350585938 439.147460938 l 5
232.974609375 636.676757812 m 1
 215.651367188 654.702148438 l 1
 233.676757812 672.025390625 l 1
 232.956054688 671.33203125 234.676757812 672.025390625 233.676757812 672.025390625 c 1
 313.90625 749.12890625 416.341796875 802.947265625 543.516601562 779.588867188 c 0
 579.225585938 773.030273438 618.431640625 758.799804688 654.083007812 739.06640625 c 0
 720.927734375 702.068359375 793.965820312 632.434570312 749.865234375 552.87890625 c 0
 692.852539062 450.033203125 589.559570312 429.810546875 501.263671875 368.46875 c 0
 385.387695312 287.96484375 274.7734375 261.3203125 279.970703125 153.200195312 c 0
 280.08203125 150.896484375 280.274414062 148.650390625 280.54296875 146.458984375 c 0
 289.4921875 73.552734375 400.016601562 34.453125 497.897460938 46.806640625 c 0
 598.612304688 59.28515625 663.442382812 136.229492188 725.268554688 227.971679688 c 2
 739.239257812 248.703125 l 1
 759.971679688 234.731445312 l 1
 780.703125 220.760742188 l 1
 766.731445312 200.028320312 l 2
 704.553710938 107.764648438 629.4140625 12.71875 504.07421875 -2.810546875 c 0
 401.776367188 -15.7216796875 245.915039062 18.1591796875 230.916015625 140.3671875 c 0
 230.494140625 143.798828125 230.198242188 147.27734375 230.029296875 150.799804688 c 0
 222.82421875 300.661132812 376.772460938 342.861328125 472.736328125 409.53125 c 0
 574.440429688 480.189453125 661.147460938 495.966796875 706.134765625 577.12109375 c 0
 726.3125 613.520507812 696.693359375 658.333984375 629.870117188 695.3203125 c 0
 598.96484375 712.426757812 563.926757812 725.002929688 534.483398438 730.411132812 c 0
 427.474609375 750.06640625 342.09375 706.87109375 268.323242188 635.974609375 c 2
 250.297851562 618.651367188 l 1
 232.974609375 636.676757812 l 1
EndSplineSet
EndChar

StartChar: K
Encoding: 75 75 3
Width: 1000
VWidth: 0
Flags: H
LayerCount: 2
Fore
SplineSet
678.854492188 315.600585938 m 1
 697.700195312 351.578125 l 1
 721.33203125 318.546875 l 1
 897.33203125 72.546875 l 1
 924.9609375 33.9296875 l 1
 877.487304688 33.0048828125 l 1
 569.487304688 27.0048828125 l 1
 527.25390625 26.181640625 l 1
 546.854492188 63.6005859375 l 1
 678.854492188 315.600585938 l 1
704.299804688 256.421875 m 1
 610.74609375 77.818359375 l 1
 829.0390625 82.0703125 l 1
 704.299804688 256.421875 l 1
808.014648438 536.193359375 m 1
 783.603515625 541.588867188 l 1
 759.193359375 546.985351562 l 1
 764.588867188 571.396484375 l 1
 790.688476562 689.46484375 l 1
 106.456054688 22.103515625 l 1
 88.55859375 4.6474609375 l 1
 71.103515625 22.5439453125 l 1
 53.6474609375 40.44140625 l 1
 71.5439453125 57.896484375 l 1
 735.037109375 705.029296875 l 1
 611.116210938 673.759765625 l 1
 598.78515625 722.21484375 l 1
 629.82421875 730.180664062 l 1
 873 792 l 1
 808.014648438 536.193359375 l 1
EndSplineSet
EndChar

StartChar: S
Encoding: 83 83 4
Width: 1000
VWidth: 0
Flags: H
LayerCount: 2
Fore
SplineSet
804.748737342 371.535533906 m 0
 808.041073291 348.489182258 820.326179217 339.372707172 828.304613334 339.942595323 c 0
 843.632701791 340.931504256 855.497737841 355.607641813 853.205761346 372.797465528 c 0
 850.531302162 394.193138995 834.741068961 407.691549412 816.9919597 406.077994025 c 0
 811.367129338 405.690074689 801.251497718 396.016211268 804.748737342 371.535533906 c 0
755.251262658 364.464466094 m 0
 750.748502282 395.983788732 760.632870662 452.309925311 813.0080403 455.922005975 c 0
 861.258931039 460.308450588 897.468697838 421.806861005 902.794238654 379.202534472 c 0
 908.502262159 336.392358187 878.367298209 293.068495744 831.695386666 290.057404677 c 0
 783.673820783 286.627292828 759.958926709 331.510817742 755.251262658 364.464466094 c 0
143.007604789 349.383411302 m 1
 142.391016091 374.375806513 l 1
 167.383411302 374.992395211 l 1
 166.383715494 374.967731663 167.383411302 373.992395211 167.383411302 374.992395211 c 1
 775.383411302 389.992395211 l 1
 800.375806513 390.608983909 l 1
 800.992395211 365.616588698 l 1
 801.608983909 340.624193487 l 1
 776.616588698 340.007604789 l 1
 168.616588698 325.007604789 l 1
 168.616588698 326.007604789 167.616892889 324.982941241 168.616588698 325.007604789 c 1
 143.624193487 324.391016091 l 1
 143.007604789 349.383411302 l 1
505.266296476 -7.99858168351 m 1
 480.267714792 -8.26487815949 l 1
 480.001418316 16.733703524 l 1
 480.012070176 15.7337602567 480.001418316 17.733703524 480.001418316 16.733703524 c 1
 472.001418316 767.733703524 l 1
 471.392302311 824.914468529 l 1
 513.780473221 786.531479123 l 1
 767.780473221 556.531479123 l 1
 786.311952344 539.751005901 l 1
 769.531479123 521.219526779 l 1
 752.751005901 502.688047656 l 1
 734.219526779 519.468520877 l 1
 522.607697689 711.085531471 l 1
 529.998581684 17.266296476 l 1
 529.998581684 16.266296476 530.009233543 16.2663532086 529.998581684 17.266296476 c 1
 530.264878159 -7.73228520752 l 1
 505.266296476 -7.99858168351 l 1
EndSplineSet
EndChar

StartChar: X
Encoding: 88 88 5
Width: 1000
VWidth: 0
Flags: HW
LayerCount: 2
Fore
SplineSet
836.645927868 770.997492533 m 1
 861.643420401 771.351564665 l 1
 861.997492533 746.354072132 l 1
 871.997492533 40.3540721322 l 1
 872.351564665 15.3565795994 l 1
 847.354072132 15.0025074672 l 1
 822.356579599 14.6484353351 l 1
 822.002507467 39.6459278678 l 1
 812.002507467 745.645927868 l 1
 811.648435335 770.643420401 l 1
 836.645927868 770.997492533 l 1
344.107711737 117.015928641 m 1
 319.123640379 117.908216904 l 1
 320.015928641 142.892288263 l 2
 322.673725584 217.310602646 289.578801211 282.510236006 330.368086682 368.620949779 c 0
 398.208828091 514.542544506 561.795421492 496.069961556 536.723940244 598.027318631 c 0
 511.187093716 701.822243228 393.140828341 694.49618116 254.734153871 719.366130479 c 0
 250.249959359 720.113496231 244.597697405 720.06459834 239.165458753 719.07954735 c 0
 212.947257572 714.325289173 196.526930228 693.356132342 199.596747752 676.472135955 c 2
 204.068883707 651.875388203 l 1
 179.472135955 647.403252248 l 1
 154.875388203 642.931116293 l 1
 150.403252248 667.527864045 l 2
 140.505749511 721.964129096 187.311702657 760.492088759 230.244233682 768.277227613 c 0
 240.98434369 770.224777541 251.828472013 770.540098541 263.265846129 768.633869521 c 0
 380.859171659 747.50381884 548.812906284 758.177756772 585.276059756 609.972681369 c 0
 620.204578508 467.930038444 413.791171909 429.457455494 375.631913318 347.379050221 c 0
 344.421198789 281.489763994 373.326274416 234.689397354 369.984071359 141.107711737 c 2
 369.091783096 116.123640379 l 1
 344.107711737 117.015928641 l 1
344.053710938 81.478515625 m 4
 347.345703125 58.431640625 359.630859375 49.3154296875 367.609375 49.884765625 c 4
 382.9375 50.8740234375 394.802734375 65.5498046875 392.510742188 82.740234375 c 4
 389.8359375 104.135742188 374.045898438 117.633789062 356.296875 116.020507812 c 4
 350.671875 115.6328125 340.555664062 105.958984375 344.053710938 81.478515625 c 4
294.555664062 74.4072265625 m 4
 290.052734375 105.926757812 299.9375 162.252929688 352.3125 165.864257812 c 4
 400.563476562 170.250976562 436.7734375 131.749023438 442.098632812 89.1455078125 c 4
 447.806640625 46.3349609375 417.671875 3.0107421875 371 0 c 4
 322.978515625 -3.4296875 299.263671875 41.453125 294.555664062 74.4072265625 c 4
EndSplineSet
EndChar

StartChar: F
Encoding: 70 70 6
Width: 1000
VWidth: 0
Flags: HW
LayerCount: 2
Fore
SplineSet
908.788766729 661.755738524 m 5
 932.544505254 653.966971795 l 5
 924.755738524 630.211233271 l 6
 885.164700695 509.458567893 864.908182999 438.061615008 763.68120804 347.379116607 c 4
 651.92392528 247.263217468 513.179576851 349.578681362 426.672137264 293.069814558 c 4
 305.747998043 214.079046196 265.19299113 155.192415696 170.288484158 40.0954604313 c 6
 154.383944589 20.8069762734 l 5
 135.095460431 36.7115158422 l 5
 115.806976273 52.6160554109 l 5
 131.711515842 71.9045395687 l 6
 224.80700887 184.807584304 272.252001957 251.920953804 399.327862736 334.930185442 c 4
 529.234485649 419.788506138 650.07607472 312.736782532 730.31879196 384.620883393 c 4
 823.19551463 467.822947451 836.835299305 522.541432107 877.244261476 645.788766729 c 6
 885.033028205 669.544505254 l 5
 908.788766729 661.755738524 l 5
787.409781006 780.996641365 m 5
 812.406422371 780.586860359 l 5
 811.996641365 755.590218994 l 6
 809.980498448 632.605501041 798.638235997 551.611648399 695.68120804 459.379116607 c 4
 583.923918764 359.263211631 445.179573401 461.578704293 358.672137264 405.069814558 c 4
 237.747998043 326.079046196 197.19299113 267.192415696 102.288484158 152.095460431 c 6
 86.3839445891 132.806976273 l 5
 67.0954604313 148.711515842 l 5
 47.8069762734 164.616055411 l 5
 63.7115158422 183.904539569 l 6
 156.80700887 296.807584304 204.252001957 363.920953804 331.327862736 446.930185442 c 4
 461.234460252 531.788527368 582.076081236 424.736788369 662.31879196 496.620883393 c 4
 753.465279628 578.273117226 760.019501552 635.394498959 762.003358635 756.409781006 c 6
 762.413139641 781.406422371 l 5
 787.409781006 780.996641365 l 5
478.892411665 765.237031203 m 1
 497.91058469 785.215718017 l 1
 515.928918229 764.330831414 l 1
 708.259749643 541.401913184 l 1
 689.330831414 525.071081771 l 1
 670.401913184 508.740250357 l 1
 496.08941531 710.784281983 l 1
 299.870557131 504.655380462 l 1
 281.762968797 521.892411665 l 1
 263.655380462 539.129442869 l 1
 478.892411665 765.237031203 l 1
494.860351562 746 m 1
 519.860351562 746.138671875 l 1
 520 739.139648438 l 1
 523.999612054 42.1392736048 l 1
 524.138885659 17.1396615505 l 1
 499.139273605 17.0003879457 l 1
 474.139661551 16.861114341 l 1
 474.000387946 41.8607263952 l 1
 470 738.860351562 l 1
 469.861328125 745.860351562 l 1
 494.860351562 746 l 1
EndSplineSet
EndChar

StartChar: N
Encoding: 78 78 7
Width: 1004
VWidth: 0
Flags: HW
LayerCount: 2
Fore
SplineSet
765.5703125 73.06640625 m 5
 499.560546875 358.3671875 l 5
 225.577148438 68.3720703125 l 5
 765.5703125 73.06640625 l 5
787.073242188 662.977539062 m 5
 534.059570312 394.881835938 l 5
 796.3359375 113.416992188 l 5
 787.073242188 662.977539062 l 5
499.791015625 430.359375 m 5
 834.991210938 785.696289062 l 5
 847.275390625 56.8369140625 l 5
 848.424804688 22.3115234375 l 5
 822.744140625 22.3134765625 l 5
 798.999023438 22.009765625 l 5
 108.987304688 16.1015625 l 5
 465.291015625 393.844726562 l 5
 156.651367188 725.024414062 l 5
 193.294921875 759.04296875 l 5
 499.791015625 430.359375 l 5
EndSplineSet
EndChar

StartChar: M
Encoding: 77 77 8
Width: 1000
VWidth: 0
Flags: H
LayerCount: 2
Fore
SplineSet
198.01171875 527.243164062 m 1
 197.25390625 552.231445312 l 1
 222.243164062 552.98828125 l 2
 318.9609375 555.918945312 429.801757812 563.872070312 509.845703125 471.427734375 c 0
 516.032226562 464.376953125 520.73046875 455.422851562 522.30078125 445.893554688 c 0
 531.796875 388.247070312 439.221679688 339.361328125 429.717773438 325.698242188 c 1
 529.807617188 250.299804688 594.573242188 273.266601562 757.579101562 262.950195312 c 2
 782.529296875 261.37109375 l 1
 780.950195312 236.420898438 l 1
 779.37109375 211.470703125 l 1
 754.420898438 213.049804688 l 2
 602.274414062 222.6796875 514.98046875 197.921875 397.854492188 287.110351562 c 0
 388.091796875 294.543945312 379.837890625 305.65625 378.34765625 319.232421875 c 0
 376.517578125 335.905273438 384.294921875 348.758789062 391.377929688 357.950195312 c 0
 418.931640625 393.705078125 468.7265625 424.326171875 472.82421875 437.739257812 c 0
 472.766601562 437.8203125 472.560546875 438.110351562 472.154296875 438.572265625 c 0
 410.198242188 510.127929688 325.0390625 506.081054688 223.756835938 503.01171875 c 2
 198.768554688 502.25390625 l 1
 198.01171875 527.243164062 l 1
214.068359375 791 m 1
 239.068359375 790.931640625 l 1
 239 765.931640625 l 1
 239.002929688 766.931640625 240 765.931640625 239 765.931640625 c 1
 237.069335938 60.1748046875 l 1
 787.826171875 63.9990234375 l 1
 812.826171875 64.1728515625 l 1
 812.999023438 39.173828125 l 1
 813.172851562 14.173828125 l 1
 788.173828125 14.0009765625 l 1
 212.173828125 10.0009765625 l 1
 186.930664062 9.8251953125 l 1
 187 35.068359375 l 1
 189 766.068359375 l 1
 188 766.068359375 189.002929688 767.068359375 189 766.068359375 c 1
 189.068359375 791.068359375 l 1
 214.068359375 791 l 1
EndSplineSet
EndChar

StartChar: H
Encoding: 72 72 9
Width: 1000
VWidth: 0
Flags: HW
LayerCount: 2
Fore
SplineSet
786.160699907 760.319448839 m 1
 797.480148746 738.02886612 l 1
 775.189566027 726.709417281 l 2
 627.274223817 651.596075931 495.352982552 587.823793113 514.950478043 505.488860759 c 0
 530.675759389 439.420402314 799.318703957 499.698037455 811.449751673 361.534752423 c 0
 826.252606766 200.130087296 671.081202604 130.063136982 543.356813461 45.0861594293 c 2
 522.542582265 31.2381350312 l 1
 508.694557867 52.0523662269 l 1
 494.846533469 72.8665974226 l 1
 515.660764664 86.7146218207 l 2
 655.771758615 179.932595832 772.761030789 235.912879178 761.654286241 357.016569864 c 0
 754.336232403 440.363563624 502.430765653 342.150151463 466.309287582 493.911529866 c 0
 433.570845573 631.455503762 623.985541808 706.003533444 752.550668348 771.290582719 c 2
 774.841251068 782.610031559 l 1
 786.160699907 760.319448839 l 1
486.281793657 718.019644152 m 1
 497.601242496 695.729061432 l 1
 475.310659777 684.409612593 l 2
 327.395305075 609.2962649 195.474036024 545.524157637 215.071620919 463.188849669 c 0
 230.796349846 397.120222954 499.438795038 457.398530101 511.569861367 319.235033078 c 0
 526.373826907 157.830423185 371.202233891 87.7632907366 243.477907211 2.78635474177 c 1
 244.477907211 2.78635474177 244.310476458 3.3402757177 243.477907211 2.78635474177 c 1
 222.663676015 -11.0616696563 l 1
 208.815651617 9.75256153938 l 1
 194.967627219 30.5667927351 l 1
 215.781858414 44.4148171332 l 2
 355.892903601 137.632825233 472.881990898 193.61300972 461.774419077 314.716594552 c 0
 454.456366803 398.063570506 202.550421546 299.850670039 166.430332206 451.611931581 c 0
 133.691979601 589.155529863 324.10664805 663.7037351 452.671762098 728.990778032 c 2
 474.962344818 740.310226871 l 1
 486.281793657 718.019644152 l 1
EndSplineSet
EndChar

StartChar: Z
Encoding: 90 90 10
Width: 1000
VWidth: 0
Flags: H
LayerCount: 2
Fore
SplineSet
669.722912083 758.204847433 m 5
 689.927759516 743.48193535 l 5
 675.204847433 723.277087917 l 6
 580.911974879 593.875167072 530.117761117 520.910063772 534.985935934 375.838454226 c 4
 539.671404226 236.21149914 605.8 172.6 700 47 c 6
 715 27 l 5
 695 12 l 5
 675 -3 l 5
 660 17 l 6
 568.32 139.24 490.189803983 215.7839043 485.014064066 374.161545774 c 4
 479.755103937 535.085725723 541.088025121 624.124832928 634.795152567 752.722912083 c 6
 649.51806465 772.927759516 l 5
 669.722912083 758.204847433 l 5
855.765625 395.525390625 m 1
 141.234146483 2.0201809144 l 1
 133.162824627 16.6020717818 125.091502771 31.1839626493 117.020180914 45.7658535167 c 1
 329.424876799 163.335425245 541.829572684 280.904996973 754.234268568 398.474568701 c 1
 137.843548784 754.871098624 l 1
 146.186065397 769.299549488 154.528582011 783.728000352 162.871098624 798.156451216 c 1
 162.871098624 798.156451216 632.014648438 524.897460938 855.765625 395.525390625 c 1
EndSplineSet
EndChar

StartChar: Y
Encoding: 89 89 11
Width: 1000
VWidth: 0
Flags: H
LayerCount: 2
Fore
SplineSet
312.860351562 574.19921875 m 1
 295.719726562 592.3984375 l 1
 313.918945312 609.5390625 l 1
 490.859876199 792.199344935 l 1
 506.60711361 807.030076466 l 1
 523.54705359 793.577771187 l 1
 712.516601562 613.702148438 l 1
 732.09375 598.155273438 l 1
 716.546875 578.578125 l 1
 701 559 l 1
 681.421875 574.546875 l 1
 509.39288639 740.969923534 l 1
 348.19921875 573.139648438 l 1
 330 556 l 1
 312.860351562 574.19921875 l 1
507.576338353 633.003590042 m 0
 362.406299412 635.464025471 245.745945798 490.340588989 241.992475828 337.38668771 c 0
 238.414590536 191.572090508 356.766236563 49.6881055001 499.471614174 46.9955512056 c 0
 662.407854969 43.9209771912 792.381731453 171.866330363 797.009968818 335.705933084 c 0
 801.604439318 498.350188797 671.195135166 630.230390096 507.576338353 633.003590042 c 0
508.423661528 682.99640996 m 0
 698.804866502 679.769609876 852.395560682 525.649811203 846.990031182 334.294066916 c 0
 841.618268547 144.133669637 689.580426281 -6.60066469118 498.528385826 -2.99555120559 c 0
 323.233763437 0.311894499868 187.831503214 168.422050117 192.007524172 338.61331229 c 0
 196.254054202 511.659411011 327.585886364 686.061365183 508.423661528 682.99640996 c 0
EndSplineSet
EndChar

StartChar: C
Encoding: 67 67 12
Width: 1000
VWidth: 0
Flags: H
LayerCount: 2
Fore
SplineSet
480.741210938 719.614257812 m 4
 484.033203125 696.567382812 496.318359375 687.451171875 504.296875 688.020507812 c 4
 519.625 689.009765625 531.490234375 703.685546875 529.198242188 720.875976562 c 4
 526.5234375 742.271484375 510.733398438 755.76953125 492.984375 754.15625 c 4
 487.359375 753.768554688 477.243164062 744.094726562 480.741210938 719.614257812 c 4
431.243164062 712.54296875 m 4
 426.740234375 744.0625 436.625 800.388671875 489 804 c 4
 537.250976562 808.38671875 573.4609375 769.884765625 578.786132812 727.28125 c 4
 584.494140625 684.470703125 554.359375 641.146484375 507.6875 638.135742188 c 4
 459.666015625 634.706054688 435.951171875 679.588867188 431.243164062 712.54296875 c 4
476.8984375 640.405273438 m 1
 498.1328125 673.831054688 l 1
 519.177734375 640.286132812 l 1
 886.177556009 41.2857488122 l 1
 910.23460379 2.93868354817 l 1
 864.966124692 3.00002295074 l 1
 126.966124692 4.00002295074 l 1
 81.5391472489 4.06157712072 l 1
 105.898054216 42.4055169281 l 1
 476.8984375 640.405273438 l 1
497.8671875 580.168945312 m 1
 172.460852751 53.9384228793 l 1
 819.76539621 53.0613164518 l 1
 497.8671875 580.168945312 l 1
EndSplineSet
EndChar

StartChar: L
Encoding: 76 76 13
Width: 1000
VWidth: 0
Flags: H
LayerCount: 2
Fore
SplineSet
466.963684808 396.544991826 m 1
 465.742896198 312.015699148 468.227283993 229.082755091 482.704067296 135.835239108 c 0
 494.386282333 60.5861559835 590.733950838 47.1008328009 705.458726136 44.9957910523 c 0
 801.659843792 43.2302951365 825.202019131 62.3768267963 906.353285532 127.498213414 c 2
 925.851498946 143.144927883 l 1
 941.498213414 123.646714468 l 1
 957.144927883 104.148501054 l 1
 937.646714468 88.5017865857 l 2
 856.797980869 23.6231732037 812.463203083 -6.97638888646 704.541273864 -4.99579105233 c 0
 601.266049162 -3.10083280092 452.760202042 2.78884401649 433.295932704 128.164760892 c 0
 418.920510294 220.759393474 415.969313645 303.474844937 416.822306921 385.572212014 c 1
 122.220384642 542.949134665 l 1
 83.9517742607 563.392301123 l 1
 120.829450738 586.249391336 l 1
 433.829450738 780.249391336 l 1
 470.581393365 803.028550664 l 1
 471.986790832 759.812578564 l 2
 476.29060865 627.47018066 469.43338498 519.290884233 467.294368433 415.297055875 c 1
 467 409 l 1
 466.963684808 396.544991826 l 1
417.905164118 441.680865346 m 1
 420.185851928 527.373681089 424.594487762 612.515112708 423.05166536 714.744016086 c 1
 184.048225739 566.607698877 l 1
 417.905164118 441.680865346 l 1
EndSplineSet
EndChar

StartChar: G
Encoding: 71 71 14
Width: 1000
VWidth: 0
Flags: H
LayerCount: 2
Fore
SplineSet
96.5952005218 288.408771837 m 2
 215.278569945 314.688660781 331.116954281 353.556603914 440.403164902 381.135172625 c 0
 445.35707824 382.385301425 463.014648438 388.873046875 466 393 c 0
 470.387695312 399.065429688 495.482421875 414.309570312 500 420 c 0
 504.517578125 425.690429688 497.176757812 422.325195312 502 428 c 1
 489.801757812 423.499023438 459.611275006 419.719139715 447 418 c 0
 252.866210937 391.536132812 211.512559357 638.166244015 156.725670038 777.87281178 c 2
 147.598481817 801.147141742 l 1
 170.87281178 810.274329962 l 1
 194.147141742 819.401518183 l 1
 203.274329962 796.12718822 l 2
 268.487440643 629.833755985 300.391117983 440.927369232 438.623278917 459.770905408 c 0
 504.116237325 468.698776626 589.115234375 531.583984375 645 613 c 0
 692.172851562 681.723632812 713.85319147 763.087204974 724.474089873 785.846246366 c 1
 724.474089873 785.846246366 775.617854323 808.038118537 775.715920624 783.337916478 c 0
 775.793845864 763.710693191 773.353597102 772.375367599 769.920658312 764.997419894 c 0
 768.431365187 761.583951245 766.424724243 756.927492887 764.02078008 751.250964944 c 0
 722.366847654 652.891895317 680.950615635 583.487966413 641.981077194 529.967026814 c 0
 601.781611168 474.756899133 564.359616814 436.571809037 533.337355454 401.557797366 c 1
 642.358341847 421.06015815 746.217916383 421.108359185 835.664383188 368.55489268 c 0
 911.441928609 324.032477908 893.863336169 224.78736009 851.008539842 152.035839717 c 0
 822.676198139 103.938051109 780.078010681 59.3805399063 728.788877264 31.9540848943 c 0
 627.57730493 -22.1679961471 443.670903386 -17.298878445 389.759192083 84.4060656616 c 0
 379.398359784 103.951872026 374.775052932 126.80479801 377.112421594 151.368214751 c 0
 384.163202097 225.464895596 398.591677301 279.721115383 419.268040749 323.952618208 c 1
 321.820156603 297.772088364 216.551872501 263.759508618 107.404799478 239.591228163 c 2
 82.996027641 234.186428685 l 1
 77.5912281628 258.595200522 l 1
 72.1864286846 283.003972359 l 1
 96.5952005218 288.408771837 l 2
96.5952005218 288.408771837 m 1
 97.5715513953 288.624963816 95.5952005218 288.408771837 96.5952005218 288.408771837 c 1
485.600851881 340.63786838 m 0
 483.445370905 337.302851408 481.260390632 333.801778744 479.27673356 330.480994922 c 0
 453.857581705 287.92751658 435.28793533 234.911170175 426.887578406 146.631785249 c 0
 425.402096664 131.020851612 428.199134762 118.646862945 433.936382827 107.823491181 c 0
 466.09574121 47.1545628943 616.329481786 28.5171665287 705.211122736 76.0459151057 c 0
 746.750382789 98.2587031014 783.809402558 136.46990002 807.927308624 177.413142898 c 0
 848.558409634 246.389654893 845.535257149 304.763875455 810.335616812 325.44510732 c 0
 727.677749501 374.009993292 625.669239108 370.904834311 505.837256629 345.153679783 c 0
 499.303555433 343.749627662 492.391664354 342.204136791 485.600851881 340.63786838 c 0
EndSplineSet
EndChar

StartChar: Q
Encoding: 81 81 15
Width: 1000
VWidth: 0
Flags: H
LayerCount: 2
Fore
SplineSet
522.402063832 509.564994874 m 1
 516.967058706 485.162931041 l 1
 492.564994874 490.597936168 l 1
 302.60981353 532.906135649 l 1
 295.998011762 8.68470976156 l 1
 295.682721524 -16.3133020007 l 1
 270.684709762 -15.9980117622 l 1
 245.686697999 -15.6827215238 l 1
 246.001988238 9.31529023844 l 1
 246.014599847 10.3152107089 245.001988238 9.31529023844 246.001988238 9.31529023844 c 1
 253.001988238 564.315290238 l 1
 253.39018647 595.093864351 l 1
 283.435005126 588.402063832 l 1
 503.435005126 539.402063832 l 1
 527.837068959 533.967058706 l 1
 522.402063832 509.564994874 l 1
746.697265625 806.998046875 m 1
 771.6953125 807.30078125 l 1
 771.998046875 782.302734375 l 1
 776.998168098 343.30264126 l 1
 777.330919705 315.817358573 l 1
 749.937339853 318.085236643 l 1
 290.937339853 356.085236643 l 1
 266.022576496 358.147896791 l 1
 268.085236643 383.062660147 l 1
 270.147896791 407.977423504 l 1
 295.062660147 405.914763357 l 1
 726.669080295 370.182641427 l 1
 722.001953125 781.697265625 l 1
 721.69921875 806.6953125 l 1
 746.697265625 806.998046875 l 1
EndSplineSet
EndChar

StartChar: D
Encoding: 68 68 16
Width: 1000
VWidth: 0
Flags: HW
LayerCount: 2
Fore
SplineSet
815.75789351 778.408472174 m 1
 835.166365684 762.650578663 l 1
 819.408472174 743.24210649 l 1
 219.408472174 4.2421064896 l 1
 203.650578663 -15.166365684 l 1
 184.24210649 0.59152782636 l 1
 164.833634316 16.3494213368 l 1
 180.591527826 35.7578935104 l 1
 780.591527826 774.75789351 l 1
 796.349421337 794.166365684 l 1
 815.75789351 778.408472174 l 1
184.24210649 778.408472174 m 1
 203.650578663 794.166365684 l 1
 219.408472174 774.75789351 l 1
 819.408472174 35.7578935104 l 1
 835.166365684 16.3494213368 l 1
 815.75789351 0.59152782636 l 1
 796.349421337 -15.166365684 l 1
 780.591527826 4.2421064896 l 1
 180.591527826 743.24210649 l 1
 164.833634316 762.650578663 l 1
 184.24210649 778.408472174 l 1
EndSplineSet
EndChar

StartChar: B
Encoding: 66 66 17
Width: 1000
VWidth: 0
Flags: HW
LayerCount: 2
Fore
SplineSet
384.622169882 586.770754201 m 5
 409.392924083 590.148584319 l 5
 412.770754201 565.377830118 l 6
 423.678351539 485.388782977 429.151061435 436.283897583 462.36267807 439.860533221 c 4
 500.980038322 443.895182799 501.563369818 519.422021092 499.219302483 580.304093002 c 6
 499 586 l 5
 548.544496265 581.750547664 l 6
 555.415400342 581.161227324 559.727011741 519.06175758 563.335429208 503.725983343 c 4
 586.332776236 405.987258475 584.549087107 338.297580805 523.273731281 253.372087642 c 4
 511.28615672 236.757764326 492.07099051 231.323261987 476.019358153 232.459393744 c 4
 435.672273676 235.315153393 380.968302082 275.408226357 385.096753749 322.197345257 c 6
 387.294099007 347.100591508 l 5
 412.197345257 344.903246251 l 5
 437.100591508 342.705900993 l 5
 434.910061756 317.879897135 l 6
 435.49318251 309.662940936 466.64767477 281.04251909 481.576218742 282.331973935 c 4
 482.151530293 282.381666542 482.457322264 282.458877331 482.641990435 282.515740671 c 4
 482.66151041 282.541287966 482.69229825 282.580830479 482.726268719 282.627912358 c 4
 521.652538983 336.57835711 533.583007812 404.440429688 529 457 c 5
 517.467773438 438.364257812 494.214323815 393.001732493 467.597800541 390.135337679 c 4
 370.881762201 379.719764319 370.321622959 506.611404038 363.229245799 558.622169882 c 6
 359.851415681 583.392924083 l 5
 384.622169882 586.770754201 l 5
776.336558609 662.519201987 m 5
 755.855760596 648.182643378 l 5
 741.519201987 668.663441391 l 6
 720.229859647 699.076787591 686.465662326 744.059424837 669.405273438 743.025390625 c 4
 471 731 360.47265625 747.2265625 251 635 c 4
 167.681640625 549.584960938 185.1171875 512.987304688 185.999023438 397.190429688 c 4
 186.909179688 277.70703125 174.245117188 191.046875 259.7734375 104.581054688 c 4
 367.806640625 -4.6357421875 509.822397913 63.2839512396 752.705150356 75.7236170519 c 5
 759.521126798 88.5279725082 764.13719703 125.696602044 767.36970613 144.283529369 c 6
 771.653235498 168.913823239 l 5
 796.283529369 164.63029387 l 5
 820.913823239 160.346764502 l 5
 816.63029387 135.716470631 l 6
 815.395021288 128.613653281 817.855543991 28.7161252655 760.163990534 26.0271121807 c 4
 534.076842802 15.489151905 360.739257812 -68.58984375 224.2265625 69.4189453125 c 4
 121.827148438 172.939453125 136.854492188 284.740234375 136.000976562 396.809570312 c 4
 135.141601562 509.581054688 115.609375 567.80859375 215.208007812 669.913085938 c 4
 350.64453125 808.756835938 485 785 671 793 c 4
 721.890985446 795.188859589 761.770140353 726.923212409 782.480798013 697.336558609 c 6
 796.817356622 676.855760596 l 5
 776.336558609 662.519201987 l 5
EndSplineSet
EndChar

StartChar: A
Encoding: 65 65 18
Width: 1000
VWidth: 0
Flags: H
LayerCount: 2
Fore
SplineSet
481.444927254 495.575594047 m 1
 500.809541367 519.887760667 l 1
 520.405441785 495.761625205 l 1
 892.405441785 37.7616252055 l 1
 925.571172046 -3.07145129855 l 1
 872.96603264 -2.99997692436 l 1
 136.96603264 -1.99997692436 l 1
 85.1825694124 -1.92961895802 l 1
 117.444927254 38.5755940469 l 1
 481.444927254 495.575594047 l 1
501.190458633 440.112239333 m 1
 188.817430588 47.929618958 l 1
 820.428827954 47.0714512986 l 1
 501.190458633 440.112239333 l 1
168.181472024 579.536418273 m 1
 146.717890298 592.354946249 l 1
 159.536418273 613.818527976 l 2
 199.053285102 679.986304992 236.541969613 776.252292159 341.537510129 773.994220989 c 0
 464.683988158 771.345909634 449.846821869 616.147204274 496.617095869 614.992382693 c 0
 532.117507737 614.115829314 567.616075461 773.499924562 661.208392986 768.97077865 c 0
 756.527590159 764.358065089 800.257907082 680.614796922 849.068596199 614.908100033 c 2
 863.976696232 594.839503835 l 1
 843.908100033 579.931403801 l 1
 823.839503835 565.023303768 l 1
 808.931403801 585.091899967 l 2
 753.742092918 659.385203078 721.402097341 715.999356786 658.791607014 719.02922135 c 0
 628.383955585 720.500717022 593.901333512 562.575063495 495.382904131 565.007617307 c 0
 380.153178131 567.852795726 403.316011842 722.654090366 340.462489871 724.005779011 c 0
 273.452171012 725.446926591 248.946714898 666.013695008 202.463581727 588.181472024 c 2
 189.645053751 566.717890298 l 1
 168.181472024 579.536418273 l 1
EndSplineSet
EndChar

StartChar: E
Encoding: 69 69 19
Width: 1000
VWidth: 0
Flags: H
LayerCount: 2
Fore
SplineSet
644.433112953 191.602202568 m 1
 647.142988335 185.68974719 l 1
 642.591710439 183.603744821 l 2
 641.384238524 178.816772221 640.019638495 174.08981707 638.586724767 169.598002979 c 0
 626.964040129 133.163891408 610.003307046 104.30547431 600.19043181 66.6894525713 c 2
 593.879884381 42.4990207614 l 1
 569.689452571 48.8095681901 l 1
 545.499020761 55.1201156188 l 1
 551.80956819 79.3105474287 l 2
 558.948709876 106.677257224 568.712966633 129.136623144 577.123908061 149.030103397 c 1
 549.994621793 133.769261659 504.129454618 112.130991645 470.501903981 153.351860167 c 0
 420.949042042 216.118818624 499.58650611 276.267628494 535.753903842 299.203051446 c 0
 544.859154326 304.806282513 554.171389252 307.786717832 563.73681278 309.126013579 c 0
 596.153885582 313.664866212 641.011586803 297.572423358 646.791375453 254.224008482 c 0
 649.734914538 231.002755701 648.366801777 210.439680052 644.433112953 191.602202568 c 1
597.894841194 218.022987747 m 0
 598.649603738 227.146184675 598.544739985 237.235525284 597.208624547 247.775991518 c 0
 596.676486592 251.767026183 586.666752412 261.848811088 570.669897803 259.609023242 c 0
 567.287410512 259.135426769 564.113322738 257.946011065 562.246096158 256.796948554 c 0
 516.767675946 227.956974761 499.052040044 198.346788294 509.502585827 184.64121877 c 0
 519.675438335 172.588640988 533.21431142 183.235894073 587.430627103 212.601808245 c 0
 590.681430349 214.362584644 594.332857604 216.261692184 597.894841194 218.022987747 c 0
250.774181267 411.381980331 m 1
 249.376649922 287.942491363 284.785958716 176.55242266 289.986760119 16.8135224225 c 1
 288.986760119 16.8135224225 290.019301016 15.8140520177 289.986760119 16.8135224225 c 1
 290.800282542 -8.17323769698 l 1
 265.813522422 -8.98676011947 l 1
 240.826762303 -9.80028254197 l 1
 240.013239881 15.1864775775 l 2
 234.733176874 177.359841346 194.186726071 292.505637443 201.60072464 438.239786968 c 0
 203.763973825 480.761953276 210.149116714 525.544432601 222.80825147 574.305544252 c 0
 251.684891915 684.655563095 333.589976687 803.399359976 462.355435732 780.617680223 c 0
 478.155592989 777.822267786 494.857482672 774.074410231 512.050509501 769.412970007 c 0
 635.679311269 735.894249005 820.255522089 644.950533223 780.123188064 497.43708924 c 0
 724.785082425 294.03168299 416.355998177 395.307579766 250.774181267 411.381980331 c 1
253.384789604 461.358759714 m 1
 453.689386307 442.576052013 692.918614252 367.364875063 731.876811936 510.56291076 c 0
 757.206016373 603.664851392 628.492286365 686.037703658 498.96667302 721.155191122 c 0
 483.139558748 725.446299828 467.844407011 728.870039907 453.644564268 731.382319777 c 0
 366.446568571 746.809724205 298.320217536 665.363962304 271.185624091 561.67105164 c 0
 262.010761613 526.330840616 256.368311407 492.920659299 253.384789604 461.358759714 c 1
172.002743033 10.3703297328 m 1
 172.373072766 35.3675867001 l 1
 197.370329733 34.9972569673 l 1
 332.370329733 32.9972569673 l 1
 357.3675867 32.6269272344 l 1
 356.997256967 7.62967026715 l 1
 356.626927234 -17.3675867001 l 1
 331.629670267 -16.9972569673 l 1
 196.629670267 -14.9972569673 l 1
 171.6324133 -14.6269272344 l 1
 172.002743033 10.3703297328 l 1
EndSplineSet
EndChar

StartChar: I
Encoding: 73 73 20
Width: 1000
VWidth: 0
Flags: HW
LayerCount: 2
Fore
SplineSet
862.649515013 620.05505455 m 1
 841.704569562 606.405539537 l 1
 828.05505455 627.350484987 l 2
 826.332463386 629.993771428 824.562820995 632.621946231 822.74873255 635.230759859 c 0
 765.09453304 718.142407175 677.264628571 765.085473169 616.31771097 722.506021553 c 0
 482.31608079 628.888444304 417.832352395 377.086700914 457.315800191 211.80877449 c 0
 467.615206367 168.694981195 488.890392371 131.770928923 517.246360828 103.426157571 c 0
 595.491677375 25.2117382603 729.138078574 9.81174468853 842.269324323 123.624503966 c 2
 859.893828289 141.355179643 l 1
 877.624503966 123.730675677 l 1
 895.355179643 106.106171711 l 1
 877.730675677 88.375496034 l 2
 746.604778568 -43.5403161171 579.701383849 -29.7009219338 481.898004333 68.0638373267 c 0
 447.013179058 102.934887404 421.113365062 148.162161662 408.684199809 200.19122551 c 0
 365.26725698 381.934783461 429.68391921 653.111555696 587.68228903 763.493978447 c 0
 687.424989687 833.177395818 803.355958332 750.699024621 863.79943896 663.776153589 c 0
 865.898225459 660.757919922 867.947419996 657.714683383 869.94494545 654.649515013 c 2
 883.594460463 633.704569562 l 1
 862.649515013 620.05505455 l 1
120.60029067 578.265751698 m 1
 97.8660423683 588.665461028 l 1
 108.265751698 611.39970933 l 2
 122.903775996 643.399111284 146.355059661 678.475814703 175.097887709 710.089851058 c 0
 235.58591081 776.620206323 337.224991742 842.995467328 418.870242375 768.449803706 c 0
 602.307268221 600.470954195 668.963654232 406.927065703 597.981377489 165.936464501 c 0
 578.270402628 99.0158227249 544.803317037 50.7141417156 501.832032935 21.769074919 c 0
 386.110568474 -56.1798528038 227.197884874 15.0161952713 132.261485703 156.038838703 c 2
 118.300324406 176.777353 l 1
 139.038838703 190.738514297 l 1
 159.777353 204.699675594 l 1
 173.738514297 183.961161297 l 2
 261.971105471 52.8966449172 392.879196312 8.66468719495 473.898546789 63.2385860297 c 0
 505.196027673 84.3202849752 532.733549941 121.379063639 550.018622511 180.063535499 c 0
 615.712868257 403.100841489 557.704597054 573.518180412 385.116267413 731.56254969 c 0
 339.738620477 772.994314284 272.364190575 742.745993637 212.093263354 676.454420619 c 0
 186.702763468 648.527586657 165.715271623 616.791364907 153.734248302 590.60029067 c 2
 143.334538972 567.866042368 l 1
 120.60029067 578.265751698 l 1
EndSplineSet
EndChar

StartChar: U
Encoding: 85 85 21
Width: 1000
VWidth: 0
Flags: H
LayerCount: 2
Fore
SplineSet
147.137363677 778.617119613 m 1
 149.75448329 803.479755936 l 1
 174.617119613 800.862636323 l 2
 309.684668799 786.644999567 381.081269068 766.956795339 512.400190859 764.996811432 c 0
 626.303315382 763.049749474 690.522149132 780.708425738 809.871009993 790.909183077 c 2
 872.025576602 796.221539197 l 1
 830.742173824 749.455184487 l 2
 710.99469754 613.803746509 602.892896047 561.64773578 528.892550401 428.425455441 c 1
 583.962983623 421.057264988 642.681895506 415.475783498 710.97670488 412.980995941 c 0
 776.22019549 410.262517166 806.679011544 430.997428653 879.715233091 460.211917272 c 2
 902.927150363 469.496684181 l 1
 912.211917272 446.284766909 l 1
 921.496684181 423.072849637 l 1
 898.284766909 413.788082728 l 2
 831.320988456 387.002571347 787.77980451 359.737482834 709.02329512 363.019004059 c 0
 632.264872271 365.822964711 566.804652415 372.478688081 505.679542069 381.15971793 c 1
 454.062926266 260.703736167 501.489257812 188.133789062 511.938476562 39.755859375 c 2
 517.865234375 -44.412109375 l 1
 457 19 l 1
 134.04362544 449.942008287 l 1
 97.7733499283 498.011048122 l 1
 157.423658301 489.764461711 l 2
 284.311194952 472.222405953 378.345518469 451.650192344 476.357339011 436.132043832 c 1
 547.715187984 575.185436019 646.518280904 634.085412907 747.492744793 734.130007665 c 1
 670.57326269 724.816784033 606.330050143 713.383868209 511.572711996 715.003651767 c 0
 374.954409255 717.042730913 300.297777247 737.356848218 169.382880387 751.137363677 c 2
 144.520244064 753.75448329 l 1
 147.137363677 778.617119613 l 1
454.849486088 388.946859449 m 1
 376.37003369 401.765007721 302.328892072 416.972982027 210.704245566 431.355993994 c 1
 460 94 l 1
 445.404296875 181.920898438 415.350862089 287.332807922 454.849486088 388.946859449 c 1
EndSplineSet
EndChar

StartChar: R
Encoding: 82 82 22
Width: 1000
VWidth: 0
Flags: H
LayerCount: 2
Fore
SplineSet
583.432952358 781.342317749 m 1
 591.775270107 804.909365392 l 1
 615.342317749 796.567047642 l 2
 720.457441126 759.358154412 884.626933667 725.515929485 886.996409851 577.423667964 c 0
 889.143713811 450.732734339 644.400697361 419.867660337 637.09988058 408.10198076 c 1
 647.227369802 389.065933018 886 333.966120306 886 202 c 0
 886 67.9926628624 711.37445674 34.5470405602 617.836885028 7.95302507357 c 2
 593.789910102 1.11614004546 l 1
 586.953025074 25.1631149719 l 1
 580.116140045 49.2100898983 l 1
 604.163114972 56.0469749264 l 1
 605.124993969 56.3204503276 603.163114972 56.0469749264 604.163114972 56.0469749264 c 1
 714.62554326 87.4529594398 836 120.007337138 836 202 c 0
 836 297.495064043 587 304.861795928 587 408 c 0
 587 517.211062284 838.517256093 487.270041336 837.003590149 576.576332036 c 0
 835.373066333 678.484070515 719.542558874 706.641845588 598.657682251 749.432952358 c 2
 575.090634608 757.775270107 l 1
 583.432952358 781.342317749 l 1
415.243932565 785.410848524 m 1
 426.654781089 763.166915958 l 1
 404.410848524 751.756067435 l 2
 250.728526497 672.91903211 125.264283996 580.439835465 127.996884239 417.394687646 c 0
 130.781624255 241.027819958 246.407057615 138.343799788 416.493087005 59.6913006482 c 2
 439.184387653 49.1982136432 l 1
 428.691300648 26.5069129951 l 1
 418.198213643 3.81561234686 l 1
 395.506912995 14.3086993518 l 2
 219.592942385 95.6562002117 81.2183757448 212.972180042 78.0031157609 416.605312354 c 0
 74.7357160037 611.560164535 227.271473503 717.080967891 381.589151476 796.243932565 c 2
 403.833084042 807.654781089 l 1
 415.243932565 785.410848524 l 1
EndSplineSet
EndChar

StartChar: O
Encoding: 79 79 23
Width: 1000
VWidth: 0
Flags: H
LayerCount: 2
Fore
SplineSet
468.955078125 245.333007812 m 4
 472.247070312 222.286132812 484.532226562 213.169921875 492.510742188 213.739257812 c 4
 507.838867188 214.728515625 519.704101562 229.404296875 517.412109375 246.594726562 c 4
 514.737304688 267.990234375 498.947265625 281.48828125 481.198242188 279.875 c 4
 475.573242188 279.487304688 465.45703125 269.813476562 468.955078125 245.333007812 c 4
419.45703125 238.26171875 m 4
 414.954101562 269.78125 424.838867188 326.107421875 477.213867188 329.71875 c 4
 525.46484375 334.10546875 561.674804688 295.603515625 567 253 c 4
 572.708007812 210.189453125 542.573242188 166.865234375 495.901367188 163.854492188 c 4
 447.879882812 160.424804688 424.165039062 205.307617188 419.45703125 238.26171875 c 4
188.554749223 -1.14707838489 m 1
 165.407670838 8.2981723923 l 1
 174.852921615 31.4452507772 l 1
 478.852921615 776.445250777 l 1
 502.371425217 834.0810573 l 1
 525.250251914 776.188350556 l 1
 821.250251914 27.1883505561 l 1
 830.43860247 3.93809864221 l 1
 807.188350556 -5.25025191387 l 1
 783.938098642 -14.43860247 l 1
 774.749748086 8.81164944392 l 1
 501.628574783 699.9189427 l 1
 221.147078385 12.5547492228 l 1
 211.701827608 -10.5923291621 l 1
 188.554749223 -1.14707838489 l 1
EndSplineSet
EndChar

StartChar: ltd01
Encoding: 256 -1 24
Width: 1000
VWidth: 0
Flags: HW
LayerCount: 2
Fore
SplineSet
808.014648438 536.193359375 m 5
 783.603515625 541.588867188 l 5
 759.193359375 546.985351562 l 5
 764.588867188 571.396484375 l 5
 790.688476562 689.46484375 l 5
 106.456054688 22.103515625 l 5
 88.55859375 4.6474609375 l 5
 71.103515625 22.5439453125 l 5
 53.6474609375 40.44140625 l 5
 71.5439453125 57.896484375 l 5
 735.037109375 705.029296875 l 5
 611.116210938 673.759765625 l 5
 598.78515625 722.21484375 l 5
 629.82421875 730.180664062 l 5
 873 792 l 5
 808.014648438 536.193359375 l 5
EndSplineSet
EndChar

StartChar: V
Encoding: 86 86 25
Width: 1000
VWidth: 0
Flags: HW
LayerCount: 2
Fore
SplineSet
683.429251381 783 m 1
 673.663596276 770.561639287 l 2
 579.24225005 650.298661463 484.556385082 488.631649813 486.982440393 423.936841515 c 0
 489.712428749 351.141893115 544.168452701 160.620331267 685.982728727 29.346305486 c 2
 694 21.9249124833 l 1
 675 -16.6841030461 l 1
 662.184935689 -13.0531681579 l 2
 413.93623747 57.283963004 285.089510534 223.567951864 277.020440006 422.989266359 c 0
 269.305492947 613.658672229 432.383748348 742.873759313 646.536686695 809.859986474 c 2
 658 813.445667412 l 1
 683.429251381 783 l 1
583.968817784 733.993798645 m 1
 419.522458842 664.85618449 321.514171742 560.083900445 326.979559994 425.010733641 c 0
 333.108090801 273.548472275 415.10747103 144.635225369 582.157699773 68.9478242481 c 1
 479.872091207 200.417364613 439.760692925 348.917700622 437.017559607 422.063158485 c 0
 434.031180782 501.69992716 507.282037273 626.009398839 583.968817784 733.993798645 c 1
EndSplineSet
EndChar

StartChar: ltd02
Encoding: 257 -1 26
Width: 1000
VWidth: 0
Flags: HW
LayerCount: 2
Fore
SplineSet
226.38671875 581.861328125 m 1
 204.248046875 593.474609375 l 1
 215.861328125 615.61328125 l 1
 247.861328125 676.61328125 l 1
 254.8125 689.864257812 l 1
 269.774414062 689.999023438 l 1
 712.774414062 693.999023438 l 1
 725.374023438 694.112304688 l 1
 732.9609375 684.052734375 l 1
 778.9609375 623.052734375 l 1
 794.012695312 603.091796875 l 1
 774.052734375 588.0390625 l 1
 754.091796875 572.987304688 l 1
 739.0390625 592.947265625 l 1
 700.625976562 643.887695312 l 1
 285.1875 640.135742188 l 1
 260.138671875 592.38671875 l 1
 248.525390625 570.248046875 l 1
 226.38671875 581.861328125 l 1
504.374023438 714.330078125 m 1
 531.73046875 760.407226562 l 1
 473.158203125 759.626953125 l 1
 504.374023438 714.330078125 l 1
485.35546875 653.813476562 m 1
 405.415039062 769.813476562 l 1
 378.841796875 808.373046875 l 1
 425.666992188 808.998046875 l 1
 575.666992188 810.998046875 l 1
 620.26953125 811.592773438 l 1
 597.497070312 773.237304688 l 1
 527.4375 655.237304688 l 1
 506 653 l 1
 485.35546875 653.813476562 l 1
EndSplineSet
EndChar

StartChar: ltd03
Encoding: 258 -1 27
Width: 1000
VWidth: 0
Flags: HW
LayerCount: 2
Fore
SplineSet
852.749023438 371.53515625 m 4
 856.041015625 348.489257812 868.326171875 339.373046875 876.3046875 339.942382812 c 4
 891.6328125 340.931640625 903.498046875 355.607421875 901.206054688 372.797851562 c 4
 898.53125 394.193359375 882.741210938 407.69140625 864.9921875 406.078125 c 4
 859.3671875 405.690429688 849.251953125 396.016601562 852.749023438 371.53515625 c 4
803.250976562 364.46484375 m 4
 798.748046875 395.983398438 808.6328125 452.309570312 861.0078125 455.921875 c 4
 909.258789062 460.30859375 945.46875 421.806640625 950.793945312 379.202148438 c 4
 956.501953125 336.392578125 926.3671875 293.068359375 879.6953125 290.057617188 c 4
 831.673828125 286.626953125 807.958984375 331.510742188 803.250976562 364.46484375 c 4
56.0078125 349.383789062 m 1
 55.390625 374.375976562 l 1
 80.3837890625 374.9921875 l 1
 79.3837890625 374.967773438 80.3837890625 373.9921875 80.3837890625 374.9921875 c 1
 823.383789062 389.9921875 l 5
 848.375976562 390.609375 l 5
 848.9921875 365.616210938 l 5
 849.609375 340.624023438 l 5
 824.616210938 340.0078125 l 5
 81.6162109375 325.0078125 l 1
 81.6162109375 326.0078125 80.6171875 324.983398438 81.6162109375 325.0078125 c 1
 56.6240234375 324.390625 l 1
 56.0078125 349.383789062 l 1
EndSplineSet
EndChar

StartChar: ltd04
Encoding: 259 -1 28
Width: 1000
VWidth: 0
Flags: HW
LayerCount: 2
Fore
SplineSet
873.645507812 770.997070312 m 1
 898.643554688 771.3515625 l 1
 898.997070312 746.354492188 l 1
 908.997070312 40.3544921875 l 1
 909.3515625 15.3564453125 l 1
 884.354492188 15.0029296875 l 1
 859.356445312 14.6484375 l 1
 859.002929688 39.6455078125 l 1
 849.002929688 745.645507812 l 1
 848.6484375 770.643554688 l 1
 873.645507812 770.997070312 l 1
EndSplineSet
EndChar

StartChar: ltd05
Encoding: 260 -1 29
Width: 1000
VWidth: 0
Flags: H
LayerCount: 2
Fore
SplineSet
469 -41 m 1
 484.656310511 -21.509490997 l 1
 606.656310511 -119.509490997 l 1
 591 -139 l 1
 575.343689489 -158.490509003 l 1
 453.343689489 -60.490509003 l 1
 469 -41 l 1
EndSplineSet
EndChar

StartChar: ltd06
Encoding: 261 -1 30
Width: 1000
VWidth: 0
Flags: HW
LayerCount: 2
Fore
SplineSet
468.741210938 -98.3857421875 m 0
 472.033203125 -121.432617188 484.318359375 -130.548828125 492.296875 -129.979492188 c 0
 507.625 -128.990234375 519.490234375 -114.314453125 517.198242188 -97.1240234375 c 0
 514.5234375 -75.728515625 498.733398438 -62.23046875 480.984375 -63.84375 c 0
 475.359375 -64.2314453125 465.243164062 -73.9052734375 468.741210938 -98.3857421875 c 0
419.243164062 -105.45703125 m 0
 414.740234375 -73.9375 424.625 -17.611328125 477 -14 c 0
 525.250976562 -9.61328125 561.4609375 -48.115234375 566.786132812 -90.71875 c 0
 572.494140625 -133.529296875 542.359375 -176.853515625 495.6875 -179.864257812 c 0
 447.666015625 -183.293945312 423.951171875 -138.411132812 419.243164062 -105.45703125 c 0
EndSplineSet
EndChar

StartChar: ltd07
Encoding: 262 -1 31
Width: 1000
VWidth: 0
Flags: HW
LayerCount: 2
Fore
SplineSet
908.788766729 661.755738524 m 5
 932.544505254 653.966971795 l 5
 924.755738524 630.211233271 l 6
 885.164700695 509.458567893 864.908182999 438.061615008 763.68120804 347.379116607 c 4
 651.92392528 247.263217468 513.179576851 349.578681362 426.672137264 293.069814558 c 4
 305.747998043 214.079046196 265.19299113 155.192415696 170.288484158 40.0954604313 c 6
 154.383944589 20.8069762734 l 5
 135.095460431 36.7115158422 l 5
 115.806976273 52.6160554109 l 5
 131.711515842 71.9045395687 l 6
 224.80700887 184.807584304 272.252001957 251.920953804 399.327862736 334.930185442 c 4
 529.234485649 419.788506138 650.07607472 312.736782532 730.31879196 384.620883393 c 4
 823.19551463 467.822947451 836.835299305 522.541432107 877.244261476 645.788766729 c 6
 885.033028205 669.544505254 l 5
 908.788766729 661.755738524 l 5
787.409781006 780.996641365 m 5
 812.406422371 780.586860359 l 5
 811.996641365 755.590218994 l 6
 809.980498448 632.605501041 798.638235997 551.611648399 695.68120804 459.379116607 c 4
 583.923918764 359.263211631 445.179573401 461.578704293 358.672137264 405.069814558 c 4
 237.747998043 326.079046196 197.19299113 267.192415696 102.288484158 152.095460431 c 6
 86.3839445891 132.806976273 l 5
 67.0954604313 148.711515842 l 5
 47.8069762734 164.616055411 l 5
 63.7115158422 183.904539569 l 6
 156.80700887 296.807584304 204.252001957 363.920953804 331.327862736 446.930185442 c 4
 461.234460252 531.788527368 582.076081236 424.736788369 662.31879196 496.620883393 c 4
 753.465279628 578.273117226 760.019501552 635.394498959 762.003358635 756.409781006 c 6
 762.413139641 781.406422371 l 5
 787.409781006 780.996641365 l 5
EndSplineSet
EndChar

StartChar: ltd08
Encoding: 263 -1 32
Width: 1000
VWidth: 0
Flags: HW
LayerCount: 2
Fore
SplineSet
669.722912083 758.204847433 m 5
 689.927759516 743.48193535 l 5
 675.204847433 723.277087917 l 6
 580.911974879 593.875167072 530.117761117 520.910063772 534.985935934 375.838454226 c 4
 539.671404226 236.21149914 605.8 172.6 700 47 c 6
 715 27 l 5
 695 12 l 5
 675 -3 l 5
 660 17 l 6
 568.32 139.24 490.189803983 215.7839043 485.014064066 374.161545774 c 4
 479.755103937 535.085725723 541.088025121 624.124832928 634.795152567 752.722912083 c 6
 649.51806465 772.927759516 l 5
 669.722912083 758.204847433 l 5
EndSplineSet
EndChar

StartChar: lt_ZA
Encoding: 264 -1 33
Width: 1000
VWidth: 0
Flags: HW
LayerCount: 2
Fore
SplineSet
696.778320312 173.564453125 m 5
 704.861328125 167.674804688 l 5
 712.942382812 161.78515625 l 5
 707.053710938 153.703125 l 5
 701.1640625 145.622070312 l 6
 681.47265625 118.598632812 667.012695312 98.23828125 658.112304688 77.6279296875 c 4
 649.9765625 58.7880859375 646.098632812 39.4306640625 646.989257812 12.8701171875 c 4
 647.403320312 0.525390625 649.0703125 -10.0185546875 651.790039062 -19.6298828125 c 4
 660.66015625 -50.9775390625 681.62890625 -73.837890625 711 -113 c 6
 717 -121 l 5
 723 -129 l 5
 715 -135 l 5
 707 -141 l 5
 699 -147 l 5
 691 -153 l 5
 685 -145 l 5
 679 -137 l 6
 653.716796875 -103.288085938 629.725585938 -77.2275390625 616.66796875 -40.994140625 c 4
 611.098632812 -25.541015625 607.662109375 -8.3818359375 607.010742188 11.5380859375 c 4
 605.979492188 43.115234375 611.188476562 68.75 621.116210938 92.2255859375 c 4
 632.26171875 118.580078125 648.9921875 141.9453125 668.8359375 169.178710938 c 6
 674.725585938 177.260742188 l 5
 680.615234375 185.341796875 l 5
 688.696289062 179.453125 l 5
 696.778320312 173.564453125 l 5
481.444927254 495.575594047 m 1
 500.809541367 519.887760667 l 1
 520.405441785 495.761625205 l 1
 892.405441785 37.7616252055 l 1
 925.571172046 -3.07145129855 l 1
 872.96603264 -2.99997692436 l 1
 136.96603264 -1.99997692436 l 1
 85.1825694124 -1.92961895802 l 1
 117.444927254 38.5755940469 l 1
 481.444927254 495.575594047 l 1
501.190458633 440.112239333 m 1
 188.817430588 47.929618958 l 1
 820.428827954 47.0714512986 l 1
 501.190458633 440.112239333 l 1
168.181472024 579.536418273 m 1
 146.717890298 592.354946249 l 1
 159.536418273 613.818527976 l 2
 199.053285102 679.986304992 236.541969613 776.252292159 341.537510129 773.994220989 c 0
 464.683988158 771.345909634 449.846821869 616.147204274 496.617095869 614.992382693 c 0
 532.117507737 614.115829314 567.616075461 773.499924562 661.208392986 768.97077865 c 0
 756.527590159 764.358065089 800.257907082 680.614796922 849.068596199 614.908100033 c 2
 863.976696232 594.839503835 l 1
 843.908100033 579.931403801 l 1
 823.839503835 565.023303768 l 1
 808.931403801 585.091899967 l 2
 753.742092918 659.385203078 721.402097341 715.999356786 658.791607014 719.02922135 c 0
 628.383955585 720.500717022 593.901333512 562.575063495 495.382904131 565.007617307 c 0
 380.153178131 567.852795726 403.316011842 722.654090366 340.462489871 724.005779011 c 0
 273.452171012 725.446926591 248.946714898 666.013695008 202.463581727 588.181472024 c 2
 189.645053751 566.717890298 l 1
 168.181472024 579.536418273 l 1
EndSplineSet
EndChar

StartChar: lt_ZB
Encoding: 265 -1 34
Width: 1000
VWidth: 0
Flags: HW
LayerCount: 2
Fore
SplineSet
384.622169882 586.770754201 m 1
 409.392924083 590.148584319 l 1
 412.770754201 565.377830118 l 2
 423.678351539 485.388782977 429.151061435 436.283897583 462.36267807 439.860533221 c 0
 500.980038322 443.895182799 501.563369818 519.422021092 499.219302483 580.304093002 c 2
 499 586 l 1
 548.544496265 581.750547664 l 2
 555.415400342 581.161227324 559.727011741 519.06175758 563.335429208 503.725983343 c 0
 586.332776236 405.987258475 584.549087107 338.297580805 523.273731281 253.372087642 c 0
 511.28615672 236.757764326 492.07099051 231.323261987 476.019358153 232.459393744 c 0
 435.672273676 235.315153393 380.968302082 275.408226357 385.096753749 322.197345257 c 2
 387.294099007 347.100591508 l 1
 412.197345257 344.903246251 l 1
 437.100591508 342.705900993 l 1
 434.910061756 317.879897135 l 2
 435.49318251 309.662940936 466.64767477 281.04251909 481.576218742 282.331973935 c 0
 482.151530293 282.381666542 482.457322264 282.458877331 482.641990435 282.515740671 c 0
 482.66151041 282.541287966 482.69229825 282.580830479 482.726268719 282.627912358 c 0
 521.652538983 336.57835711 533.583007812 404.440429688 529 457 c 1
 517.467773438 438.364257812 494.214323815 393.001732493 467.597800541 390.135337679 c 0
 370.881762201 379.719764319 370.321622959 506.611404038 363.229245799 558.622169882 c 2
 359.851415681 583.392924083 l 1
 384.622169882 586.770754201 l 1
776.336558609 662.519201987 m 1
 755.855760596 648.182643378 l 1
 741.519201987 668.663441391 l 2
 720.229859647 699.076787591 686.465662326 744.059424837 669.405273438 743.025390625 c 0
 471 731 360.47265625 747.2265625 251 635 c 0
 167.681640625 549.584960938 185.1171875 512.987304688 185.999023438 397.190429688 c 0
 186.909179688 277.70703125 174.245117188 191.046875 259.7734375 104.581054688 c 0
 367.806640625 -4.6357421875 509.822397913 63.2839512396 752.705150356 75.7236170519 c 1
 759.521126798 88.5279725082 764.13719703 125.696602044 767.36970613 144.283529369 c 2
 771.653235498 168.913823239 l 1
 796.283529369 164.63029387 l 1
 820.913823239 160.346764502 l 1
 816.63029387 135.716470631 l 2
 815.395021288 128.613653281 817.855543991 28.7161252655 760.163990534 26.0271121807 c 0
 534.076842802 15.489151905 360.739257812 -68.58984375 224.2265625 69.4189453125 c 0
 121.827148438 172.939453125 136.854492188 284.740234375 136.000976562 396.809570312 c 0
 135.141601562 509.581054688 115.609375 567.80859375 215.208007812 669.913085938 c 0
 350.64453125 808.756835938 485 785 671 793 c 0
 721.890985446 795.188859589 761.770140353 726.923212409 782.480798013 697.336558609 c 2
 796.817356622 676.855760596 l 1
 776.336558609 662.519201987 l 1
683.778766292 214.56439509 m 5
 691.861116467 208.674514241 l 5
 699.942857271 202.785077462 l 5
 694.053420491 194.703336658 l 5
 688.163994977 186.621611326 l 6
 668.472750661 159.59828207 654.013116635 139.237820105 645.112544358 118.627671275 c 4
 636.976512077 99.7878898592 633.098232772 80.4304074417 633.989492505 53.8705098237 c 4
 634.403713496 41.5256881955 636.070287246 30.9814992837 638.790193452 21.3696601677 c 4
 647.660574014 -9.977255646 668.628978572 -32.8381306144 698 -72 c 6
 704 -80 l 5
 710 -88 l 5
 702 -94 l 5
 694 -100 l 5
 686 -106 l 5
 678 -112 l 5
 672 -104 l 5
 665.999961654 -95.9999488712 l 6
 640.71672637 -62.2885196357 616.725355322 -36.2278807203 603.66756547 0.0058634127234 c 4
 598.098604587 15.4590378019 594.662160474 32.6183961551 594.011194508 52.5376476612 c 4
 592.97929847 84.1149119664 598.188818864 109.749595655 608.116291841 133.225168033 c 4
 619.261529826 159.580398774 635.992248214 182.94537468 655.836227946 210.17849928 c 6
 661.725876384 218.26053053 l 5
 667.614848358 226.341633508 l 5
 675.696416098 220.453299352 l 5
 683.778766292 214.56439509 l 5
EndSplineSet
EndChar

StartChar: lt_ZC
Encoding: 266 -1 35
Width: 1000
VWidth: 0
Flags: HW
LayerCount: 2
Fore
SplineSet
683.778766292 214.56439509 m 5
 691.861116467 208.674514241 l 5
 699.942857271 202.785077462 l 5
 694.053420491 194.703336658 l 5
 688.163994977 186.621611326 l 6
 668.472750661 159.59828207 654.013116635 139.237820105 645.112544358 118.627671275 c 4
 636.976512077 99.7878898592 633.098232772 80.4304074417 633.989492505 53.8705098237 c 4
 634.403713496 41.5256881955 636.070287246 30.9814992837 638.790193452 21.3696601677 c 4
 647.660574014 -9.977255646 668.628978572 -32.8381306144 698 -72 c 6
 704 -80 l 5
 710 -88 l 5
 702 -94 l 5
 694 -100 l 5
 686 -106 l 5
 678 -112 l 5
 672 -104 l 5
 665.999961654 -95.9999488712 l 6
 640.71672637 -62.2885196357 616.725355322 -36.2278807203 603.66756547 0.0058634127234 c 4
 598.098604587 15.4590378019 594.662160474 32.6183961551 594.011194508 52.5376476612 c 4
 592.97929847 84.1149119664 598.188818864 109.749595655 608.116291841 133.225168033 c 4
 619.261529826 159.580398774 635.992248214 182.94537468 655.836227946 210.17849928 c 6
 661.725876384 218.26053053 l 5
 667.614848358 226.341633508 l 5
 675.696416098 220.453299352 l 5
 683.778766292 214.56439509 l 5
480.741210938 719.614257812 m 0
 484.033203125 696.567382812 496.318359375 687.451171875 504.296875 688.020507812 c 0
 519.625 689.009765625 531.490234375 703.685546875 529.198242188 720.875976562 c 0
 526.5234375 742.271484375 510.733398438 755.76953125 492.984375 754.15625 c 0
 487.359375 753.768554688 477.243164062 744.094726562 480.741210938 719.614257812 c 0
431.243164062 712.54296875 m 0
 426.740234375 744.0625 436.625 800.388671875 489 804 c 0
 537.250976562 808.38671875 573.4609375 769.884765625 578.786132812 727.28125 c 0
 584.494140625 684.470703125 554.359375 641.146484375 507.6875 638.135742188 c 0
 459.666015625 634.706054688 435.951171875 679.588867188 431.243164062 712.54296875 c 0
476.8984375 640.405273438 m 1
 498.1328125 673.831054688 l 1
 519.177734375 640.286132812 l 1
 886.177556009 41.2857488122 l 1
 910.23460379 2.93868354817 l 1
 864.966124692 3.00002295074 l 1
 126.966124692 4.00002295074 l 1
 81.5391472489 4.06157712072 l 1
 105.898054216 42.4055169281 l 1
 476.8984375 640.405273438 l 1
497.8671875 580.168945312 m 1
 172.460852751 53.9384228793 l 1
 819.76539621 53.0613164518 l 1
 497.8671875 580.168945312 l 1
EndSplineSet
EndChar

StartChar: lt_ZD
Encoding: 267 -1 36
Width: 1000
VWidth: 0
Flags: HW
LayerCount: 2
Fore
SplineSet
819.979492188 240.79296875 m 5
 821.530273438 230.913085938 l 5
 823.080078125 221.034179688 l 5
 813.201171875 219.483398438 l 5
 803.322265625 217.93359375 l 6
 770.290039062 212.749023438 745.668945312 208.576171875 724.801757812 200.295898438 c 4
 705.7265625 192.728515625 689.296875 181.782226562 671.145507812 162.37109375 c 4
 662.709960938 153.348632812 656.431640625 144.71484375 651.55859375 135.99609375 c 4
 635.665039062 107.556640625 634.327148438 76.5654296875 627.404296875 28.10546875 c 6
 625.989257812 18.2060546875 l 5
 624.575195312 8.306640625 l 5
 614.67578125 9.720703125 l 5
 604.776367188 11.134765625 l 5
 594.876953125 12.548828125 l 5
 584.977539062 13.962890625 l 5
 586.391601562 23.86328125 l 5
 587.805664062 33.7626953125 l 6
 593.765625 75.478515625 595.229492188 110.870117188 611.6171875 145.723632812 c 4
 618.60546875 160.588867188 628.309570312 175.15234375 641.934570312 189.698242188 c 4
 663.533203125 212.755859375 685.34375 227.19921875 708.962890625 236.779296875 c 4
 735.479492188 247.533203125 763.831054688 252.225585938 797.120117188 257.450195312 c 6
 807 259 l 5
 816.877929688 260.549804688 l 5
 818.428710938 250.671875 l 5
 819.979492188 240.79296875 l 5
815.75789351 778.408472174 m 1
 835.166365684 762.650578663 l 1
 819.408472174 743.24210649 l 1
 219.408472174 4.2421064896 l 1
 203.650578663 -15.166365684 l 1
 184.24210649 0.59152782636 l 1
 164.833634316 16.3494213368 l 1
 180.591527826 35.7578935104 l 1
 780.591527826 774.75789351 l 1
 796.349421337 794.166365684 l 1
 815.75789351 778.408472174 l 1
184.24210649 778.408472174 m 1
 203.650578663 794.166365684 l 1
 219.408472174 774.75789351 l 1
 819.408472174 35.7578935104 l 1
 835.166365684 16.3494213368 l 1
 815.75789351 0.59152782636 l 1
 796.349421337 -15.166365684 l 1
 780.591527826 4.2421064896 l 1
 180.591527826 743.24210649 l 1
 164.833634316 762.650578663 l 1
 184.24210649 778.408472174 l 1
EndSplineSet
EndChar

StartChar: lt_ZE
Encoding: 268 -1 37
Width: 1000
VWidth: 0
Flags: HW
LayerCount: 2
Fore
SplineSet
405.91796875 549.889648438 m 5
 414 544 l 5
 422.08203125 538.110351562 l 5
 416.192382812 530.029296875 l 5
 410.302734375 521.947265625 l 6
 390.611328125 494.923828125 376.15234375 474.563476562 367.250976562 453.953125 c 4
 359.115234375 435.11328125 355.237304688 415.755859375 356.127929688 389.196289062 c 4
 356.54296875 376.8515625 358.208984375 366.306640625 360.928710938 356.6953125 c 4
 369.799804688 325.348632812 390.767578125 302.487304688 420.138671875 263.325195312 c 6
 426.138671875 255.325195312 l 5
 432.138671875 247.325195312 l 5
 424.138671875 241.325195312 l 5
 416.138671875 235.325195312 l 5
 408.138671875 229.325195312 l 5
 400.138671875 223.325195312 l 5
 394.138671875 231.325195312 l 5
 388.138671875 239.325195312 l 6
 362.85546875 273.037109375 338.864257812 299.09765625 325.806640625 335.331054688 c 4
 320.237304688 350.784179688 316.80078125 367.944335938 316.150390625 387.86328125 c 4
 315.118164062 419.440429688 320.328125 445.075195312 330.254882812 468.55078125 c 4
 341.400390625 494.90625 358.130859375 518.270507812 377.975585938 545.50390625 c 6
 383.865234375 553.5859375 l 5
 389.75390625 561.666992188 l 5
 397.834960938 555.778320312 l 5
 405.91796875 549.889648438 l 5
644.433112953 191.602202568 m 1
 647.142988335 185.68974719 l 1
 642.591710439 183.603744821 l 2
 641.384238524 178.816772221 640.019638495 174.08981707 638.586724767 169.598002979 c 0
 626.964040129 133.163891408 610.003307046 104.30547431 600.19043181 66.6894525713 c 2
 593.879884381 42.4990207614 l 1
 569.689452571 48.8095681901 l 1
 545.499020761 55.1201156188 l 1
 551.80956819 79.3105474287 l 2
 558.948709876 106.677257224 568.712966633 129.136623144 577.123908061 149.030103397 c 1
 549.994621793 133.769261659 504.129454618 112.130991645 470.501903981 153.351860167 c 0
 420.949042042 216.118818624 499.58650611 276.267628494 535.753903842 299.203051446 c 0
 544.859154326 304.806282513 554.171389252 307.786717832 563.73681278 309.126013579 c 0
 596.153885582 313.664866212 641.011586803 297.572423358 646.791375453 254.224008482 c 0
 649.734914538 231.002755701 648.366801777 210.439680052 644.433112953 191.602202568 c 1
597.894841194 218.022987747 m 0
 598.649603738 227.146184675 598.544739985 237.235525284 597.208624547 247.775991518 c 0
 596.676486592 251.767026183 586.666752412 261.848811088 570.669897803 259.609023242 c 0
 567.287410512 259.135426769 564.113322738 257.946011065 562.246096158 256.796948554 c 0
 516.767675946 227.956974761 499.052040044 198.346788294 509.502585827 184.64121877 c 0
 519.675438335 172.588640988 533.21431142 183.235894073 587.430627103 212.601808245 c 0
 590.681430349 214.362584644 594.332857604 216.261692184 597.894841194 218.022987747 c 0
250.774181267 411.381980331 m 1
 249.376649922 287.942491363 284.785958716 176.55242266 289.986760119 16.8135224225 c 1
 288.986760119 16.8135224225 290.019301016 15.8140520177 289.986760119 16.8135224225 c 1
 290.800282542 -8.17323769698 l 1
 265.813522422 -8.98676011947 l 1
 240.826762303 -9.80028254197 l 1
 240.013239881 15.1864775775 l 2
 234.733176874 177.359841346 194.186726071 292.505637443 201.60072464 438.239786968 c 0
 203.763973825 480.761953276 210.149116714 525.544432601 222.80825147 574.305544252 c 0
 251.684891915 684.655563095 333.589976687 803.399359976 462.355435732 780.617680223 c 0
 478.155592989 777.822267786 494.857482672 774.074410231 512.050509501 769.412970007 c 0
 635.679311269 735.894249005 820.255522089 644.950533223 780.123188064 497.43708924 c 0
 724.785082425 294.03168299 416.355998177 395.307579766 250.774181267 411.381980331 c 1
253.384789604 461.358759714 m 1
 453.689386307 442.576052013 692.918614252 367.364875063 731.876811936 510.56291076 c 0
 757.206016373 603.664851392 628.492286365 686.037703658 498.96667302 721.155191122 c 0
 483.139558748 725.446299828 467.844407011 728.870039907 453.644564268 731.382319777 c 0
 366.446568571 746.809724205 298.320217536 665.363962304 271.185624091 561.67105164 c 0
 262.010761613 526.330840616 256.368311407 492.920659299 253.384789604 461.358759714 c 1
172.002743033 10.3703297328 m 1
 172.373072766 35.3675867001 l 1
 197.370329733 34.9972569673 l 1
 332.370329733 32.9972569673 l 1
 357.3675867 32.6269272344 l 1
 356.997256967 7.62967026715 l 1
 356.626927234 -17.3675867001 l 1
 331.629670267 -16.9972569673 l 1
 196.629670267 -14.9972569673 l 1
 171.6324133 -14.6269272344 l 1
 172.002743033 10.3703297328 l 1
EndSplineSet
EndChar

StartChar: lt_ZF
Encoding: 269 -1 38
Width: 1000
VWidth: 0
Flags: HW
LayerCount: 2
Fore
SplineSet
711.1640625 434.22265625 m 1
 719.24609375 428.333007812 l 1
 727.328125 422.443359375 l 1
 721.438476562 414.361328125 l 1
 715.548828125 406.280273438 l 2
 695.857421875 379.256835938 681.3984375 358.896484375 672.498046875 338.286132812 c 0
 664.361328125 319.446289062 660.483398438 300.088867188 661.375 273.529296875 c 0
 661.7890625 261.18359375 663.455078125 250.639648438 666.17578125 241.028320312 c 0
 675.045898438 209.680664062 696.013671875 186.8203125 725.384765625 147.658203125 c 2
 731.384765625 139.658203125 l 1
 737.384765625 131.658203125 l 1
 729.384765625 125.658203125 l 1
 721.384765625 119.658203125 l 1
 713.384765625 113.658203125 l 1
 705.384765625 107.658203125 l 1
 699.384765625 115.658203125 l 1
 693.384765625 123.658203125 l 2
 668.1015625 157.370117188 644.110351562 183.430664062 631.052734375 219.6640625 c 0
 625.483398438 235.1171875 622.046875 252.276367188 621.396484375 272.196289062 c 0
 620.364257812 303.7734375 625.57421875 329.408203125 635.500976562 352.883789062 c 0
 646.646484375 379.23828125 663.376953125 402.603515625 683.221679688 429.836914062 c 2
 689.111328125 437.918945312 l 1
 695 446 l 1
 703.08203125 440.111328125 l 1
 711.1640625 434.22265625 l 1
908.788766729 661.755738524 m 1
 932.544505254 653.966971795 l 1
 924.755738524 630.211233271 l 2
 885.164700695 509.458567893 864.908182999 438.061615008 763.68120804 347.379116607 c 0
 651.92392528 247.263217468 513.179576851 349.578681362 426.672137264 293.069814558 c 0
 305.747998043 214.079046196 265.19299113 155.192415696 170.288484158 40.0954604313 c 2
 154.383944589 20.8069762734 l 1
 135.095460431 36.7115158422 l 1
 115.806976273 52.6160554109 l 1
 131.711515842 71.9045395687 l 2
 224.80700887 184.807584304 272.252001957 251.920953804 399.327862736 334.930185442 c 0
 529.234485649 419.788506138 650.07607472 312.736782532 730.31879196 384.620883393 c 0
 823.19551463 467.822947451 836.835299305 522.541432107 877.244261476 645.788766729 c 2
 885.033028205 669.544505254 l 1
 908.788766729 661.755738524 l 1
787.409781006 780.996641365 m 1
 812.406422371 780.586860359 l 1
 811.996641365 755.590218994 l 2
 809.980498448 632.605501041 798.638235997 551.611648399 695.68120804 459.379116607 c 0
 583.923918764 359.263211631 445.179573401 461.578704293 358.672137264 405.069814558 c 0
 237.747998043 326.079046196 197.19299113 267.192415696 102.288484158 152.095460431 c 2
 86.3839445891 132.806976273 l 1
 67.0954604313 148.711515842 l 1
 47.8069762734 164.616055411 l 1
 63.7115158422 183.904539569 l 2
 156.80700887 296.807584304 204.252001957 363.920953804 331.327862736 446.930185442 c 0
 461.234460252 531.788527368 582.076081236 424.736788369 662.31879196 496.620883393 c 0
 753.465279628 578.273117226 760.019501552 635.394498959 762.003358635 756.409781006 c 2
 762.413139641 781.406422371 l 1
 787.409781006 780.996641365 l 1
478.892411665 765.237031203 m 1
 497.91058469 785.215718017 l 1
 515.928918229 764.330831414 l 1
 708.259749643 541.401913184 l 1
 689.330831414 525.071081771 l 1
 670.401913184 508.740250357 l 1
 496.08941531 710.784281983 l 1
 299.870557131 504.655380462 l 1
 281.762968797 521.892411665 l 1
 263.655380462 539.129442869 l 1
 478.892411665 765.237031203 l 1
494.860351562 746 m 1
 519.860351562 746.138671875 l 1
 520 739.139648438 l 1
 523.999612054 42.1392736048 l 1
 524.138885659 17.1396615505 l 1
 499.139273605 17.0003879457 l 1
 474.139661551 16.861114341 l 1
 474.000387946 41.8607263952 l 1
 470 738.860351562 l 1
 469.861328125 745.860351562 l 1
 494.860351562 746 l 1
EndSplineSet
EndChar

StartChar: lt_ZG
Encoding: 270 -1 39
Width: 1000
VWidth: 0
Flags: HW
LayerCount: 2
Fore
SplineSet
683.778766292 214.56439509 m 5
 691.861116467 208.674514241 l 5
 699.942857271 202.785077462 l 5
 694.053420491 194.703336658 l 5
 688.163994977 186.621611326 l 6
 668.472750661 159.59828207 654.013116635 139.237820105 645.112544358 118.627671275 c 4
 636.976512077 99.7878898592 633.098232772 80.4304074417 633.989492505 53.8705098237 c 4
 634.403713496 41.5256881955 636.070287246 30.9814992837 638.790193452 21.3696601677 c 4
 647.660574014 -9.977255646 668.628978572 -32.8381306144 698 -72 c 6
 704 -80 l 5
 710 -88 l 5
 702 -94 l 5
 694 -100 l 5
 686 -106 l 5
 678 -112 l 5
 672 -104 l 5
 665.999961654 -95.9999488712 l 6
 640.71672637 -62.2885196357 616.725355322 -36.2278807203 603.66756547 0.0058634127234 c 4
 598.098604587 15.4590378019 594.662160474 32.6183961551 594.011194508 52.5376476612 c 4
 592.97929847 84.1149119664 598.188818864 109.749595655 608.116291841 133.225168033 c 4
 619.261529826 159.580398774 635.992248214 182.94537468 655.836227946 210.17849928 c 6
 661.725876384 218.26053053 l 5
 667.614848358 226.341633508 l 5
 675.696416098 220.453299352 l 5
 683.778766292 214.56439509 l 5
96.5952005218 288.408771837 m 2
 215.278569945 314.688660781 331.116954281 353.556603914 440.403164902 381.135172625 c 0
 445.35707824 382.385301425 463.014648438 388.873046875 466 393 c 0
 470.387695312 399.065429688 495.482421875 414.309570312 500 420 c 0
 504.517578125 425.690429688 497.176757812 422.325195312 502 428 c 1
 489.801757812 423.499023438 459.611275006 419.719139715 447 418 c 0
 252.866210937 391.536132812 211.512559357 638.166244015 156.725670038 777.87281178 c 2
 147.598481817 801.147141742 l 1
 170.87281178 810.274329962 l 1
 194.147141742 819.401518183 l 1
 203.274329962 796.12718822 l 2
 268.487440643 629.833755985 300.391117983 440.927369232 438.623278917 459.770905408 c 0
 504.116237325 468.698776626 589.115234375 531.583984375 645 613 c 0
 692.172851562 681.723632812 713.85319147 763.087204974 724.474089873 785.846246366 c 1
 724.474089873 785.846246366 775.617854323 808.038118537 775.715920624 783.337916478 c 0
 775.793845864 763.710693191 773.353597102 772.375367599 769.920658312 764.997419894 c 0
 768.431365187 761.583951245 766.424724243 756.927492887 764.02078008 751.250964944 c 0
 722.366847654 652.891895317 680.950615635 583.487966413 641.981077194 529.967026814 c 0
 601.781611168 474.756899133 564.359616814 436.571809037 533.337355454 401.557797366 c 1
 642.358341847 421.06015815 746.217916383 421.108359185 835.664383188 368.55489268 c 0
 911.441928609 324.032477908 893.863336169 224.78736009 851.008539842 152.035839717 c 0
 822.676198139 103.938051109 780.078010681 59.3805399063 728.788877264 31.9540848943 c 0
 627.57730493 -22.1679961471 443.670903386 -17.298878445 389.759192083 84.4060656616 c 0
 379.398359784 103.951872026 374.775052932 126.80479801 377.112421594 151.368214751 c 0
 384.163202097 225.464895596 398.591677301 279.721115383 419.268040749 323.952618208 c 1
 321.820156603 297.772088364 216.551872501 263.759508618 107.404799478 239.591228163 c 2
 82.996027641 234.186428685 l 1
 77.5912281628 258.595200522 l 1
 72.1864286846 283.003972359 l 1
 96.5952005218 288.408771837 l 2
96.5952005218 288.408771837 m 1
 97.5715513953 288.624963816 95.5952005218 288.408771837 96.5952005218 288.408771837 c 1
485.600851881 340.63786838 m 0
 483.445370905 337.302851408 481.260390632 333.801778744 479.27673356 330.480994922 c 0
 453.857581705 287.92751658 435.28793533 234.911170175 426.887578406 146.631785249 c 0
 425.402096664 131.020851612 428.199134762 118.646862945 433.936382827 107.823491181 c 0
 466.09574121 47.1545628943 616.329481786 28.5171665287 705.211122736 76.0459151057 c 0
 746.750382789 98.2587031014 783.809402558 136.46990002 807.927308624 177.413142898 c 0
 848.558409634 246.389654893 845.535257149 304.763875455 810.335616812 325.44510732 c 0
 727.677749501 374.009993292 625.669239108 370.904834311 505.837256629 345.153679783 c 0
 499.303555433 343.749627662 492.391664354 342.204136791 485.600851881 340.63786838 c 0
EndSplineSet
EndChar

StartChar: lt_ZH
Encoding: 271 -1 40
Width: 1000
VWidth: 0
Flags: HW
LayerCount: 2
Fore
SplineSet
681 309 m 5
 689.08203125 303.110351562 l 5
 697.1640625 297.220703125 l 5
 691.274414062 289.138671875 l 5
 685.384765625 281.056640625 l 6
 665.693359375 254.034179688 651.234375 233.672851562 642.333007812 213.063476562 c 4
 634.197265625 194.223632812 630.319335938 174.866210938 631.209960938 148.305664062 c 4
 631.625 135.9609375 633.291015625 125.416992188 636.010742188 115.8046875 c 4
 644.881835938 84.4580078125 665.849609375 61.59765625 695.220703125 22.435546875 c 6
 701.220703125 14.435546875 l 5
 707.220703125 6.435546875 l 5
 699.220703125 0.435546875 l 5
 691.220703125 -5.564453125 l 5
 683.220703125 -11.564453125 l 5
 675.220703125 -17.564453125 l 5
 669.220703125 -9.564453125 l 5
 663.220703125 -1.564453125 l 6
 637.9375 32.146484375 613.946289062 58.2080078125 600.888671875 94.44140625 c 4
 595.319335938 109.89453125 591.8828125 127.053710938 591.232421875 146.97265625 c 4
 590.200195312 178.55078125 595.409179688 204.184570312 605.336914062 227.66015625 c 4
 616.482421875 254.015625 633.212890625 277.380859375 653.056640625 304.614257812 c 6
 658.946289062 312.696289062 l 5
 664.8359375 320.77734375 l 5
 672.916992188 314.888671875 l 5
 681 309 l 5
786.160699907 760.319448839 m 1
 797.480148746 738.02886612 l 1
 775.189566027 726.709417281 l 2
 627.274223817 651.596075931 495.352982552 587.823793113 514.950478043 505.488860759 c 0
 530.675759389 439.420402314 799.318703957 499.698037455 811.449751673 361.534752423 c 0
 826.252606766 200.130087296 671.081202604 130.063136982 543.356813461 45.0861594293 c 2
 522.542582265 31.2381350312 l 1
 508.694557867 52.0523662269 l 1
 494.846533469 72.8665974226 l 1
 515.660764664 86.7146218207 l 2
 655.771758615 179.932595832 772.761030789 235.912879178 761.654286241 357.016569864 c 0
 754.336232403 440.363563624 502.430765653 342.150151463 466.309287582 493.911529866 c 0
 433.570845573 631.455503762 623.985541808 706.003533444 752.550668348 771.290582719 c 2
 774.841251068 782.610031559 l 1
 786.160699907 760.319448839 l 1
486.281793657 718.019644152 m 1
 497.601242496 695.729061432 l 1
 475.310659777 684.409612593 l 2
 327.395305075 609.2962649 195.474036024 545.524157637 215.071620919 463.188849669 c 0
 230.796349846 397.120222954 499.438795038 457.398530101 511.569861367 319.235033078 c 0
 526.373826907 157.830423185 371.202233891 87.7632907366 243.477907211 2.78635474177 c 1
 244.477907211 2.78635474177 244.310476458 3.3402757177 243.477907211 2.78635474177 c 1
 222.663676015 -11.0616696563 l 1
 208.815651617 9.75256153938 l 1
 194.967627219 30.5667927351 l 1
 215.781858414 44.4148171332 l 2
 355.892903601 137.632825233 472.881990898 193.61300972 461.774419077 314.716594552 c 0
 454.456366803 398.063570506 202.550421546 299.850670039 166.430332206 451.611931581 c 0
 133.691979601 589.155529863 324.10664805 663.7037351 452.671762098 728.990778032 c 2
 474.962344818 740.310226871 l 1
 486.281793657 718.019644152 l 1
EndSplineSet
EndChar

StartChar: lt_ZI
Encoding: 272 -1 41
Width: 1000
VWidth: 0
Flags: HW
LayerCount: 2
Fore
SplineSet
757.8359375 181.779296875 m 5
 765.91796875 175.889648438 l 5
 774 170 l 5
 768.110351562 161.91796875 l 5
 762.220703125 153.836914062 l 6
 742.530273438 126.813476562 728.0703125 106.453125 719.169921875 85.8427734375 c 4
 711.033203125 67.0029296875 707.155273438 47.6455078125 708.046875 21.0849609375 c 4
 708.4609375 8.740234375 710.126953125 -1.8037109375 712.84765625 -11.4150390625 c 4
 721.717773438 -42.7626953125 742.686523438 -65.623046875 772.057617188 -104.78515625 c 6
 778.057617188 -112.78515625 l 5
 784.057617188 -120.78515625 l 5
 776.057617188 -126.78515625 l 5
 768.057617188 -132.78515625 l 5
 760.057617188 -138.78515625 l 5
 752.057617188 -144.78515625 l 5
 746.057617188 -136.78515625 l 5
 740.056640625 -128.78515625 l 6
 714.7734375 -95.0732421875 690.782226562 -69.0126953125 677.724609375 -32.779296875 c 4
 672.155273438 -17.326171875 668.719726562 -0.1669921875 668.068359375 19.7529296875 c 4
 667.036132812 51.330078125 672.24609375 76.96484375 682.173828125 100.440429688 c 4
 693.318359375 126.794921875 710.049804688 150.16015625 729.893554688 177.393554688 c 6
 735.783203125 185.475585938 l 5
 741.671875 193.556640625 l 5
 749.75390625 187.66796875 l 5
 757.8359375 181.779296875 l 5
862.649515013 620.05505455 m 1
 841.704569562 606.405539537 l 1
 828.05505455 627.350484987 l 2
 826.332463386 629.993771428 824.562820995 632.621946231 822.74873255 635.230759859 c 0
 765.09453304 718.142407175 677.264628571 765.085473169 616.31771097 722.506021553 c 0
 482.31608079 628.888444304 417.832352395 377.086700914 457.315800191 211.80877449 c 0
 467.615206367 168.694981195 488.890392371 131.770928923 517.246360828 103.426157571 c 0
 595.491677375 25.2117382603 729.138078574 9.81174468853 842.269324323 123.624503966 c 2
 859.893828289 141.355179643 l 1
 877.624503966 123.730675677 l 1
 895.355179643 106.106171711 l 1
 877.730675677 88.375496034 l 2
 746.604778568 -43.5403161171 579.701383849 -29.7009219338 481.898004333 68.0638373267 c 0
 447.013179058 102.934887404 421.113365062 148.162161662 408.684199809 200.19122551 c 0
 365.26725698 381.934783461 429.68391921 653.111555696 587.68228903 763.493978447 c 0
 687.424989687 833.177395818 803.355958332 750.699024621 863.79943896 663.776153589 c 0
 865.898225459 660.757919922 867.947419996 657.714683383 869.94494545 654.649515013 c 2
 883.594460463 633.704569562 l 1
 862.649515013 620.05505455 l 1
120.60029067 578.265751698 m 1
 97.8660423683 588.665461028 l 1
 108.265751698 611.39970933 l 2
 122.903775996 643.399111284 146.355059661 678.475814703 175.097887709 710.089851058 c 0
 235.58591081 776.620206323 337.224991742 842.995467328 418.870242375 768.449803706 c 0
 602.307268221 600.470954195 668.963654232 406.927065703 597.981377489 165.936464501 c 0
 578.270402628 99.0158227249 544.803317037 50.7141417156 501.832032935 21.769074919 c 0
 386.110568474 -56.1798528038 227.197884874 15.0161952713 132.261485703 156.038838703 c 2
 118.300324406 176.777353 l 1
 139.038838703 190.738514297 l 1
 159.777353 204.699675594 l 1
 173.738514297 183.961161297 l 2
 261.971105471 52.8966449172 392.879196312 8.66468719495 473.898546789 63.2385860297 c 0
 505.196027673 84.3202849752 532.733549941 121.379063639 550.018622511 180.063535499 c 0
 615.712868257 403.100841489 557.704597054 573.518180412 385.116267413 731.56254969 c 0
 339.738620477 772.994314284 272.364190575 742.745993637 212.093263354 676.454420619 c 0
 186.702763468 648.527586657 165.715271623 616.791364907 153.734248302 590.60029067 c 2
 143.334538972 567.866042368 l 1
 120.60029067 578.265751698 l 1
EndSplineSet
EndChar

StartChar: lt_ZK
Encoding: 273 -1 42
Width: 1000
VWidth: 0
Flags: HW
LayerCount: 2
Fore
SplineSet
742.000976562 160 m 1
 750.083007812 154.109375 l 1
 758.165039062 148.220703125 l 1
 752.275390625 140.138671875 l 1
 746.385742188 132.056640625 l 2
 726.694335938 105.033203125 712.235351562 84.6728515625 703.334960938 64.0625 c 0
 695.198242188 45.2236328125 691.3203125 25.865234375 692.211914062 -0.6943359375 c 0
 692.625976562 -13.0390625 694.291992188 -23.5830078125 697.01171875 -33.1953125 c 0
 705.8828125 -64.5419921875 726.850585938 -87.40234375 756.221679688 -126.564453125 c 2
 762.221679688 -134.564453125 l 1
 768.221679688 -142.564453125 l 1
 760.221679688 -148.564453125 l 1
 752.221679688 -154.564453125 l 1
 744.221679688 -160.564453125 l 1
 736.221679688 -166.564453125 l 1
 730.221679688 -158.564453125 l 1
 724.221679688 -150.564453125 l 2
 698.938476562 -116.853515625 674.947265625 -90.79296875 661.889648438 -54.55859375 c 0
 656.3203125 -39.10546875 652.883789062 -21.9462890625 652.233398438 -2.02734375 c 0
 651.201171875 29.5498046875 656.411132812 55.1845703125 666.337890625 78.66015625 c 0
 677.483398438 105.015625 694.213867188 128.380859375 714.05859375 155.614257812 c 2
 719.948242188 163.696289062 l 1
 725.836914062 171.77734375 l 1
 733.91796875 165.888671875 l 1
 742.000976562 160 l 1
678.854492188 315.600585938 m 1
 697.700195312 351.578125 l 1
 721.33203125 318.546875 l 1
 897.33203125 72.546875 l 1
 924.9609375 33.9296875 l 1
 877.487304688 33.0048828125 l 1
 569.487304688 27.0048828125 l 1
 527.25390625 26.181640625 l 1
 546.854492188 63.6005859375 l 1
 678.854492188 315.600585938 l 1
704.299804688 256.421875 m 1
 610.74609375 77.818359375 l 1
 829.0390625 82.0703125 l 1
 704.299804688 256.421875 l 1
808.014648438 536.193359375 m 1
 783.603515625 541.588867188 l 1
 759.193359375 546.985351562 l 1
 764.588867188 571.396484375 l 1
 790.688476562 689.46484375 l 1
 106.456054688 22.103515625 l 1
 88.55859375 4.6474609375 l 1
 71.103515625 22.5439453125 l 1
 53.6474609375 40.44140625 l 1
 71.5439453125 57.896484375 l 1
 735.037109375 705.029296875 l 1
 611.116210938 673.759765625 l 1
 598.78515625 722.21484375 l 1
 629.82421875 730.180664062 l 1
 873 792 l 1
 808.014648438 536.193359375 l 1
EndSplineSet
EndChar

StartChar: lt_ZL
Encoding: 274 -1 43
Width: 1000
VWidth: 0
Flags: HW
LayerCount: 2
Fore
SplineSet
767.91796875 179.889648438 m 5
 776 174 l 5
 784.08203125 168.110351562 l 5
 778.192382812 160.028320312 l 5
 772.303710938 151.947265625 l 6
 752.612304688 124.923828125 738.15234375 104.563476562 729.251953125 83.953125 c 4
 721.116210938 65.11328125 717.237304688 45.755859375 718.12890625 19.1962890625 c 4
 718.54296875 6.8515625 720.209960938 -3.693359375 722.9296875 -13.3046875 c 4
 731.799804688 -44.6513671875 752.768554688 -67.5126953125 782.139648438 -106.674804688 c 6
 788.139648438 -114.674804688 l 5
 794.139648438 -122.674804688 l 5
 786.139648438 -128.674804688 l 5
 778.139648438 -134.674804688 l 5
 770.139648438 -140.674804688 l 5
 762.139648438 -146.674804688 l 5
 756.139648438 -138.674804688 l 5
 750.139648438 -130.674804688 l 6
 724.856445312 -96.962890625 700.864257812 -70.90234375 687.806640625 -34.6689453125 c 4
 682.23828125 -19.2158203125 678.801757812 -2.056640625 678.150390625 17.86328125 c 4
 677.119140625 49.4404296875 682.328125 75.0751953125 692.255859375 98.55078125 c 4
 703.401367188 124.90625 720.131835938 148.270507812 739.975585938 175.50390625 c 6
 745.865234375 183.5859375 l 5
 751.75390625 191.666992188 l 5
 759.8359375 185.778320312 l 5
 767.91796875 179.889648438 l 5
466.963684808 396.544991826 m 1
 465.742896198 312.015699148 468.227283993 229.082755091 482.704067296 135.835239108 c 0
 494.386282333 60.5861559835 590.733950838 47.1008328009 705.458726136 44.9957910523 c 0
 801.659843792 43.2302951365 825.202019131 62.3768267963 906.353285532 127.498213414 c 2
 925.851498946 143.144927883 l 1
 941.498213414 123.646714468 l 1
 957.144927883 104.148501054 l 1
 937.646714468 88.5017865857 l 2
 856.797980869 23.6231732037 812.463203083 -6.97638888646 704.541273864 -4.99579105233 c 0
 601.266049162 -3.10083280092 452.760202042 2.78884401649 433.295932704 128.164760892 c 0
 418.920510294 220.759393474 415.969313645 303.474844937 416.822306921 385.572212014 c 1
 122.220384642 542.949134665 l 1
 83.9517742607 563.392301123 l 1
 120.829450738 586.249391336 l 1
 433.829450738 780.249391336 l 1
 470.581393365 803.028550664 l 1
 471.986790832 759.812578564 l 2
 476.29060865 627.47018066 469.43338498 519.290884233 467.294368433 415.297055875 c 1
 467 409 l 1
 466.963684808 396.544991826 l 1
417.905164118 441.680865346 m 1
 420.185851928 527.373681089 424.594487762 612.515112708 423.05166536 714.744016086 c 1
 184.048225739 566.607698877 l 1
 417.905164118 441.680865346 l 1
EndSplineSet
EndChar

StartChar: lt_ZM
Encoding: 275 -1 44
Width: 1000
VWidth: 0
Flags: HW
LayerCount: 2
Fore
SplineSet
690.91796875 175.889648438 m 5
 699 170 l 5
 707.08203125 164.110351562 l 5
 701.192382812 156.028320312 l 5
 695.303710938 147.947265625 l 6
 675.612304688 120.923828125 661.15234375 100.563476562 652.251953125 79.953125 c 4
 644.116210938 61.11328125 640.237304688 41.755859375 641.12890625 15.1962890625 c 4
 641.54296875 2.8515625 643.209960938 -7.693359375 645.9296875 -17.3046875 c 4
 654.799804688 -48.6513671875 675.768554688 -71.5126953125 705.139648438 -110.674804688 c 6
 711.139648438 -118.674804688 l 5
 717.139648438 -126.674804688 l 5
 709.139648438 -132.674804688 l 5
 701.139648438 -138.674804688 l 5
 693.139648438 -144.674804688 l 5
 685.139648438 -150.674804688 l 5
 679.139648438 -142.674804688 l 5
 673.139648438 -134.674804688 l 6
 647.856445312 -100.962890625 623.864257812 -74.90234375 610.806640625 -38.6689453125 c 4
 605.23828125 -23.2158203125 601.801757812 -6.056640625 601.150390625 13.86328125 c 4
 600.119140625 45.4404296875 605.328125 71.0751953125 615.255859375 94.55078125 c 4
 626.401367188 120.90625 643.131835938 144.270507812 662.975585938 171.50390625 c 6
 668.865234375 179.5859375 l 5
 674.75390625 187.666992188 l 5
 682.8359375 181.778320312 l 5
 690.91796875 175.889648438 l 5
198.01171875 527.243164062 m 1
 197.25390625 552.231445312 l 1
 222.243164062 552.98828125 l 2
 318.9609375 555.918945312 429.801757812 563.872070312 509.845703125 471.427734375 c 0
 516.032226562 464.376953125 520.73046875 455.422851562 522.30078125 445.893554688 c 0
 531.796875 388.247070312 439.221679688 339.361328125 429.717773438 325.698242188 c 1
 529.807617188 250.299804688 594.573242188 273.266601562 757.579101562 262.950195312 c 2
 782.529296875 261.37109375 l 1
 780.950195312 236.420898438 l 1
 779.37109375 211.470703125 l 1
 754.420898438 213.049804688 l 2
 602.274414062 222.6796875 514.98046875 197.921875 397.854492188 287.110351562 c 0
 388.091796875 294.543945312 379.837890625 305.65625 378.34765625 319.232421875 c 0
 376.517578125 335.905273438 384.294921875 348.758789062 391.377929688 357.950195312 c 0
 418.931640625 393.705078125 468.7265625 424.326171875 472.82421875 437.739257812 c 0
 472.766601562 437.8203125 472.560546875 438.110351562 472.154296875 438.572265625 c 0
 410.198242188 510.127929688 325.0390625 506.081054688 223.756835938 503.01171875 c 2
 198.768554688 502.25390625 l 1
 198.01171875 527.243164062 l 1
214.068359375 791 m 1
 239.068359375 790.931640625 l 1
 239 765.931640625 l 1
 239.002929688 766.931640625 240 765.931640625 239 765.931640625 c 1
 237.069335938 60.1748046875 l 1
 787.826171875 63.9990234375 l 1
 812.826171875 64.1728515625 l 1
 812.999023438 39.173828125 l 1
 813.172851562 14.173828125 l 1
 788.173828125 14.0009765625 l 1
 212.173828125 10.0009765625 l 1
 186.930664062 9.8251953125 l 1
 187 35.068359375 l 1
 189 766.068359375 l 1
 188 766.068359375 189.002929688 767.068359375 189 766.068359375 c 1
 189.068359375 791.068359375 l 1
 214.068359375 791 l 1
EndSplineSet
EndChar

StartChar: lt_ZN
Encoding: 276 -1 45
Width: 1004
VWidth: 0
Flags: HW
LayerCount: 2
Fore
SplineSet
541.8359375 177.779296875 m 5
 549.91796875 171.889648438 l 5
 558 166 l 5
 552.110351562 157.91796875 l 5
 546.220703125 149.836914062 l 6
 526.530273438 122.813476562 512.0703125 102.453125 503.169921875 81.8427734375 c 4
 495.033203125 63.0029296875 491.155273438 43.6455078125 492.046875 17.0849609375 c 4
 492.4609375 4.740234375 494.126953125 -5.8037109375 496.84765625 -15.4150390625 c 4
 505.717773438 -46.7626953125 526.686523438 -69.623046875 556.057617188 -108.78515625 c 6
 562.057617188 -116.78515625 l 5
 568.057617188 -124.78515625 l 5
 560.057617188 -130.78515625 l 5
 552.057617188 -136.78515625 l 5
 544.057617188 -142.78515625 l 5
 536.057617188 -148.78515625 l 5
 530.057617188 -140.78515625 l 5
 524.056640625 -132.78515625 l 6
 498.7734375 -99.0732421875 474.782226562 -73.0126953125 461.724609375 -36.779296875 c 4
 456.155273438 -21.326171875 452.719726562 -4.1669921875 452.068359375 15.7529296875 c 4
 451.036132812 47.330078125 456.24609375 72.96484375 466.173828125 96.4404296875 c 4
 477.318359375 122.794921875 494.049804688 146.16015625 513.893554688 173.393554688 c 6
 519.783203125 181.475585938 l 5
 525.671875 189.556640625 l 5
 533.75390625 183.66796875 l 5
 541.8359375 177.779296875 l 5
765.5703125 73.06640625 m 1
 499.560546875 358.3671875 l 1
 225.577148438 68.3720703125 l 1
 765.5703125 73.06640625 l 1
787.073242188 662.977539062 m 1
 534.059570312 394.881835938 l 1
 796.3359375 113.416992188 l 1
 787.073242188 662.977539062 l 1
499.791015625 430.359375 m 1
 834.991210938 785.696289062 l 1
 847.275390625 56.8369140625 l 1
 848.424804688 22.3115234375 l 1
 822.744140625 22.3134765625 l 1
 798.999023438 22.009765625 l 1
 108.987304688 16.1015625 l 1
 465.291015625 393.844726562 l 1
 156.651367188 725.024414062 l 1
 193.294921875 759.04296875 l 1
 499.791015625 430.359375 l 1
EndSplineSet
EndChar

StartChar: lt_ZO
Encoding: 277 -1 46
Width: 1000
VWidth: 0
Flags: HW
LayerCount: 2
Fore
SplineSet
908.944335938 165.724609375 m 1
 905.265625 156.424804688 l 1
 901.586914062 147.125 l 1
 892.288085938 150.803710938 l 1
 882.989257812 154.482421875 l 2
 851.896484375 166.778320312 828.564453125 175.6796875 806.381835938 179.135742188 c 0
 786.104492188 182.294921875 766.392578125 181.202148438 740.901367188 173.688476562 c 0
 729.053710938 170.196289062 719.262695312 165.943359375 710.639648438 160.90234375 c 0
 682.51171875 144.465820312 665.629882812 118.440429688 635.0703125 80.1982421875 c 2
 628.827148438 72.38671875 l 1
 622.584960938 64.57421875 l 1
 614.772460938 70.8173828125 l 1
 606.9609375 77.0595703125 l 1
 599.1484375 83.302734375 l 1
 591.3359375 89.544921875 l 1
 597.579101562 97.357421875 l 1
 603.821289062 105.169921875 l 2
 630.12890625 138.08984375 649.3515625 167.841796875 681.16015625 189.556640625 c 0
 694.7265625 198.818359375 710.479492188 206.44140625 729.6015625 212.059570312 c 0
 759.9140625 220.965820312 786.036132812 222.340820312 811.25 218.608398438 c 0
 839.555664062 214.41796875 866.366210938 204.0703125 897.701171875 191.677734375 c 2
 907 188 l 1
 916.298828125 184.322265625 l 1
 912.62109375 175.0234375 l 1
 908.944335938 165.724609375 l 1
468.955078125 245.333007812 m 0
 472.247070312 222.286132812 484.532226562 213.169921875 492.510742188 213.739257812 c 0
 507.838867188 214.728515625 519.704101562 229.404296875 517.412109375 246.594726562 c 0
 514.737304688 267.990234375 498.947265625 281.48828125 481.198242188 279.875 c 0
 475.573242188 279.487304688 465.45703125 269.813476562 468.955078125 245.333007812 c 0
419.45703125 238.26171875 m 0
 414.954101562 269.78125 424.838867188 326.107421875 477.213867188 329.71875 c 0
 525.46484375 334.10546875 561.674804688 295.603515625 567 253 c 0
 572.708007812 210.189453125 542.573242188 166.865234375 495.901367188 163.854492188 c 0
 447.879882812 160.424804688 424.165039062 205.307617188 419.45703125 238.26171875 c 0
188.554749223 -1.14707838489 m 1
 165.407670838 8.2981723923 l 1
 174.852921615 31.4452507772 l 1
 478.852921615 776.445250777 l 1
 502.371425217 834.0810573 l 1
 525.250251914 776.188350556 l 1
 821.250251914 27.1883505561 l 1
 830.43860247 3.93809864221 l 1
 807.188350556 -5.25025191387 l 1
 783.938098642 -14.43860247 l 1
 774.749748086 8.81164944392 l 1
 501.628574783 699.9189427 l 1
 221.147078385 12.5547492228 l 1
 211.701827608 -10.5923291621 l 1
 188.554749223 -1.14707838489 l 1
EndSplineSet
EndChar

StartChar: lt_ZP
Encoding: 278 -1 47
Width: 1000
VWidth: 0
Flags: HW
LayerCount: 2
Fore
SplineSet
642.91796875 227.889648438 m 5
 651 222 l 5
 659.08203125 216.110351562 l 5
 653.192382812 208.028320312 l 5
 647.303710938 199.947265625 l 6
 627.612304688 172.923828125 613.15234375 152.563476562 604.251953125 131.953125 c 4
 596.116210938 113.11328125 592.237304688 93.755859375 593.12890625 67.1962890625 c 4
 593.54296875 54.8515625 595.209960938 44.306640625 597.9296875 34.6953125 c 4
 606.799804688 3.3486328125 627.768554688 -19.5126953125 657.139648438 -58.6748046875 c 6
 663.139648438 -66.6748046875 l 5
 669.139648438 -74.6748046875 l 5
 661.139648438 -80.6748046875 l 5
 653.139648438 -86.6748046875 l 5
 645.139648438 -92.6748046875 l 5
 637.139648438 -98.6748046875 l 5
 631.139648438 -90.6748046875 l 5
 625.139648438 -82.6748046875 l 6
 599.856445312 -48.962890625 575.864257812 -22.90234375 562.806640625 13.3310546875 c 4
 557.23828125 28.7841796875 553.801757812 45.943359375 553.150390625 65.86328125 c 4
 552.118164062 97.4404296875 557.328125 123.075195312 567.255859375 146.55078125 c 4
 578.400390625 172.90625 595.131835938 196.270507812 614.975585938 223.50390625 c 6
 620.865234375 231.5859375 l 5
 626.75390625 239.666992188 l 5
 634.8359375 233.778320312 l 5
 642.91796875 227.889648438 l 5
255.1015625 414.249023438 m 1
 257.350585938 439.147460938 l 1
 282.249023438 436.8984375 l 1
 281.252929688 436.98828125 283.249023438 436.8984375 282.249023438 436.8984375 c 1
 747.249023438 394.8984375 l 1
 772.147460938 392.649414062 l 1
 769.8984375 367.750976562 l 1
 767.649414062 342.852539062 l 1
 742.750976562 345.1015625 l 1
 277.750976562 387.1015625 l 1
 276.750976562 387.1015625 276.754882812 387.19140625 277.750976562 387.1015625 c 1
 252.852539062 389.350585938 l 1
 255.1015625 414.249023438 l 1
232.974609375 636.676757812 m 1
 215.651367188 654.702148438 l 1
 233.676757812 672.025390625 l 1
 232.956054688 671.33203125 234.676757812 672.025390625 233.676757812 672.025390625 c 1
 313.90625 749.12890625 416.341796875 802.947265625 543.516601562 779.588867188 c 0
 579.225585938 773.030273438 618.431640625 758.799804688 654.083007812 739.06640625 c 0
 720.927734375 702.068359375 793.965820312 632.434570312 749.865234375 552.87890625 c 0
 692.852539062 450.033203125 589.559570312 429.810546875 501.263671875 368.46875 c 0
 385.387695312 287.96484375 274.7734375 261.3203125 279.970703125 153.200195312 c 0
 280.08203125 150.896484375 280.274414062 148.650390625 280.54296875 146.458984375 c 0
 289.4921875 73.552734375 400.016601562 34.453125 497.897460938 46.806640625 c 0
 598.612304688 59.28515625 663.442382812 136.229492188 725.268554688 227.971679688 c 2
 739.239257812 248.703125 l 1
 759.971679688 234.731445312 l 1
 780.703125 220.760742188 l 1
 766.731445312 200.028320312 l 2
 704.553710938 107.764648438 629.4140625 12.71875 504.07421875 -2.810546875 c 0
 401.776367188 -15.7216796875 245.915039062 18.1591796875 230.916015625 140.3671875 c 0
 230.494140625 143.798828125 230.198242188 147.27734375 230.029296875 150.799804688 c 0
 222.82421875 300.661132812 376.772460938 342.861328125 472.736328125 409.53125 c 0
 574.440429688 480.189453125 661.147460938 495.966796875 706.134765625 577.12109375 c 0
 726.3125 613.520507812 696.693359375 658.333984375 629.870117188 695.3203125 c 0
 598.96484375 712.426757812 563.926757812 725.002929688 534.483398438 730.411132812 c 0
 427.474609375 750.06640625 342.09375 706.87109375 268.323242188 635.974609375 c 2
 250.297851562 618.651367188 l 1
 232.974609375 636.676757812 l 1
EndSplineSet
EndChar

StartChar: lt_ZQ
Encoding: 279 -1 48
Width: 1000
VWidth: 0
Flags: HW
LayerCount: 2
Fore
SplineSet
622 478 m 5
 630.08203125 472.110351562 l 5
 638.1640625 466.220703125 l 5
 632.274414062 458.138671875 l 5
 626.384765625 450.057617188 l 6
 606.694335938 423.034179688 592.234375 402.673828125 583.333984375 382.063476562 c 4
 575.197265625 363.223632812 571.319335938 343.866210938 572.2109375 317.305664062 c 4
 572.625 304.9609375 574.291992188 294.416992188 577.01171875 284.805664062 c 4
 585.881835938 253.458007812 606.850585938 230.59765625 636.221679688 191.435546875 c 6
 642.221679688 183.435546875 l 5
 648.221679688 175.435546875 l 5
 640.221679688 169.435546875 l 5
 632.221679688 163.435546875 l 5
 624.221679688 157.435546875 l 5
 616.221679688 151.435546875 l 5
 610.221679688 159.435546875 l 5
 604.221679688 167.435546875 l 6
 578.9375 201.147460938 554.946289062 227.208007812 541.888671875 263.44140625 c 4
 536.3203125 278.89453125 532.883789062 296.053710938 532.232421875 315.973632812 c 4
 531.200195312 347.55078125 536.41015625 373.185546875 546.337890625 396.661132812 c 4
 557.482421875 423.015625 574.213867188 446.380859375 594.057617188 473.614257812 c 6
 599.947265625 481.696289062 l 5
 605.8359375 489.77734375 l 5
 613.91796875 483.888671875 l 5
 622 478 l 5
522.402063832 509.564994874 m 1
 516.967058706 485.162931041 l 1
 492.564994874 490.597936168 l 1
 302.60981353 532.906135649 l 1
 295.998011762 8.68470976156 l 1
 295.682721524 -16.3133020007 l 1
 270.684709762 -15.9980117622 l 1
 245.686697999 -15.6827215238 l 1
 246.001988238 9.31529023844 l 1
 246.014599847 10.3152107089 245.001988238 9.31529023844 246.001988238 9.31529023844 c 1
 253.001988238 564.315290238 l 1
 253.39018647 595.093864351 l 1
 283.435005126 588.402063832 l 1
 503.435005126 539.402063832 l 1
 527.837068959 533.967058706 l 1
 522.402063832 509.564994874 l 1
746.697265625 806.998046875 m 1
 771.6953125 807.30078125 l 1
 771.998046875 782.302734375 l 1
 776.998168098 343.30264126 l 1
 777.330919705 315.817358573 l 1
 749.937339853 318.085236643 l 1
 290.937339853 356.085236643 l 1
 266.022576496 358.147896791 l 1
 268.085236643 383.062660147 l 1
 270.147896791 407.977423504 l 1
 295.062660147 405.914763357 l 1
 726.669080295 370.182641427 l 1
 722.001953125 781.697265625 l 1
 721.69921875 806.6953125 l 1
 746.697265625 806.998046875 l 1
EndSplineSet
EndChar

StartChar: lt_ZR
Encoding: 280 -1 49
Width: 1000
VWidth: 0
Flags: HW
LayerCount: 2
Fore
SplineSet
380.91796875 199.889648438 m 5
 389 194 l 5
 397.08203125 188.110351562 l 5
 391.192382812 180.029296875 l 5
 385.302734375 171.947265625 l 6
 365.611328125 144.923828125 351.15234375 124.563476562 342.250976562 103.953125 c 4
 334.115234375 85.11328125 330.237304688 65.755859375 331.127929688 39.1962890625 c 4
 331.54296875 26.8515625 333.208984375 16.306640625 335.928710938 6.6953125 c 4
 344.799804688 -24.6513671875 365.767578125 -47.5126953125 395.138671875 -86.6748046875 c 6
 401.138671875 -94.6748046875 l 5
 407.138671875 -102.674804688 l 5
 399.138671875 -108.674804688 l 5
 391.138671875 -114.674804688 l 5
 383.138671875 -120.674804688 l 5
 375.138671875 -126.674804688 l 5
 369.138671875 -118.674804688 l 5
 363.138671875 -110.674804688 l 6
 337.85546875 -76.962890625 313.864257812 -50.90234375 300.806640625 -14.6689453125 c 4
 295.237304688 0.7841796875 291.80078125 17.9443359375 291.150390625 37.86328125 c 4
 290.118164062 69.4404296875 295.328125 95.0751953125 305.254882812 118.55078125 c 4
 316.400390625 144.90625 333.130859375 168.270507812 352.975585938 195.50390625 c 6
 358.865234375 203.5859375 l 5
 364.75390625 211.666992188 l 5
 372.834960938 205.778320312 l 5
 380.91796875 199.889648438 l 5
583.432952358 781.342317749 m 1
 591.775270107 804.909365392 l 1
 615.342317749 796.567047642 l 2
 720.457441126 759.358154412 884.626933667 725.515929485 886.996409851 577.423667964 c 0
 889.143713811 450.732734339 644.400697361 419.867660337 637.09988058 408.10198076 c 1
 647.227369802 389.065933018 886 333.966120306 886 202 c 0
 886 67.9926628624 711.37445674 34.5470405602 617.836885028 7.95302507357 c 2
 593.789910102 1.11614004546 l 1
 586.953025074 25.1631149719 l 1
 580.116140045 49.2100898983 l 1
 604.163114972 56.0469749264 l 1
 605.124993969 56.3204503276 603.163114972 56.0469749264 604.163114972 56.0469749264 c 1
 714.62554326 87.4529594398 836 120.007337138 836 202 c 0
 836 297.495064043 587 304.861795928 587 408 c 0
 587 517.211062284 838.517256093 487.270041336 837.003590149 576.576332036 c 0
 835.373066333 678.484070515 719.542558874 706.641845588 598.657682251 749.432952358 c 2
 575.090634608 757.775270107 l 1
 583.432952358 781.342317749 l 1
415.243932565 785.410848524 m 1
 426.654781089 763.166915958 l 1
 404.410848524 751.756067435 l 2
 250.728526497 672.91903211 125.264283996 580.439835465 127.996884239 417.394687646 c 0
 130.781624255 241.027819958 246.407057615 138.343799788 416.493087005 59.6913006482 c 2
 439.184387653 49.1982136432 l 1
 428.691300648 26.5069129951 l 1
 418.198213643 3.81561234686 l 1
 395.506912995 14.3086993518 l 2
 219.592942385 95.6562002117 81.2183757448 212.972180042 78.0031157609 416.605312354 c 0
 74.7357160037 611.560164535 227.271473503 717.080967891 381.589151476 796.243932565 c 2
 403.833084042 807.654781089 l 1
 415.243932565 785.410848524 l 1
EndSplineSet
EndChar

StartChar: lt_ZS
Encoding: 281 -1 50
Width: 1000
VWidth: 0
Flags: HW
LayerCount: 2
Fore
SplineSet
661.91796875 503.889648438 m 5
 670 498 l 5
 678.08203125 492.110351562 l 5
 672.192382812 484.028320312 l 5
 666.303710938 475.947265625 l 6
 646.612304688 448.923828125 632.15234375 428.563476562 623.251953125 407.953125 c 4
 615.116210938 389.11328125 611.237304688 369.755859375 612.12890625 343.196289062 c 4
 612.54296875 330.8515625 614.209960938 320.306640625 616.9296875 310.6953125 c 4
 625.799804688 279.348632812 646.768554688 256.487304688 676.139648438 217.325195312 c 6
 682.139648438 209.325195312 l 5
 688.139648438 201.325195312 l 5
 680.139648438 195.325195312 l 5
 672.139648438 189.325195312 l 5
 664.139648438 183.325195312 l 5
 656.139648438 177.325195312 l 5
 650.139648438 185.325195312 l 5
 644.139648438 193.325195312 l 6
 618.856445312 227.037109375 594.864257812 253.09765625 581.806640625 289.331054688 c 4
 576.23828125 304.784179688 572.801757812 321.943359375 572.150390625 341.86328125 c 4
 571.118164062 373.440429688 576.328125 399.075195312 586.255859375 422.55078125 c 4
 597.400390625 448.90625 614.131835938 472.270507812 633.975585938 499.50390625 c 6
 639.865234375 507.5859375 l 5
 645.75390625 515.666992188 l 5
 653.8359375 509.778320312 l 5
 661.91796875 503.889648438 l 5
804.748737342 371.535533906 m 0
 808.041073291 348.489182258 820.326179217 339.372707172 828.304613334 339.942595323 c 0
 843.632701791 340.931504256 855.497737841 355.607641813 853.205761346 372.797465528 c 0
 850.531302162 394.193138995 834.741068961 407.691549412 816.9919597 406.077994025 c 0
 811.367129338 405.690074689 801.251497718 396.016211268 804.748737342 371.535533906 c 0
755.251262658 364.464466094 m 0
 750.748502282 395.983788732 760.632870662 452.309925311 813.0080403 455.922005975 c 0
 861.258931039 460.308450588 897.468697838 421.806861005 902.794238654 379.202534472 c 0
 908.502262159 336.392358187 878.367298209 293.068495744 831.695386666 290.057404677 c 0
 783.673820783 286.627292828 759.958926709 331.510817742 755.251262658 364.464466094 c 0
143.007604789 349.383411302 m 1
 142.391016091 374.375806513 l 1
 167.383411302 374.992395211 l 1
 166.383715494 374.967731663 167.383411302 373.992395211 167.383411302 374.992395211 c 1
 775.383411302 389.992395211 l 1
 800.375806513 390.608983909 l 1
 800.992395211 365.616588698 l 1
 801.608983909 340.624193487 l 1
 776.616588698 340.007604789 l 1
 168.616588698 325.007604789 l 1
 168.616588698 326.007604789 167.616892889 324.982941241 168.616588698 325.007604789 c 1
 143.624193487 324.391016091 l 1
 143.007604789 349.383411302 l 1
505.266296476 -7.99858168351 m 1
 480.267714792 -8.26487815949 l 1
 480.001418316 16.733703524 l 1
 480.012070176 15.7337602567 480.001418316 17.733703524 480.001418316 16.733703524 c 1
 472.001418316 767.733703524 l 1
 471.392302311 824.914468529 l 1
 513.780473221 786.531479123 l 1
 767.780473221 556.531479123 l 1
 786.311952344 539.751005901 l 1
 769.531479123 521.219526779 l 1
 752.751005901 502.688047656 l 1
 734.219526779 519.468520877 l 1
 522.607697689 711.085531471 l 1
 529.998581684 17.266296476 l 1
 529.998581684 16.266296476 530.009233543 16.2663532086 529.998581684 17.266296476 c 1
 530.264878159 -7.73228520752 l 1
 505.266296476 -7.99858168351 l 1
EndSplineSet
EndChar

StartChar: lt_ZT
Encoding: 282 -1 51
Width: 1000
VWidth: 0
Flags: HW
LayerCount: 2
Fore
SplineSet
692 822 m 5
 700.08203125 816.110351562 l 5
 708.1640625 810.220703125 l 5
 702.274414062 802.138671875 l 5
 696.384765625 794.056640625 l 6
 676.693359375 767.034179688 662.234375 746.672851562 653.333007812 726.063476562 c 4
 645.197265625 707.223632812 641.319335938 687.866210938 642.209960938 661.305664062 c 4
 642.625 648.9609375 644.291015625 638.416992188 647.010742188 628.8046875 c 4
 655.881835938 597.458007812 676.849609375 574.59765625 706.220703125 535.435546875 c 6
 712.220703125 527.435546875 l 5
 718.220703125 519.435546875 l 5
 710.220703125 513.435546875 l 5
 702.220703125 507.435546875 l 5
 694.220703125 501.435546875 l 5
 686.220703125 495.435546875 l 5
 680.220703125 503.435546875 l 5
 674.220703125 511.435546875 l 6
 648.9375 545.146484375 624.946289062 571.208007812 611.888671875 607.44140625 c 4
 606.319335938 622.89453125 602.8828125 640.053710938 602.232421875 659.97265625 c 4
 601.200195312 691.55078125 606.409179688 717.184570312 616.336914062 740.66015625 c 4
 627.482421875 767.015625 644.212890625 790.380859375 664.056640625 817.614257812 c 6
 669.946289062 825.696289062 l 5
 675.8359375 833.77734375 l 5
 683.916992188 827.888671875 l 5
 692 822 l 5
495.618164062 -9.9970703125 m 1
 470.62109375 -9.615234375 l 1
 471.002929688 15.3818359375 l 1
 481.002929688 670.381835938 l 1
 481.384765625 695.37890625 l 1
 506.381835938 694.997070312 l 1
 531.37890625 694.615234375 l 1
 530.997070312 669.618164062 l 1
 520.997070312 14.6181640625 l 1
 520.615234375 -10.37890625 l 1
 495.618164062 -9.9970703125 l 1
226.38671875 581.861328125 m 1
 204.248046875 593.474609375 l 1
 215.861328125 615.61328125 l 1
 247.861328125 676.61328125 l 1
 254.8125 689.864257812 l 1
 269.774414062 689.999023438 l 1
 712.774414062 693.999023438 l 1
 725.374023438 694.112304688 l 1
 732.9609375 684.052734375 l 1
 778.9609375 623.052734375 l 1
 794.012695312 603.091796875 l 1
 774.052734375 588.0390625 l 1
 754.091796875 572.987304688 l 1
 739.0390625 592.947265625 l 1
 700.625976562 643.887695312 l 1
 285.1875 640.135742188 l 1
 260.138671875 592.38671875 l 1
 248.525390625 570.248046875 l 1
 226.38671875 581.861328125 l 1
504.374023438 714.330078125 m 1
 531.73046875 760.407226562 l 1
 473.158203125 759.626953125 l 1
 504.374023438 714.330078125 l 1
485.35546875 653.813476562 m 1
 405.415039062 769.813476562 l 1
 378.841796875 808.373046875 l 1
 425.666992188 808.998046875 l 1
 575.666992188 810.998046875 l 1
 620.26953125 811.592773438 l 1
 597.497070312 773.237304688 l 1
 527.4375 655.237304688 l 1
 507.506835938 621.669921875 l 1
 485.35546875 653.813476562 l 1
EndSplineSet
EndChar

StartChar: lt_ZU
Encoding: 283 -1 52
Width: 1000
VWidth: 0
Flags: HW
LayerCount: 2
Fore
SplineSet
799 525 m 5
 807.08203125 519.110351562 l 5
 815.1640625 513.220703125 l 5
 809.274414062 505.138671875 l 5
 803.385742188 497.057617188 l 6
 783.694335938 470.034179688 769.234375 449.673828125 760.333984375 429.063476562 c 4
 752.198242188 410.223632812 748.319335938 390.866210938 749.2109375 364.306640625 c 4
 749.625 351.961914062 751.291992188 341.416992188 754.01171875 331.805664062 c 4
 762.881835938 300.458984375 783.850585938 277.59765625 813.221679688 238.435546875 c 6
 819.221679688 230.435546875 l 5
 825.221679688 222.435546875 l 5
 817.221679688 216.435546875 l 5
 809.221679688 210.435546875 l 5
 801.221679688 204.435546875 l 5
 793.221679688 198.435546875 l 5
 787.221679688 206.435546875 l 5
 781.221679688 214.435546875 l 6
 755.938476562 248.147460938 731.946289062 274.208007812 718.888671875 310.44140625 c 4
 713.3203125 325.89453125 709.883789062 343.053710938 709.232421875 362.973632812 c 4
 708.200195312 394.55078125 713.41015625 420.185546875 723.337890625 443.661132812 c 4
 734.482421875 470.016601562 751.213867188 493.380859375 771.057617188 520.614257812 c 6
 776.947265625 528.696289062 l 5
 782.8359375 536.77734375 l 5
 790.91796875 530.888671875 l 5
 799 525 l 5
147.137363677 778.617119613 m 1
 149.75448329 803.479755936 l 1
 174.617119613 800.862636323 l 2
 309.684668799 786.644999567 381.081269068 766.956795339 512.400190859 764.996811432 c 0
 626.303315382 763.049749474 690.522149132 780.708425738 809.871009993 790.909183077 c 2
 872.025576602 796.221539197 l 1
 830.742173824 749.455184487 l 2
 710.99469754 613.803746509 602.892896047 561.64773578 528.892550401 428.425455441 c 1
 583.962983623 421.057264988 642.681895506 415.475783498 710.97670488 412.980995941 c 0
 776.22019549 410.262517166 806.679011544 430.997428653 879.715233091 460.211917272 c 2
 902.927150363 469.496684181 l 1
 912.211917272 446.284766909 l 1
 921.496684181 423.072849637 l 1
 898.284766909 413.788082728 l 2
 831.320988456 387.002571347 787.77980451 359.737482834 709.02329512 363.019004059 c 0
 632.264872271 365.822964711 566.804652415 372.478688081 505.679542069 381.15971793 c 1
 454.062926266 260.703736167 501.489257812 188.133789062 511.938476562 39.755859375 c 2
 517.865234375 -44.412109375 l 1
 457 19 l 1
 134.04362544 449.942008287 l 1
 97.7733499283 498.011048122 l 1
 157.423658301 489.764461711 l 2
 284.311194952 472.222405953 378.345518469 451.650192344 476.357339011 436.132043832 c 1
 547.715187984 575.185436019 646.518280904 634.085412907 747.492744793 734.130007665 c 1
 670.57326269 724.816784033 606.330050143 713.383868209 511.572711996 715.003651767 c 0
 374.954409255 717.042730913 300.297777247 737.356848218 169.382880387 751.137363677 c 2
 144.520244064 753.75448329 l 1
 147.137363677 778.617119613 l 1
454.849486088 388.946859449 m 1
 376.37003369 401.765007721 302.328892072 416.972982027 210.704245566 431.355993994 c 1
 460 94 l 1
 445.404296875 181.920898438 415.350862089 287.332807922 454.849486088 388.946859449 c 1
EndSplineSet
EndChar

StartChar: lt_ZV
Encoding: 284 -1 53
Width: 1000
VWidth: 0
Flags: HW
LayerCount: 2
Fore
SplineSet
641.46484375 225.0546875 m 5
 642.196289062 215.081054688 l 5
 642.927734375 205.107421875 l 5
 632.954101562 204.375976562 l 5
 622.981445312 203.64453125 l 6
 589.634765625 201.196289062 564.75390625 199.064453125 543.275390625 192.530273438 c 4
 523.642578125 186.557617188 506.3671875 177.001953125 486.680664062 159.150390625 c 4
 477.530273438 150.853515625 470.563476562 142.765625 464.989257812 134.475585938 c 4
 446.80859375 107.442382812 442.923828125 76.6669921875 432.03515625 28.9404296875 c 6
 429.810546875 19.19140625 l 5
 427.586914062 9.44140625 l 5
 417.836914062 11.666015625 l 5
 408.087890625 13.890625 l 5
 398.337890625 16.1142578125 l 5
 388.588867188 18.3388671875 l 5
 390.8125 28.087890625 l 5
 393.037109375 37.837890625 l 6
 402.41015625 78.921875 406.782226562 114.073242188 425.983398438 147.459960938 c 4
 434.171875 161.69921875 445.041015625 175.4140625 459.817382812 188.7890625 c 4
 483.241210938 209.991210938 506.166015625 222.588867188 530.494140625 230.193359375 c 4
 557.805664062 238.728515625 586.447265625 241.0703125 620.053710938 243.537109375 c 6
 630.02734375 244.268554688 l 5
 640 245 l 5
 640.732421875 235.02734375 l 5
 641.46484375 225.0546875 l 5
683.429251381 783 m 1
 673.663596276 770.561639287 l 2
 579.24225005 650.298661463 484.556385082 488.631649813 486.982440393 423.936841515 c 0
 489.712428749 351.141893115 544.168452701 160.620331267 685.982728727 29.346305486 c 2
 694 21.9249124833 l 1
 675 -16.6841030461 l 1
 662.184935689 -13.0531681579 l 2
 413.93623747 57.283963004 285.089510534 223.567951864 277.020440006 422.989266359 c 0
 269.305492947 613.658672229 432.383748348 742.873759313 646.536686695 809.859986474 c 2
 658 813.445667412 l 1
 683.429251381 783 l 1
583.968817784 733.993798645 m 1
 419.522458842 664.85618449 321.514171742 560.083900445 326.979559994 425.010733641 c 0
 333.108090801 273.548472275 415.10747103 144.635225369 582.157699773 68.9478242481 c 1
 479.872091207 200.417364613 439.760692925 348.917700622 437.017559607 422.063158485 c 0
 434.031180782 501.69992716 507.282037273 626.009398839 583.968817784 733.993798645 c 1
EndSplineSet
EndChar

StartChar: lt_ZW
Encoding: 285 -1 54
Width: 1000
VWidth: 0
Flags: HW
LayerCount: 2
Fore
SplineSet
771.794921875 738.72265625 m 5
 792 724 l 5
 777.27734375 703.794921875 l 6
 682.984375 574.393554688 632.190429688 501.427734375 637.05859375 356.356445312 c 4
 641.743164062 216.729492188 707.872070312 153.118164062 802.072265625 27.517578125 c 6
 817.072265625 7.517578125 l 5
 797.072265625 -7.482421875 l 5
 777.072265625 -22.482421875 l 5
 762.072265625 -2.482421875 l 6
 670.392578125 119.7578125 592.26171875 196.301757812 587.0859375 354.6796875 c 4
 581.827148438 515.603515625 643.16015625 604.642578125 736.8671875 733.241210938 c 6
 751.58984375 753.446289062 l 5
 771.794921875 738.72265625 l 5
543.48046875 -1.791015625 m 1
 522.823242188 -36.4814453125 l 1
 500.9765625 -2.52734375 l 1
 103.9765625 614.47265625 l 1
 79.224609375 652.940429688 l 1
 124.967773438 653 l 1
 889.967773438 654 l 1
 934.017578125 654.057617188 l 1
 911.48046875 616.208984375 l 1
 543.48046875 -1.791015625 l 1
521.176757812 58.4814453125 m 1
 845.982421875 603.942382812 l 1
 170.775390625 603.059570312 l 1
 521.176757812 58.4814453125 l 1
471.51953125 786.791015625 m 1
 492.176757812 821.481445312 l 1
 514.0234375 787.52734375 l 1
 911.0234375 170.52734375 l 1
 935.775390625 132.059570312 l 1
 890.032226562 132 l 1
 125.032226562 131 l 1
 80.982421875 130.942382812 l 1
 103.51953125 168.791015625 l 1
 471.51953125 786.791015625 l 1
493.823242188 726.518554688 m 1
 169.017578125 181.057617188 l 1
 844.224609375 181.940429688 l 1
 493.823242188 726.518554688 l 1
EndSplineSet
EndChar

StartChar: lt_ZX
Encoding: 286 -1 55
Width: 1000
VWidth: 0
Flags: HW
LayerCount: 2
Fore
SplineSet
477.8359375 606.779296875 m 5
 485.91796875 600.889648438 l 5
 494 595 l 5
 488.110351562 586.91796875 l 5
 482.221679688 578.836914062 l 6
 462.530273438 551.813476562 448.0703125 531.453125 439.169921875 510.842773438 c 4
 431.034179688 492.002929688 427.155273438 472.645507812 428.046875 446.0859375 c 4
 428.4609375 433.741210938 430.127929688 423.196289062 432.84765625 413.584960938 c 4
 441.717773438 382.23828125 462.686523438 359.376953125 492.057617188 320.21484375 c 6
 498.057617188 312.21484375 l 5
 504.057617188 304.21484375 l 5
 496.057617188 298.21484375 l 5
 488.057617188 292.21484375 l 5
 480.057617188 286.21484375 l 5
 472.057617188 280.21484375 l 5
 466.057617188 288.21484375 l 5
 460.057617188 296.21484375 l 6
 434.774414062 329.926757812 410.782226562 355.987304688 397.724609375 392.220703125 c 4
 392.15625 407.673828125 388.719726562 424.833007812 388.068359375 444.752929688 c 4
 387.036132812 476.330078125 392.24609375 501.96484375 402.173828125 525.440429688 c 4
 413.318359375 551.795898438 430.049804688 575.16015625 449.893554688 602.393554688 c 6
 455.783203125 610.475585938 l 5
 461.671875 618.556640625 l 5
 469.75390625 612.66796875 l 5
 477.8359375 606.779296875 l 5
836.645927868 770.997492533 m 1
 861.643420401 771.351564665 l 1
 861.997492533 746.354072132 l 1
 871.997492533 40.3540721322 l 1
 872.351564665 15.3565795994 l 1
 847.354072132 15.0025074672 l 1
 822.356579599 14.6484353351 l 1
 822.002507467 39.6459278678 l 1
 812.002507467 745.645927868 l 1
 811.648435335 770.643420401 l 1
 836.645927868 770.997492533 l 1
344.107711737 117.015928641 m 1
 319.123640379 117.908216904 l 1
 320.015928641 142.892288263 l 2
 322.673725584 217.310602646 289.578801211 282.510236006 330.368086682 368.620949779 c 0
 398.208828091 514.542544506 561.795421492 496.069961556 536.723940244 598.027318631 c 0
 511.187093716 701.822243228 393.140828341 694.49618116 254.734153871 719.366130479 c 0
 250.249959359 720.113496231 244.597697405 720.06459834 239.165458753 719.07954735 c 0
 212.947257572 714.325289173 196.526930228 693.356132342 199.596747752 676.472135955 c 2
 204.068883707 651.875388203 l 1
 179.472135955 647.403252248 l 1
 154.875388203 642.931116293 l 1
 150.403252248 667.527864045 l 2
 140.505749511 721.964129096 187.311702657 760.492088759 230.244233682 768.277227613 c 0
 240.98434369 770.224777541 251.828472013 770.540098541 263.265846129 768.633869521 c 0
 380.859171659 747.50381884 548.812906284 758.177756772 585.276059756 609.972681369 c 0
 620.204578508 467.930038444 413.791171909 429.457455494 375.631913318 347.379050221 c 0
 344.421198789 281.489763994 373.326274416 234.689397354 369.984071359 141.107711737 c 2
 369.091783096 116.123640379 l 1
 344.107711737 117.015928641 l 1
344.053710938 81.478515625 m 0
 347.345703125 58.431640625 359.630859375 49.3154296875 367.609375 49.884765625 c 0
 382.9375 50.8740234375 394.802734375 65.5498046875 392.510742188 82.740234375 c 0
 389.8359375 104.135742188 374.045898438 117.633789062 356.296875 116.020507812 c 0
 350.671875 115.6328125 340.555664062 105.958984375 344.053710938 81.478515625 c 0
294.555664062 74.4072265625 m 0
 290.052734375 105.926757812 299.9375 162.252929688 352.3125 165.864257812 c 0
 400.563476562 170.250976562 436.7734375 131.749023438 442.098632812 89.1455078125 c 0
 447.806640625 46.3349609375 417.671875 3.0107421875 371 0 c 0
 322.978515625 -3.4296875 299.263671875 41.453125 294.555664062 74.4072265625 c 0
EndSplineSet
EndChar

StartChar: lt_ZY
Encoding: 287 -1 56
Width: 1000
VWidth: 0
Flags: HW
LayerCount: 2
Fore
SplineSet
808.794921875 744.72265625 m 5
 829 730 l 5
 814.27734375 709.794921875 l 6
 719.984375 580.393554688 669.190429688 507.427734375 674.05859375 362.356445312 c 4
 678.743164062 222.729492188 744.872070312 159.118164062 839.072265625 33.517578125 c 6
 854.072265625 13.517578125 l 5
 834.072265625 -1.482421875 l 5
 814.072265625 -16.482421875 l 5
 799.072265625 3.517578125 l 6
 707.392578125 125.7578125 629.26171875 202.301757812 624.0859375 360.6796875 c 4
 618.827148438 521.603515625 680.16015625 610.642578125 773.8671875 739.241210938 c 6
 788.58984375 759.446289062 l 5
 808.794921875 744.72265625 l 5
312.860351562 574.19921875 m 1
 295.719726562 592.3984375 l 1
 313.918945312 609.5390625 l 1
 490.859876199 792.199344935 l 1
 506.60711361 807.030076466 l 1
 523.54705359 793.577771187 l 1
 712.516601562 613.702148438 l 1
 732.09375 598.155273438 l 1
 716.546875 578.578125 l 1
 701 559 l 1
 681.421875 574.546875 l 1
 509.39288639 740.969923534 l 1
 348.19921875 573.139648438 l 1
 330 556 l 1
 312.860351562 574.19921875 l 1
507.576338353 633.003590042 m 0
 362.406299412 635.464025471 245.745945798 490.340588989 241.992475828 337.38668771 c 0
 238.414590536 191.572090508 356.766236563 49.6881055001 499.471614174 46.9955512056 c 0
 662.407854969 43.9209771912 792.381731453 171.866330363 797.009968818 335.705933084 c 0
 801.604439318 498.350188797 671.195135166 630.230390096 507.576338353 633.003590042 c 0
508.423661528 682.99640996 m 0
 698.804866502 679.769609876 852.395560682 525.649811203 846.990031182 334.294066916 c 0
 841.618268547 144.133669637 689.580426281 -6.60066469118 498.528385826 -2.99555120559 c 0
 323.233763437 0.311894499868 187.831503214 168.422050117 192.007524172 338.61331229 c 0
 196.254054202 511.659411011 327.585886364 686.061365183 508.423661528 682.99640996 c 0
EndSplineSet
EndChar

StartChar: ltd09
Encoding: 288 -1 57
Width: 1000
VWidth: 0
Flags: HW
LayerCount: 2
Fore
SplineSet
480.741210938 719.614257812 m 4
 484.033203125 696.567382812 496.318359375 687.451171875 504.296875 688.020507812 c 4
 519.625 689.009765625 531.490234375 703.685546875 529.198242188 720.875976562 c 4
 526.5234375 742.271484375 510.733398438 755.76953125 492.984375 754.15625 c 4
 487.359375 753.768554688 477.243164062 744.094726562 480.741210938 719.614257812 c 4
431.243164062 712.54296875 m 4
 426.740234375 744.0625 436.625 800.388671875 489 804 c 4
 537.250976562 808.38671875 573.4609375 769.884765625 578.786132812 727.28125 c 4
 584.494140625 684.470703125 554.359375 641.146484375 507.6875 638.135742188 c 4
 459.666015625 634.706054688 435.951171875 679.588867188 431.243164062 712.54296875 c 4
EndSplineSet
EndChar

StartChar: lt_WA
Encoding: 289 -1 58
Width: 1000
VWidth: 0
Flags: HW
LayerCount: 2
Fore
SplineSet
481.4453125 629.575195312 m 1
 500.809570312 653.887695312 l 1
 520.405273438 629.76171875 l 1
 892.405273438 171.76171875 l 1
 925.571289062 130.928710938 l 1
 872.965820312 131 l 1
 136.965820312 132 l 1
 85.1826171875 132.0703125 l 1
 117.4453125 172.575195312 l 1
 481.4453125 629.575195312 l 1
501.190429688 574.112304688 m 1
 188.817382812 181.9296875 l 1
 820.428710938 181.071289062 l 1
 501.190429688 574.112304688 l 1
168.181640625 627.536132812 m 1
 146.717773438 640.354492188 l 1
 159.536132812 661.818359375 l 2
 199.053710938 727.986328125 236.541992188 824.251953125 341.537109375 821.994140625 c 0
 464.68359375 819.345703125 449.846679688 664.147460938 496.6171875 662.9921875 c 0
 532.1171875 662.116210938 567.616210938 821.5 661.208007812 816.970703125 c 0
 756.52734375 812.358398438 800.2578125 728.615234375 849.068359375 662.908203125 c 2
 863.9765625 642.83984375 l 1
 843.908203125 627.931640625 l 1
 823.83984375 613.0234375 l 1
 808.931640625 633.091796875 l 2
 753.7421875 707.384765625 721.40234375 763.999023438 658.791992188 767.029296875 c 0
 628.383789062 768.500976562 593.901367188 610.575195312 495.3828125 613.0078125 c 0
 380.153320312 615.852539062 403.31640625 770.654296875 340.462890625 772.005859375 c 0
 273.452148438 773.447265625 248.946289062 714.013671875 202.463867188 636.181640625 c 2
 189.645507812 614.717773438 l 1
 168.181640625 627.536132812 l 1
529.30859375 110.34765625 m 1
 509.944335938 86.03515625 l 1
 490.348632812 110.161132812 l 1
 118.348632812 568.161132812 l 1
 85.1826171875 608.994140625 l 1
 137.788085938 608.922851562 l 1
 873.788085938 607.922851562 l 1
 925.571289062 607.852539062 l 1
 893.30859375 567.34765625 l 1
 529.30859375 110.34765625 l 1
509.563476562 165.810546875 m 1
 821.936523438 557.993164062 l 1
 190.325195312 558.8515625 l 1
 509.563476562 165.810546875 l 1
842.572265625 115.38671875 m 1
 864.036132812 102.567382812 l 1
 851.217773438 81.1044921875 l 2
 811.700195312 14.9365234375 774.211914062 -81.3291015625 669.215820312 -79.0712890625 c 0
 546.069335938 -76.4228515625 560.907226562 78.775390625 514.13671875 79.9306640625 c 0
 478.63671875 80.806640625 443.137695312 -78.5771484375 349.544921875 -74.0478515625 c 0
 254.2265625 -69.435546875 210.49609375 14.3076171875 161.685546875 80.0146484375 c 2
 146.77734375 100.083007812 l 1
 166.845703125 114.991210938 l 1
 186.9140625 129.899414062 l 1
 201.822265625 109.831054688 l 2
 257.01171875 35.537109375 289.3515625 -21.076171875 351.961914062 -24.1064453125 c 0
 382.370117188 -25.578125 416.852539062 132.34765625 515.37109375 129.915039062 c 0
 630.600585938 127.0703125 607.4375 -27.7314453125 670.291015625 -29.0830078125 c 0
 737.301757812 -30.5244140625 761.806640625 28.9091796875 808.290039062 106.741210938 c 2
 821.108398438 128.205078125 l 1
 842.572265625 115.38671875 l 1
EndSplineSet
EndChar

StartChar: lt_WB
Encoding: 290 -1 59
Width: 1000
VWidth: 0
Flags: HW
LayerCount: 2
Fore
SplineSet
404 527 m 1
 429 527 l 1
 429 480.357002329 448.76690635 436.988981324 474.942725248 435.982219059 c 0
 501.536960433 434.978663014 510 551 549.47250617 556.417295284 c 0
 588.157252628 561.726476658 578.952330878 522.54913582 578.952330878 522.54913582 c 1
 554 457 547.969664993 415.60526464 523.051477926 377.078654318 c 1
 595.086304472 361.275290691 617.131853618 300.679455683 612.96150883 225.613249509 c 1
 588 227 l 1
 563.03849117 228.386750491 l 1
 566.79412879 295.988227659 550.750184143 320.696333341 511.239753349 328.457310818 c 2
 510.892229908 328.516878327 l 2
 509.59853358 328.73862529 474 261 440.004882812 232.322265625 c 0
 433.638251622 226.951477898 403.037058284 230.92579193 399.418746174 257.635310342 c 0
 394.34675645 295.075530747 447.558566071 340.540242672 455.194090148 357.24295159 c 0
 459.899332812 367.535669917 464.056789287 375.872251217 469.988734697 386.186595962 c 1
 395.065720163 392.551571586 379 481.103131551 379 527 c 1
 404 527 l 1
250.71675578 642.265880454 m 1
 229.647460938 655.72265625 l 1
 247.54348346 638.266070734 l 1
 159.332912804 547.834963362 178.55130524 507.918985838 179.400641331 396.463942884 c 0
 180.238867832 286.362387067 167.167962795 192.627412675 255.988527801 102.834060347 c 0
 274.019450375 84.6065243452 314.306703648 36.5235105923 344.27402148 37.8128310315 c 0
 525.832183558 45.6213742433 640.249339007 23.9944649809 760.45564568 147.225248566 c 0
 848.666032169 237.655256708 829.447718611 277.572210259 828.59838212 389.026289754 c 0
 827.749378732 500.543396239 845.740046346 598.466868927 753.084912161 681.632615384 c 0
 689.282242387 738.901169219 585.271591746 742.647940424 492.909857462 734.452335791 c 0
 404.840604317 726.639087123 335.007350809 708.34079218 313.085579974 695.838282485 c 0
 270.722086163 671.677994705 251.343530527 643.199726771 250.620636764 642.116188699 c 2
 250.71675578 642.265880454 l 1
243.900463987 646.619386877 m 2
 238.712416231 650.258077855 231.380333671 655.598892578 224.865487215 660.387208561 c 2
 229.647460938 655.72265625 l 1
 243.900463987 646.619386877 l 2
210.211528075 671.588006813 m 0
 217.261606343 681.534060532 241.181960008 712.390798904 288.314810651 739.271092515 c 0
 323.980930441 759.61233282 396.167208183 776.065991002 488.490533163 784.256648584 c 0
 582.474502004 792.596200201 703.760726363 793.092971406 786.483447214 718.841993991 c 0
 899.713078654 617.208912323 877.824840018 490.821838136 878.59693038 389.407303996 c 0
 879.380406389 286.595758491 897.273420956 215.879899542 796.24747932 112.311860809 c 0
 659.123707868 -28.2620431059 518.265472692 -4.75028049332 346.423244145 -12.1409560315 c 0
 279.697202602 -15.0117918423 228.74031525 59.2821475298 220.441159699 67.6717990282 c 0
 114.703130955 174.567899825 130.184960293 293.252847308 129.402093044 396.082932116 c 0
 128.620295461 498.675161542 110.19706645 567.106871117 210.211528075 671.588006813 c 0
EndSplineSet
EndChar

StartChar: lt_WC
Encoding: 291 -1 60
Width: 1007
VWidth: 0
Flags: HW
LayerCount: 2
Fore
SplineSet
487.741210938 719.614257812 m 0
 491.033203125 696.567382812 503.318359375 687.451171875 511.296875 688.020507812 c 0
 526.625 689.009765625 538.490234375 703.685546875 536.198242188 720.875976562 c 0
 533.5234375 742.271484375 517.733398438 755.76953125 499.984375 754.15625 c 0
 494.359375 753.768554688 484.243164062 744.094726562 487.741210938 719.614257812 c 0
438.243164062 712.54296875 m 0
 433.740234375 744.0625 443.625 800.388671875 496 804 c 0
 544.250976562 808.38671875 580.4609375 769.884765625 585.786132812 727.28125 c 0
 591.494140625 684.470703125 561.359375 641.146484375 514.6875 638.135742188 c 0
 466.666015625 634.706054688 442.951171875 679.588867188 438.243164062 712.54296875 c 0
483.8984375 640.405273438 m 1
 505.1328125 673.831054688 l 1
 526.177734375 640.286132812 l 1
 893.177734375 161.286132812 l 1
 917.234375 122.938476562 l 1
 871.965820312 123 l 1
 133.965820312 124 l 1
 88.5390625 124.061523438 l 1
 112.8984375 162.405273438 l 1
 483.8984375 640.405273438 l 1
504.8671875 580.168945312 m 1
 179.4609375 173.938476562 l 1
 826.765625 173.061523438 l 1
 504.8671875 580.168945312 l 1
518.032226562 66.32421875 m 0
 514.740234375 89.37109375 502.455078125 98.4873046875 494.4765625 97.91796875 c 0
 479.1484375 96.9287109375 467.283203125 82.2529296875 469.575195312 65.0625 c 0
 472.25 43.6669921875 488.040039062 30.1689453125 505.7890625 31.7822265625 c 0
 511.4140625 32.169921875 521.530273438 41.84375 518.032226562 66.32421875 c 0
567.530273438 73.3955078125 m 0
 572.033203125 41.8759765625 562.1484375 -14.4501953125 509.7734375 -18.0615234375 c 0
 461.522460938 -22.4482421875 425.3125 16.0537109375 419.987304688 58.6572265625 c 0
 414.279296875 101.467773438 444.4140625 144.791992188 491.0859375 147.802734375 c 0
 539.107421875 151.232421875 562.822265625 106.349609375 567.530273438 73.3955078125 c 0
521.875 145.533203125 m 1
 500.640625 112.107421875 l 1
 479.595703125 145.65234375 l 1
 112.595703125 624.65234375 l 1
 88.5390625 663 l 1
 133.807617188 662.938476562 l 1
 871.807617188 661.938476562 l 1
 917.234375 661.876953125 l 1
 892.875 623.533203125 l 1
 521.875 145.533203125 l 1
500.90625 205.76953125 m 1
 826.3125 612 l 1
 179.0078125 612.876953125 l 1
 500.90625 205.76953125 l 1
EndSplineSet
EndChar

StartChar: lt_WD
Encoding: 292 -1 61
Width: 1000
VWidth: 0
Flags: HW
LayerCount: 2
Fore
SplineSet
756.7578125 778.408203125 m 1
 776.166015625 762.650390625 l 1
 760.408203125 743.2421875 l 1
 160.408203125 4.2421875 l 1
 144.650390625 -15.166015625 l 1
 125.2421875 0.591796875 l 1
 105.833984375 16.349609375 l 1
 121.591796875 35.7578125 l 1
 721.591796875 774.7578125 l 1
 737.349609375 794.166015625 l 1
 756.7578125 778.408203125 l 1
125.2421875 778.408203125 m 1
 144.650390625 794.166015625 l 1
 160.408203125 774.7578125 l 1
 760.408203125 35.7578125 l 1
 776.166015625 16.349609375 l 1
 756.7578125 0.591796875 l 1
 737.349609375 -15.166015625 l 1
 721.591796875 4.2421875 l 1
 121.591796875 743.2421875 l 1
 105.833984375 762.650390625 l 1
 125.2421875 778.408203125 l 1
880.7578125 778.408203125 m 1
 900.166015625 762.650390625 l 1
 884.408203125 743.2421875 l 1
 284.408203125 4.2421875 l 1
 268.650390625 -15.166015625 l 1
 249.2421875 0.591796875 l 1
 229.833984375 16.349609375 l 1
 245.591796875 35.7578125 l 1
 845.591796875 774.7578125 l 1
 861.349609375 794.166015625 l 1
 880.7578125 778.408203125 l 1
249.2421875 778.408203125 m 1
 268.650390625 794.166015625 l 1
 284.408203125 774.7578125 l 1
 884.408203125 35.7578125 l 1
 900.166015625 16.349609375 l 1
 880.7578125 0.591796875 l 1
 861.349609375 -15.166015625 l 1
 845.591796875 4.2421875 l 1
 245.591796875 743.2421875 l 1
 229.833984375 762.650390625 l 1
 249.2421875 778.408203125 l 1
EndSplineSet
EndChar

StartChar: lt_WE
Encoding: 293 -1 62
Width: 1000
VWidth: 0
Flags: HW
LayerCount: 2
Fore
SplineSet
580.43359375 191.602539062 m 1
 583.142578125 185.689453125 l 1
 578.591796875 183.603515625 l 2
 577.383789062 178.81640625 576.01953125 174.08984375 574.586914062 169.59765625 c 0
 562.963867188 133.1640625 546.002929688 104.305664062 536.190429688 66.689453125 c 2
 529.879882812 42.4990234375 l 1
 505.689453125 48.8095703125 l 1
 481.499023438 55.1201171875 l 1
 487.809570312 79.310546875 l 2
 494.948242188 106.677734375 504.712890625 129.13671875 513.124023438 149.030273438 c 1
 485.994140625 133.76953125 440.129882812 112.130859375 406.501953125 153.3515625 c 0
 356.94921875 216.119140625 435.586914062 276.267578125 471.75390625 299.203125 c 0
 480.859375 304.806640625 490.171875 307.787109375 499.736328125 309.125976562 c 0
 532.154296875 313.665039062 577.01171875 297.572265625 582.791015625 254.223632812 c 0
 585.735351562 231.002929688 584.3671875 210.439453125 580.43359375 191.602539062 c 1
533.89453125 218.0234375 m 0
 534.649414062 227.146484375 534.544921875 237.235351562 533.208984375 247.776367188 c 0
 532.676757812 251.766601562 522.666992188 261.848632812 506.669921875 259.609375 c 0
 503.287109375 259.135742188 500.11328125 257.946289062 498.24609375 256.796875 c 0
 452.767578125 227.95703125 435.051757812 198.346679688 445.502929688 184.641601562 c 0
 455.67578125 172.588867188 469.213867188 183.236328125 523.430664062 212.6015625 c 0
 526.681640625 214.362304688 530.333007812 216.26171875 533.89453125 218.0234375 c 0
186.774414062 411.381835938 m 1
 185.376953125 287.942382812 220.786132812 176.552734375 225.986328125 16.8134765625 c 1
 224.986328125 16.8134765625 226.01953125 15.814453125 225.986328125 16.8134765625 c 1
 226.799804688 -8.1728515625 l 1
 201.813476562 -8.986328125 l 1
 176.827148438 -9.7998046875 l 1
 176.013671875 15.1865234375 l 2
 170.733398438 177.359375 130.186523438 292.505859375 137.600585938 438.240234375 c 0
 139.763671875 480.76171875 146.149414062 525.543945312 158.80859375 574.305664062 c 0
 187.684570312 684.655273438 269.58984375 803.399414062 398.35546875 780.618164062 c 0
 414.155273438 777.822265625 430.857421875 774.07421875 448.05078125 769.413085938 c 0
 571.6796875 735.89453125 756.255859375 644.950195312 716.123046875 497.4375 c 0
 660.78515625 294.03125 352.356445312 395.307617188 186.774414062 411.381835938 c 1
189.384765625 461.358398438 m 1
 389.689453125 442.576171875 628.918945312 367.365234375 667.876953125 510.5625 c 0
 693.206054688 603.665039062 564.4921875 686.038085938 434.966796875 721.155273438 c 0
 419.139648438 725.446289062 403.844726562 728.870117188 389.64453125 731.381835938 c 0
 302.446289062 746.809570312 234.3203125 665.364257812 207.185546875 561.670898438 c 0
 198.010742188 526.331054688 192.368164062 492.920898438 189.384765625 461.358398438 c 1
108.002929688 10.3701171875 m 1
 108.373046875 35.3671875 l 1
 133.370117188 34.9970703125 l 1
 268.370117188 32.9970703125 l 1
 293.3671875 32.626953125 l 1
 292.997070312 7.6298828125 l 1
 292.626953125 -17.3671875 l 1
 267.629882812 -16.9970703125 l 1
 132.629882812 -14.9970703125 l 1
 107.6328125 -14.626953125 l 1
 108.002929688 10.3701171875 l 1
366.322265625 571.647460938 m 1
 363.612304688 577.560546875 l 1
 368.1640625 579.646484375 l 2
 369.37109375 584.43359375 370.736328125 589.16015625 372.168945312 593.65234375 c 0
 383.791992188 630.0859375 400.751953125 658.944335938 410.565429688 696.560546875 c 2
 416.875976562 720.750976562 l 1
 441.06640625 714.440429688 l 1
 465.256835938 708.129882812 l 1
 458.946289062 683.939453125 l 2
 451.806640625 656.573242188 442.04296875 634.11328125 433.631835938 614.219726562 c 1
 460.760742188 629.48046875 506.625976562 651.119140625 540.25390625 609.8984375 c 0
 589.806640625 547.130859375 511.168945312 486.982421875 475.001953125 464.046875 c 0
 465.896484375 458.443359375 456.583984375 455.462890625 447.018554688 454.124023438 c 0
 414.6015625 449.584960938 369.744140625 465.677734375 363.963867188 509.026367188 c 0
 361.020507812 532.247070312 362.388671875 552.810546875 366.322265625 571.647460938 c 1
412.860351562 545.227539062 m 0
 412.106445312 536.103515625 412.2109375 526.014648438 413.546875 515.473632812 c 0
 414.079101562 511.483398438 424.088867188 501.401367188 440.0859375 503.640625 c 0
 443.467773438 504.114257812 446.642578125 505.303710938 448.509765625 506.453125 c 0
 493.98828125 535.29296875 511.703125 564.903320312 501.252929688 578.608398438 c 0
 491.080078125 590.661132812 477.541015625 580.014648438 423.325195312 550.6484375 c 0
 420.07421875 548.887695312 416.422851562 546.98828125 412.860351562 545.227539062 c 0
759.981445312 351.868164062 m 1
 761.37890625 475.307617188 725.969726562 586.697265625 720.768554688 746.436523438 c 1
 721.768554688 746.436523438 720.736328125 747.436523438 720.768554688 746.436523438 c 1
 719.955078125 771.422851562 l 1
 744.942382812 772.237304688 l 1
 769.928710938 773.05078125 l 1
 770.7421875 748.063476562 l 2
 776.022460938 585.890625 816.569335938 470.744140625 809.155273438 325.010742188 c 0
 806.991210938 282.48828125 800.606445312 237.706054688 787.947265625 188.944335938 c 0
 759.0703125 78.5947265625 677.166015625 -40.1494140625 548.400390625 -17.3671875 c 0
 532.599609375 -14.572265625 515.8984375 -10.82421875 498.705078125 -6.1630859375 c 0
 375.076171875 27.35546875 190.5 118.299804688 230.6328125 265.813476562 c 0
 285.970703125 469.21875 594.399414062 367.942382812 759.981445312 351.868164062 c 1
757.37109375 301.891601562 m 1
 557.06640625 320.673828125 317.836914062 395.884765625 278.87890625 252.6875 c 0
 253.549804688 159.584960938 382.263671875 77.2119140625 511.7890625 42.0947265625 c 0
 527.616210938 37.8037109375 542.911132812 34.3798828125 557.111328125 31.8681640625 c 0
 644.30859375 16.4404296875 712.435546875 97.8857421875 739.5703125 201.579101562 c 0
 748.745117188 236.918945312 754.387695312 270.329101562 757.37109375 301.891601562 c 1
838.752929688 752.879882812 m 1
 838.3828125 727.8828125 l 1
 813.385742188 728.252929688 l 1
 678.385742188 730.252929688 l 1
 653.387695312 730.623046875 l 1
 653.758789062 755.620117188 l 1
 654.12890625 780.618164062 l 1
 679.125976562 780.247070312 l 1
 814.125976562 778.247070312 l 1
 839.123046875 777.876953125 l 1
 838.752929688 752.879882812 l 1
EndSplineSet
EndChar

StartChar: lt_WF
Encoding: 294 -1 63
Width: 1000
VWidth: 0
Flags: HW
LayerCount: 2
Fore
SplineSet
522.017578125 -29.021484375 m 1
 503 -49 l 1
 484.981445312 -28.115234375 l 1
 292.650390625 194.813476562 l 1
 311.579101562 211.14453125 l 1
 330.508789062 227.475585938 l 1
 504.821289062 25.431640625 l 1
 701.040039062 231.560546875 l 1
 719.147460938 214.323242188 l 1
 737.254882812 197.0859375 l 1
 522.017578125 -29.021484375 l 1
908.788766729 661.755738524 m 1
 932.544505254 653.966971795 l 1
 924.755738524 630.211233271 l 2
 885.164700695 509.458567893 864.908182999 438.061615008 763.68120804 347.379116607 c 0
 651.92392528 247.263217468 513.179576851 349.578681362 426.672137264 293.069814558 c 0
 305.747998043 214.079046196 265.19299113 155.192415696 170.288484158 40.0954604313 c 2
 154.383944589 20.8069762734 l 1
 135.095460431 36.7115158422 l 1
 115.806976273 52.6160554109 l 1
 131.711515842 71.9045395687 l 2
 224.80700887 184.807584304 272.252001957 251.920953804 399.327862736 334.930185442 c 0
 529.234485649 419.788506138 650.07607472 312.736782532 730.31879196 384.620883393 c 0
 823.19551463 467.822947451 836.835299305 522.541432107 877.244261476 645.788766729 c 2
 885.033028205 669.544505254 l 1
 908.788766729 661.755738524 l 1
787.409781006 780.996641365 m 1
 812.406422371 780.586860359 l 1
 811.996641365 755.590218994 l 2
 809.980498448 632.605501041 798.638235997 551.611648399 695.68120804 459.379116607 c 0
 583.923918764 359.263211631 445.179573401 461.578704293 358.672137264 405.069814558 c 0
 237.747998043 326.079046196 197.19299113 267.192415696 102.288484158 152.095460431 c 2
 86.3839445891 132.806976273 l 1
 67.0954604313 148.711515842 l 1
 47.8069762734 164.616055411 l 1
 63.7115158422 183.904539569 l 2
 156.80700887 296.807584304 204.252001957 363.920953804 331.327862736 446.930185442 c 0
 461.234460252 531.788527368 582.076081236 424.736788369 662.31879196 496.620883393 c 0
 753.465279628 578.273117226 760.019501552 635.394498959 762.003358635 756.409781006 c 2
 762.413139641 781.406422371 l 1
 787.409781006 780.996641365 l 1
478.892411665 765.237031203 m 1
 497.91058469 785.215718017 l 1
 515.928918229 764.330831414 l 1
 708.259749643 541.401913184 l 1
 689.330831414 525.071081771 l 1
 670.401913184 508.740250357 l 1
 496.08941531 710.784281983 l 1
 299.870557131 504.655380462 l 1
 281.762968797 521.892411665 l 1
 263.655380462 539.129442869 l 1
 478.892411665 765.237031203 l 1
494.860351562 746 m 1
 519.860351562 746.138671875 l 1
 520 739.139648438 l 1
 523.999612054 42.1392736048 l 1
 524.138885659 17.1396615505 l 1
 499.139273605 17.0003879457 l 1
 474.139661551 16.861114341 l 1
 474.000387946 41.8607263952 l 1
 470 738.860351562 l 1
 469.861328125 745.860351562 l 1
 494.860351562 746 l 1
EndSplineSet
EndChar

StartChar: lt_WG
Encoding: 295 -1 64
Width: 1000
VWidth: 0
Flags: HW
LayerCount: 2
Fore
SplineSet
439.710493902 502.294128695 m 0
 442.258788423 506.283977595 443.089578236 507.633946383 444.806880936 510.509582907 c 0
 467.473617319 548.455514808 484.077216325 595.718811805 491.614757515 674.928224895 c 0
 492.910897016 688.549524386 490.492945196 699.124108181 485.550909227 708.448263427 c 0
 458.131208755 760.175447879 328.048822284 777.919856196 248.332876119 737.850990655 c 1
 255.50321627 719.567987098 l 2
 288.725682748 634.850144793 312.237788997 545.181171977 347.946866174 485.710293081 c 1
 371.841527435 488.549542201 396.704178454 492.917518023 422.522255047 498.465609638 c 0
 428.020391708 499.647955533 434.23959447 501.039180221 439.710493902 502.294128695 c 0
508.820074215 306.50671899 m 0
 506.272252087 302.516774333 505.440464542 301.166448625 503.723392501 298.291198343 c 0
 481.056630315 260.345223244 464.454054789 213.082191378 456.916476166 133.872384922 c 0
 455.619411517 120.251312579 458.038238086 109.676798947 462.980340773 100.352517823 c 0
 490.400019121 48.6253751071 620.48120807 30.8809385627 700.197221503 70.9497032276 c 1
 693.02803373 89.2327941522 l 2
 659.805564723 173.950642906 636.293148104 263.619634109 600.583789982 323.090515676 c 1
 576.688994749 320.251272157 551.826228569 315.883291947 526.008101825 310.335189555 c 0
 520.510984932 309.152866623 514.290323386 307.761486902 508.820074215 306.50671899 c 0
655.400519461 326.785431108 m 1
 693.377303524 257.833769187 715.071626871 169.973961763 739.576447756 107.4869597 c 2
 742.575854658 99.8386860372 l 1
 763.436559283 117.953774111 781.634923851 140.038405608 795.20920831 163.081345841 c 0
 831.65557661 224.955005514 827.906431508 275.469730015 798.263837448 292.886501551 c 0
 756.297267697 317.543520892 708.619467024 327.275837987 655.400519461 326.785431108 c 1
296.307858568 248.25771446 m 1
 256.563150067 187.950652335 238.051591251 118.722083187 228.540862271 98.341253401 c 2
 228.138421349 97.4788506276 l 1
 227.264372496 97.1023724184 l 2
 227.177173419 97.0648132452 208.473390569 88.8196463413 194.084689038 88.6570552559 c 0
 185.940254058 88.5650238436 177.697979602 91.5905113128 177.658222931 101.64629873 c 0
 177.589602582 118.885255108 181.426486473 115.605727425 183.09371479 119.189504006 c 0
 184.402837364 122.189139562 186.228184218 126.425055578 188.380544803 131.509096473 c 0
 204.456613071 169.469539213 220.499955513 202.660080636 236.352495252 231.99875693 c 1
 213.62444237 226.094442387 190.64087896 220.470573737 167.433077283 215.331588008 c 2
 145.466280408 210.467330195 l 1
 143.025488007 209.926848869 l 1
 142.484926154 212.367623437 l 1
 137.619663802 234.335523211 l 1
 132.75540599 256.304273211 l 1
 132.214934807 258.74523682 l 1
 134.655916246 259.285627466 l 1
 156.623632242 264.148895999 l 2
 195.712862713 272.804498647 234.476420495 282.985532792 272.751428664 293.634750498 c 1
 281.441739358 307.081400873 290.03312617 319.535822938 298.4975255 331.16099688 c 0
 319.063379705 359.406294701 338.932573378 382.842854884 357.297407792 403.498672273 c 1
 345.90100703 411.992780395 335.509241391 422.059690739 325.968458902 433.343041993 c 1
 253.83567335 428.026420049 186.03055655 436.910390436 124.937665556 472.805446873 c 0
 54.7138557338 514.064712945 71.5670162586 605.443677043 110.240454365 671.095987581 c 0
 135.946791266 714.73700103 174.571887962 755.163823634 221.213682992 780.105954738 c 0
 312.890606711 829.129854542 480.137590662 825.416656388 529.72737987 731.865272021 c 0
 539.288288626 713.829807635 543.537213776 692.757253937 541.390125189 670.191891152 c 0
 535.276817068 605.946648776 522.592056557 557.234383553 505.449145936 518.903747397 c 1
 552.670591889 531.698456345 601.717186521 546.37543768 652.22353242 560.543287363 c 1
 691.968082475 620.850288294 710.478676264 690.078688843 719.989411166 710.459527849 c 2
 720.391852119 711.321930688 l 1
 721.265901058 711.698408882 l 2
 721.353100916 711.735968386 740.056892507 719.981135187 754.445836584 720.143726 c 0
 762.59039289 720.235757078 770.832827987 717.210437475 770.873027069 707.15448252 c 0
 770.941647596 689.915481335 767.104242003 693.194890354 765.436498188 689.61113871 c 0
 764.127515132 686.611822836 762.302051068 682.375635556 760.149728634 677.291684777 c 0
 744.073721223 639.331385739 728.030435199 606.140765807 712.177949354 576.802035904 c 1
 734.905925085 582.706348136 757.889427425 588.330214808 781.097219059 593.469198314 c 2
 803.064992496 598.333456127 l 1
 805.505870498 598.87393238 l 1
 806.046346752 596.433054379 l 1
 810.910609635 574.465258039 l 1
 815.774867448 552.496508039 l 1
 816.315338631 550.05554443 l 1
 813.874357191 549.515153784 l 1
 791.906641191 544.65188525 l 2
 752.817468056 535.996295298 714.054013213 525.815292022 675.779155457 515.166105082 c 1
 667.088737915 501.71931851 658.497246991 489.264859586 650.032747938 477.63978437 c 0
 629.467012015 449.394649 609.597939252 425.958207474 591.233196142 405.30248016 c 1
 602.629755908 396.808297644 613.021647942 386.741263134 622.56253377 375.457752959 c 1
 694.695671437 380.774359179 762.500489649 371.890372219 823.592607882 335.995334377 c 0
 893.816404928 294.736075812 876.9642491 203.35712844 838.289806555 137.703795856 c 0
 812.583508753 94.0638332847 773.959328938 53.6359477152 727.316590445 28.6948265125 c 0
 635.639666828 -20.329073238 468.392724864 -16.6159545396 418.802842823 76.9356049557 c 0
 409.243007156 94.9709338073 404.993042432 116.043558825 407.141124811 138.608890098 c 0
 413.254435407 202.854158485 425.939145627 251.566326092 443.081248015 289.897051615 c 1
 395.860463921 277.102391241 346.814067347 262.425494687 296.307858568 248.25771446 c 1
563.561315113 368.350640771 m 1
 562.470080376 369.256487405 561.367849486 370.138517325 560.254315795 370.996238507 c 0
 559.119286442 369.737516555 557.993888887 368.486441953 556.878396265 367.242328888 c 1
 559.109299858 367.621184714 561.336960799 367.990736634 563.561315113 368.350640771 c 1
594.66331945 492.042267358 m 1
 556.612957814 481.103447017 519.185454711 470.459260039 482.551037201 461.214632907 c 0
 478.345366096 460.153543745 462.584376353 453.784578377 460.927875487 451.494620983 c 0
 456.294474867 445.089895596 433.683173632 431.416870578 430.260575665 427.105531702 c 2
 430.260575665 427.105531702 475.35040989 432.894272966 475.664283795 432.937051857 c 0
 489.140339295 434.774065828 501.81014557 435.17277746 513.739822258 434.286533366 c 1
 540.656074575 447.344313609 568.71128122 467.359759995 594.66331945 492.042267358 c 1
388.2760218 437.804613827 m 0
 389.411025326 439.063307267 390.536397377 440.314353603 391.651864831 441.558438597 c 1
 389.421021 441.179589336 387.193419087 440.810043677 384.969123227 440.45014567 c 1
 386.060324815 439.54432217 387.162522076 438.662314163 388.2760218 437.804613827 c 0
205.955168102 708.962318069 m 1
 185.094135856 690.847138108 166.895504514 668.762638637 153.321065128 645.719435409 c 0
 116.874721705 583.845817968 120.624822352 533.331012052 150.266423631 515.91428696 c 0
 192.233657314 491.257201214 239.911462259 481.524888984 293.130374813 482.015343045 c 1
 255.153463028 550.967007306 233.459139842 638.826814301 208.954816708 701.313784669 c 2
 205.955168102 708.962318069 l 1
434.791092948 374.514272153 m 1
 407.87515146 361.456543588 379.820134807 341.441193373 353.868206142 316.75880434 c 1
 391.918368353 327.697523949 429.345735095 338.34159781 465.980086847 347.586116562 c 0
 470.184957162 348.64723608 485.946920194 355.016267219 487.603374513 357.306160267 c 0
 492.236775133 363.710885654 514.848076368 377.383910672 518.270674335 381.695249548 c 2
 518.270674335 381.695249548 473.18084011 375.906508284 472.866966205 375.863729393 c 0
 459.390790545 374.026699042 446.72087283 373.627996889 434.791092948 374.514272153 c 1
EndSplineSet
EndChar

StartChar: lt_WH
Encoding: 296 -1 65
Width: 1000
VWidth: 0
Flags: HW
LayerCount: 2
Fore
SplineSet
791 758 m 1
 802.319335938 735.708984375 l 1
 780.029296875 724.389648438 l 2
 632.11328125 649.276367188 500.192382812 585.50390625 519.790039062 503.168945312 c 0
 535.514648438 437.100585938 804.158203125 497.37890625 816.2890625 359.21484375 c 0
 831.091796875 197.810546875 675.920898438 127.744140625 548.196289062 42.7666015625 c 2
 527.381835938 28.9189453125 l 1
 513.534179688 49.7333984375 l 1
 499.685546875 70.546875 l 1
 520.5 84.3955078125 l 2
 660.611328125 177.61328125 777.600585938 233.59375 766.493164062 354.697265625 c 0
 759.17578125 438.043945312 507.270507812 339.831054688 471.1484375 491.591796875 c 0
 438.41015625 629.135742188 628.825195312 703.684570312 757.389648438 768.970703125 c 2
 779.680664062 780.291015625 l 1
 791 758 l 1
491.12109375 715.700195312 m 1
 502.440429688 693.409179688 l 1
 480.150390625 682.08984375 l 2
 332.234375 606.9765625 200.313476562 543.205078125 219.911132812 460.869140625 c 0
 235.635742188 394.80078125 504.278320312 455.079101562 516.409179688 316.916015625 c 0
 531.212890625 155.510742188 376.041992188 85.443359375 248.317382812 0.466796875 c 1
 249.317382812 0.466796875 249.149414062 1.0205078125 248.317382812 0.466796875 c 1
 227.502929688 -13.380859375 l 1
 213.655273438 7.43359375 l 1
 199.806640625 28.2470703125 l 1
 220.62109375 42.095703125 l 2
 360.732421875 135.313476562 477.721679688 191.293945312 466.61328125 312.397460938 c 0
 459.295898438 395.744140625 207.389648438 297.53125 171.26953125 449.29296875 c 0
 138.53125 586.8359375 328.946289062 661.384765625 457.510742188 726.670898438 c 2
 479.801757812 737.991210938 l 1
 491.12109375 715.700195312 l 1
114.39453125 750.995117188 m 1
 136.685546875 762.314453125 l 1
 148.004882812 740.0234375 l 2
 223.118164062 592.108398438 286.890625 460.1875 369.225585938 479.784179688 c 0
 435.293945312 495.509765625 375.016601562 764.153320312 513.1796875 776.284179688 c 0
 674.583984375 791.086914062 744.651367188 635.915039062 829.627929688 508.19140625 c 2
 843.4765625 487.376953125 l 1
 822.662109375 473.528320312 l 1
 801.84765625 459.680664062 l 1
 788 480.495117188 l 2
 694.78125 620.60546875 638.801757812 737.594726562 517.697265625 726.48828125 c 0
 434.350585938 719.169921875 532.564453125 467.264648438 380.802734375 431.143554688 c 0
 243.258789062 398.405273438 168.7109375 588.819335938 103.423828125 717.384765625 c 2
 92.1044921875 739.67578125 l 1
 114.39453125 750.995117188 l 1
156.694335938 451.116210938 m 1
 178.985351562 462.435546875 l 1
 190.3046875 440.14453125 l 2
 265.41796875 292.229492188 329.190429688 160.30859375 411.525390625 179.905273438 c 0
 477.59375 195.630859375 417.315429688 464.272460938 555.479492188 476.404296875 c 0
 716.883789062 491.208007812 786.951171875 336.036132812 871.927734375 208.3125 c 1
 871.927734375 209.3125 871.374023438 209.14453125 871.927734375 208.3125 c 1
 885.776367188 187.498046875 l 1
 864.961914062 173.649414062 l 1
 844.147460938 159.801757812 l 1
 830.299804688 180.616210938 l 2
 737.081054688 320.7265625 681.1015625 437.715820312 559.998046875 426.608398438 c 0
 476.650390625 419.290039062 574.86328125 167.384765625 423.102539062 131.264648438 c 0
 285.55859375 98.5263671875 211.010742188 288.940429688 145.723632812 417.505859375 c 2
 134.404296875 439.796875 l 1
 156.694335938 451.116210938 l 1
EndSplineSet
EndChar

StartChar: lt_WI
Encoding: 297 -1 66
Width: 1000
VWidth: 0
Flags: HW
LayerCount: 2
Fore
SplineSet
100.706109802 184.427529127 m 1
 83.8767538867 228.510674504 85.0979865282 275.561141123 123.270507812 317.369140625 c 0
 291.249023438 500.805664062 484.79296875 567.462890625 725.783203125 496.48046875 c 0
 792.704101562 476.76953125 841.005859375 443.301757812 869.951171875 400.331054688 c 0
 935.590984022 302.883646774 895.47083017 174.808955991 796.954425151 80.1004500714 c 1
 778.479684796 62.3398034461 780.494140625 68.5166015625 765 56 c 1
 649.770507812 -37.08203125 568.109163579 -18.1132791582 481.898004333 68.0638373267 c 0
 447.013179058 102.934887404 421.113365062 148.162161662 408.684199809 200.19122551 c 0
 365.26725698 381.934783461 429.68391921 653.111555696 587.68228903 763.493978447 c 0
 633.278198372 795.34872832 682.257013495 795.405821125 727.77163618 777.77651066 c 1
 781.82189665 756.841066921 901.17400888 630.053447041 899.586566038 557.213478178 c 1
 898.123796844 490.094171784 870.540569606 427.299536915 823.65625 380.396484375 c 0
 788.78515625 345.51171875 743.557617188 319.612304688 691.529296875 307.182617188 c 0
 509.78515625 263.765625 238.608398438 328.182617188 128.225585938 486.180664062 c 0
 113.215165782 507.666464405 105.265327975 529.903397278 102.899567025 552.175036081 c 1
 94.2827963126 633.294645808 238.958946505 770.849984638 277.942889536 787.75699709 c 1
 324.285763356 807.855516731 374.526908266 808.937195719 418.870242375 768.449803706 c 0
 602.307268221 600.470954195 668.963654232 406.927065703 597.981377489 165.936464501 c 0
 578.270402628 99.0158227249 544.803317037 50.7141417156 501.832032935 21.769074919 c 0
 451.672350883 -12.0180314669 393.397880972 -17.78370519 335.736039171 -1.98740902522 c 1
 260.368473613 18.659319376 116.742265899 142.422106928 100.706109802 184.427529127 c 1
348.770998025 46.7729926128 m 1
 394.8063346 34.5517800389 438.984679515 39.7209220477 473.898546789 63.2385860297 c 0
 505.196027673 84.3202849752 532.733549941 121.379063639 550.018622511 180.063535499 c 0
 615.712868257 403.100841489 557.704597054 573.518180412 385.116267413 731.56254969 c 0
 358.641602122 755.735070173 324.679448083 755.508394078 289.008939389 737.959772751 c 1
 263.540101021 725.430010308 143.573827088 604.658477473 155.020758614 547.831603449 c 1
 157.355740491 536.239875073 161.999960991 525.142313585 169.213867188 514.81640625 c 0
 262.83203125 380.814453125 514.633789062 316.331054688 679.911132812 355.814453125 c 0
 723.025390625 366.114257812 759.94921875 387.389648438 788.293945312 415.745117188 c 0
 826.7243246 454.190371141 849.989882054 506.010553308 850.21469306 562.200536055 c 1
 850.447425227 620.370359334 747.981553439 717.426361742 706.439583404 731.653153305 c 1
 674.442957257 742.610970918 642.835700686 741.032331078 616.31771097 722.506021553 c 0
 482.31608079 628.888444304 417.832352395 377.086700914 457.315800191 211.80877449 c 0
 467.615206367 168.694981195 488.890392371 131.770928923 517.246360828 103.426157571 c 0
 584.658608936 36.040528975 637.1796875 22.4287109375 731 98 c 1
 746.077148438 110.14453125 746.027263846 100.392716547 762.035773588 115.648266528 c 1
 850.093649035 199.564342528 874.660523682 303.841146825 828.481445312 372.397460938 c 0
 807.399414062 403.6953125 770.340820312 431.232421875 711.65625 448.517578125 c 0
 488.619140625 514.211914062 318.202148438 456.203125 160.157226562 283.615234375 c 0
 142.707854695 264.5038413 137.972753051 241.490864813 143.289794388 216.750084897 c 1
 150.597490924 182.746566736 287.979066255 62.911706397 348.770998025 46.7729926128 c 1
EndSplineSet
EndChar

StartChar: lt_WK
Encoding: 298 -1 67
Width: 1000
VWidth: 0
Flags: HW
LayerCount: 2
Fore
SplineSet
678.854492188 315.600585938 m 1
 697.700195312 351.578125 l 1
 721.33203125 318.546875 l 1
 897.33203125 72.546875 l 1
 924.9609375 33.9296875 l 1
 877.487304688 33.0048828125 l 1
 569.487304688 27.0048828125 l 1
 527.25390625 26.181640625 l 1
 546.854492188 63.6005859375 l 1
 678.854492188 315.600585938 l 1
704.299804688 256.421875 m 1
 610.74609375 77.818359375 l 1
 829.0390625 82.0703125 l 1
 704.299804688 256.421875 l 1
563.543945312 433.922851562 m 1
 243.571289062 119.618164062 l 1
 367.4921875 150.887695312 l 1
 379.823242188 102.432617188 l 1
 348.784179688 94.466796875 l 1
 105.608398438 32.6474609375 l 1
 170.59375 288.454101562 l 1
 195.004882812 283.05859375 l 1
 219.415039062 277.662109375 l 1
 214.01953125 253.250976562 l 1
 187.919921875 135.182617188 l 1
 532 473 l 1
 780.69921875 715.567382812 l 1
 656.778320312 684.297851562 l 1
 644.447265625 732.752929688 l 1
 675.486328125 740.71875 l 1
 918.662109375 802.538085938 l 1
 853.676757812 546.731445312 l 1
 829.265625 552.126953125 l 1
 804.85546875 557.5234375 l 1
 810.250976562 581.934570312 l 1
 836.350585938 700.002929688 l 1
 563.543945312 433.922851562 l 1
299.75390625 481.046875 m 1
 280.908203125 445.069335938 l 1
 257.276367188 478.100585938 l 1
 81.2763671875 724.100585938 l 1
 53.6474609375 762.717773438 l 1
 101.12109375 763.642578125 l 1
 409.12109375 769.642578125 l 1
 451.354492188 770.465820312 l 1
 431.75390625 733.046875 l 1
 299.75390625 481.046875 l 1
274.30859375 540.225585938 m 1
 367.862304688 718.829101562 l 1
 149.569335938 714.577148438 l 1
 274.30859375 540.225585938 l 1
EndSplineSet
EndChar

StartChar: lt_WL
Encoding: 299 -1 68
Width: 1000
VWidth: 0
Flags: HW
LayerCount: 2
Fore
SplineSet
415.963867188 396.544921875 m 1
 414.743164062 312.015625 417.227539062 229.083007812 431.704101562 135.834960938 c 0
 443.38671875 60.5859375 539.734375 47.1005859375 654.458984375 44.99609375 c 0
 750.66015625 43.23046875 774.202148438 62.376953125 855.353515625 127.498046875 c 2
 874.8515625 143.14453125 l 1
 890.498046875 123.646484375 l 1
 906.14453125 104.1484375 l 1
 886.646484375 88.501953125 l 2
 805.797851562 23.623046875 761.462890625 -6.9765625 653.541015625 -4.99609375 c 0
 550.265625 -3.1005859375 401.759765625 2.7890625 382.295898438 128.165039062 c 0
 367.920898438 220.759765625 364.969726562 303.474609375 365.822265625 385.572265625 c 1
 71.220703125 542.94921875 l 1
 32.9521484375 563.392578125 l 1
 69.8291015625 586.249023438 l 1
 382.829101562 780.249023438 l 1
 419.581054688 803.028320312 l 1
 420.986328125 759.8125 l 2
 425.291015625 627.469726562 418.43359375 519.291015625 416.293945312 415.296875 c 1
 416 409 l 1
 415.963867188 396.544921875 l 1
366.905273438 441.680664062 m 1
 369.185546875 527.374023438 373.594726562 612.514648438 372.051757812 714.744140625 c 1
 133.047851562 566.607421875 l 1
 366.905273438 441.680664062 l 1
574.1328125 401.487304688 m 1
 575.353515625 486.016601562 572.869140625 568.950195312 558.392578125 662.197265625 c 0
 546.709960938 737.446289062 450.362304688 750.931640625 335.637695312 753.037109375 c 0
 239.436523438 754.802734375 215.89453125 735.65625 134.743164062 670.534179688 c 2
 115.245117188 654.887695312 l 1
 99.5986328125 674.385742188 l 1
 83.9521484375 693.883789062 l 1
 103.450195312 709.53125 l 2
 184.298828125 774.409179688 228.633789062 805.008789062 336.555664062 803.028320312 c 0
 439.831054688 801.133789062 588.336914062 795.244140625 607.80078125 669.868164062 c 0
 622.17578125 577.2734375 625.126953125 494.557617188 624.274414062 412.4609375 c 1
 918.875976562 255.083984375 l 1
 957.14453125 234.640625 l 1
 920.267578125 211.783203125 l 1
 607.267578125 17.783203125 l 1
 570.515625 -4.99609375 l 1
 569.110351562 38.2197265625 l 2
 564.805664062 170.5625 571.663085938 278.7421875 573.802734375 382.735351562 c 1
 574.096679688 389.033203125 l 1
 574.1328125 401.487304688 l 1
623.19140625 356.3515625 m 1
 620.911132812 270.659179688 616.501953125 185.517578125 618.044921875 83.2890625 c 1
 857.048828125 231.424804688 l 1
 623.19140625 356.3515625 l 1
EndSplineSet
EndChar

StartChar: lt_WM
Encoding: 300 -1 69
Width: 1000
VWidth: 0
Flags: HW
LayerCount: 2
Fore
SplineSet
198.01171875 527.243164062 m 1
 197.25390625 552.231445312 l 1
 222.243164062 552.98828125 l 2
 318.9609375 555.918945312 429.801757812 563.872070312 509.845703125 471.427734375 c 0
 516.032226562 464.376953125 520.73046875 455.422851562 522.30078125 445.893554688 c 0
 531.796875 388.247070312 439.221679688 339.361328125 429.717773438 325.698242188 c 1
 529.807617188 250.299804688 594.573242188 273.266601562 757.579101562 262.950195312 c 2
 782.529296875 261.37109375 l 1
 780.950195312 236.420898438 l 1
 779.37109375 211.470703125 l 1
 754.420898438 213.049804688 l 2
 602.274414062 222.6796875 514.98046875 197.921875 397.854492188 287.110351562 c 0
 388.091796875 294.543945312 379.837890625 305.65625 378.34765625 319.232421875 c 0
 376.517578125 335.905273438 384.294921875 348.758789062 391.377929688 357.950195312 c 0
 418.931640625 393.705078125 468.7265625 424.326171875 472.82421875 437.739257812 c 0
 472.766601562 437.8203125 472.560546875 438.110351562 472.154296875 438.572265625 c 0
 410.198242188 510.127929688 325.0390625 506.081054688 223.756835938 503.01171875 c 2
 198.768554688 502.25390625 l 1
 198.01171875 527.243164062 l 1
189 766.068359375 m 1
 189.028809544 776.604421308 l 1
 188.930664062 790.719726562 l 2
 188.976245597 790.719726562 189.021827132 790.72067206 189.067408667 790.72067206 c 1
 189.067408667 790.836567832 189.068359375 790.952463603 189.068359375 791.068359375 c 2
 214.068359375 791 l 1
 225.067518568 790.969924174 l 1
 789.9296875 794.892578125 l 1
 815.172851562 795.068359375 l 1
 815.103515625 769.825195312 l 1
 813.103515625 38.8251953125 l 1
 814.103515625 38.8251953125 813.100585938 37.8251953125 813.103515625 38.8251953125 c 1
 813.074706081 28.2891333862 l 1
 813.172851562 14.173828125 l 2
 813.127270027 14.173828125 813.081688492 14.1728826273 813.036106958 14.1728826273 c 1
 813.036106958 14.0569868557 813.03515625 13.9410910841 813.03515625 13.8251953125 c 2
 788.03515625 13.8935546875 l 1
 777.035997057 13.9236305134 l 1
 212.173828125 10.0009765625 l 1
 186.930664062 9.8251953125 l 1
 187 35.068359375 l 1
 189 766.068359375 l 1
189 766.068359375 m 1
 188 766.068359375 189.002929688 767.068359375 189 766.068359375 c 1
238.931976947 741.065722426 m 1
 237.069335938 60.1748046875 l 1
 763.171538678 63.8278322613 l 1
 765.034179688 744.71875 l 1
 238.931976947 741.065722426 l 1
EndSplineSet
EndChar

StartChar: lt_WN
Encoding: 301 -1 70
Width: 1004
VWidth: 0
Flags: HW
LayerCount: 2
Fore
SplineSet
847.5703125 73.06640625 m 1
 581.560546875 358.3671875 l 1
 307.577148438 68.3720703125 l 1
 847.5703125 73.06640625 l 1
869.073242188 662.977539062 m 1
 616.059570312 394.881835938 l 1
 878.3359375 113.416992188 l 1
 869.073242188 662.977539062 l 1
581.791015625 430.359375 m 1
 916.991210938 785.696289062 l 1
 929.275390625 56.8369140625 l 1
 930.424804688 22.3115234375 l 1
 904.744140625 22.3134765625 l 1
 880.999023438 22.009765625 l 1
 190.987304688 16.1015625 l 1
 547.291015625 393.844726562 l 1
 238.651367188 725.024414062 l 1
 275.294921875 759.04296875 l 1
 581.791015625 430.359375 l 1
139.841796875 728.731445312 m 1
 405.8515625 443.430664062 l 1
 679.834960938 733.42578125 l 1
 139.841796875 728.731445312 l 1
118.338867188 138.8203125 m 1
 371.352539062 406.916015625 l 1
 109.076171875 688.380859375 l 1
 118.338867188 138.8203125 l 1
405.62109375 371.438476562 m 1
 70.4208984375 16.1015625 l 1
 58.13671875 744.9609375 l 1
 56.9873046875 779.486328125 l 1
 82.66796875 779.484375 l 1
 106.413085938 779.788085938 l 1
 796.424804688 785.696289062 l 1
 440.12109375 407.953125 l 1
 748.760742188 76.7734375 l 1
 712.1171875 42.7548828125 l 1
 405.62109375 371.438476562 l 1
EndSplineSet
EndChar

StartChar: lt_WO
Encoding: 302 -1 71
Width: 1000
VWidth: 0
Flags: HW
LayerCount: 2
Fore
SplineSet
468.955078125 394.333007812 m 4
 472.247070312 371.286132812 484.532226562 362.169921875 492.510742188 362.739257812 c 4
 507.838867188 363.728515625 519.704101562 378.404296875 517.412109375 395.594726562 c 4
 514.737304688 416.990234375 498.947265625 430.48828125 481.198242188 428.875 c 4
 475.573242188 428.487304688 465.45703125 418.813476562 468.955078125 394.333007812 c 4
419.45703125 387.26171875 m 4
 414.954101562 418.78125 424.838867188 475.107421875 477.213867188 478.71875 c 4
 525.46484375 483.10546875 561.674804688 444.603515625 567 402 c 4
 572.708007812 359.189453125 542.573242188 315.865234375 495.901367188 312.854492188 c 4
 447.879882812 309.424804688 424.165039062 354.307617188 419.45703125 387.26171875 c 4
188.554749223 -1.14707838489 m 1
 165.407670838 8.2981723923 l 1
 174.852921615 31.4452507772 l 1
 478.852921615 776.445250777 l 1
 502.371425217 834.0810573 l 1
 525.250251914 776.188350556 l 1
 821.250251914 27.1883505561 l 1
 830.43860247 3.93809864221 l 1
 807.188350556 -5.25025191387 l 1
 783.938098642 -14.43860247 l 1
 774.749748086 8.81164944392 l 1
 501.628574783 699.9189427 l 1
 221.147078385 12.5547492228 l 1
 211.701827608 -10.5923291621 l 1
 188.554749223 -1.14707838489 l 1
807.291992188 820.7890625 m 1
 830.438476562 811.344726562 l 1
 820.993164062 788.197265625 l 1
 516.993164062 43.197265625 l 1
 493.474609375 -14.4384765625 l 1
 470.595703125 43.4541015625 l 1
 174.595703125 792.454101562 l 1
 165.407226562 815.704101562 l 1
 188.658203125 824.892578125 l 1
 211.908203125 834.081054688 l 1
 221.096679688 810.831054688 l 1
 494.217773438 119.723632812 l 1
 774.69921875 807.087890625 l 1
 784.14453125 830.234375 l 1
 807.291992188 820.7890625 l 1
EndSplineSet
EndChar

StartChar: lt_WP
Encoding: 303 -1 72
Width: 1000
VWidth: 0
Flags: HW
LayerCount: 2
Fore
SplineSet
94.1015625 423.249023438 m 1
 96.3505859375 448.147460938 l 1
 121.249023438 445.8984375 l 1
 120.252929688 445.98828125 122.249023438 445.8984375 121.249023438 445.8984375 c 1
 849.249023438 394.8984375 l 1
 874.147460938 392.649414062 l 1
 871.8984375 367.750976562 l 1
 869.649414062 342.852539062 l 1
 844.750976562 345.1015625 l 1
 116.750976562 396.1015625 l 1
 115.750976562 396.1015625 115.754882812 396.19140625 116.750976562 396.1015625 c 1
 91.8525390625 398.350585938 l 1
 94.1015625 423.249023438 l 1
118.974609375 636.676757812 m 1
 101.651367188 654.702148438 l 1
 119.676757812 672.025390625 l 1
 118.956054688 671.33203125 120.676757812 672.025390625 119.676757812 672.025390625 c 1
 199.90625 749.12890625 302.341796875 802.947265625 429.516601562 779.588867188 c 0
 465.225585938 773.030273438 504.431640625 758.799804688 540.083007812 739.06640625 c 0
 606.927734375 702.068359375 679.965820312 632.434570312 635.865234375 552.87890625 c 0
 578.852539062 450.033203125 475.559570312 429.810546875 387.263671875 368.46875 c 0
 271.387695312 287.96484375 160.7734375 261.3203125 165.970703125 153.200195312 c 0
 166.08203125 150.896484375 166.274414062 148.650390625 166.54296875 146.458984375 c 0
 175.4921875 73.552734375 286.016601562 34.453125 383.897460938 46.806640625 c 0
 484.612304688 59.28515625 549.442382812 136.229492188 611.268554688 227.971679688 c 2
 625.239257812 248.703125 l 1
 645.971679688 234.731445312 l 1
 666.703125 220.760742188 l 1
 652.731445312 200.028320312 l 2
 590.553710938 107.764648438 515.4140625 12.71875 390.07421875 -2.810546875 c 0
 287.776367188 -15.7216796875 131.915039062 18.1591796875 116.916015625 140.3671875 c 0
 116.494140625 143.798828125 116.198242188 147.27734375 116.029296875 150.799804688 c 0
 108.82421875 300.661132812 262.772460938 342.861328125 358.736328125 409.53125 c 0
 460.440429688 480.189453125 547.147460938 495.966796875 592.134765625 577.12109375 c 0
 612.3125 613.520507812 582.693359375 658.333984375 515.870117188 695.3203125 c 0
 484.96484375 712.426757812 449.926757812 725.002929688 420.483398438 730.411132812 c 0
 313.474609375 750.06640625 228.09375 706.87109375 154.323242188 635.974609375 c 2
 136.297851562 618.651367188 l 1
 118.974609375 636.676757812 l 1
864.379882812 140.1015625 m 1
 881.703125 122.076171875 l 1
 863.677734375 104.752929688 l 1
 864.3984375 105.446289062 862.677734375 104.752929688 863.677734375 104.752929688 c 1
 783.448242188 27.6494140625 681.012695312 -26.1689453125 553.837890625 -2.810546875 c 0
 518.12890625 3.748046875 478.922851562 17.978515625 443.271484375 37.7119140625 c 0
 376.426757812 74.7099609375 303.388671875 144.34375 347.489257812 223.899414062 c 0
 404.501953125 326.745117188 507.794921875 346.967773438 596.090820312 408.309570312 c 0
 711.966796875 488.813476562 822.581054688 515.458007812 817.383789062 623.578125 c 0
 817.272460938 625.881835938 817.080078125 628.127929688 816.811523438 630.319335938 c 0
 807.862304688 703.225585938 697.337890625 742.325195312 599.45703125 729.971679688 c 0
 498.7421875 717.493164062 433.912109375 640.548828125 372.0859375 548.806640625 c 2
 358.115234375 528.075195312 l 1
 337.3828125 542.046875 l 1
 316.651367188 556.017578125 l 1
 330.623046875 576.75 l 2
 392.80078125 669.013671875 467.940429688 764.059570312 593.280273438 779.588867188 c 0
 695.578125 792.5 851.439453125 758.619140625 866.438476562 636.411132812 c 0
 866.860351562 632.979492188 867.15625 629.500976562 867.325195312 625.978515625 c 0
 874.530273438 476.1171875 720.58203125 433.916992188 624.618164062 367.247070312 c 0
 522.9140625 296.588867188 436.20703125 280.811523438 391.219726562 199.657226562 c 0
 371.041992188 163.2578125 400.661132812 118.444335938 467.484375 81.4580078125 c 0
 498.389648438 64.3515625 533.427734375 51.775390625 562.87109375 46.3671875 c 0
 669.879882812 26.7119140625 755.260742188 69.9072265625 829.03125 140.803710938 c 2
 847.056640625 158.126953125 l 1
 864.379882812 140.1015625 l 1
EndSplineSet
EndChar

StartChar: lt_WQ
Encoding: 304 -1 73
Width: 1000
VWidth: 0
Flags: HW
LayerCount: 2
Fore
SplineSet
569.615234375 281.421875 m 1
 575.05078125 305.82421875 l 1
 599.452148438 300.389648438 l 1
 789.408203125 258.081054688 l 1
 796.01953125 782.302734375 l 1
 796.334960938 807.30078125 l 1
 821.333007812 806.985351562 l 1
 846.331054688 806.669921875 l 1
 846.015625 781.671875 l 1
 846.002929688 780.671875 847.015625 781.671875 846.015625 781.671875 c 1
 839.015625 226.671875 l 1
 838.626953125 195.893554688 l 1
 808.583007812 202.584960938 l 1
 588.583007812 251.584960938 l 1
 564.180664062 257.020507812 l 1
 569.615234375 281.421875 l 1
345.3203125 -16.0107421875 m 1
 320.322265625 -16.3134765625 l 1
 320.01953125 8.6845703125 l 1
 315.01953125 447.684570312 l 1
 314.686523438 475.169921875 l 1
 342.080078125 472.90234375 l 1
 801.080078125 434.90234375 l 1
 825.995117188 432.83984375 l 1
 823.932617188 407.924804688 l 1
 821.870117188 383.009765625 l 1
 796.955078125 385.072265625 l 1
 365.348632812 420.8046875 l 1
 370.015625 9.2900390625 l 1
 370.318359375 -15.7080078125 l 1
 345.3203125 -16.0107421875 l 1
447.40234375 509.565429688 m 1
 441.966796875 485.163085938 l 1
 417.565429688 490.59765625 l 1
 227.609375 532.90625 l 1
 220.998046875 8.6845703125 l 1
 220.682617188 -16.3134765625 l 1
 195.684570312 -15.998046875 l 1
 170.686523438 -15.6826171875 l 1
 171.001953125 9.3154296875 l 1
 171.014648438 10.3154296875 170.001953125 9.3154296875 171.001953125 9.3154296875 c 1
 178.001953125 564.315429688 l 1
 178.390625 595.09375 l 1
 208.434570312 588.40234375 l 1
 428.434570312 539.40234375 l 1
 452.836914062 533.966796875 l 1
 447.40234375 509.565429688 l 1
671.697265625 806.998046875 m 1
 696.6953125 807.30078125 l 1
 696.998046875 782.302734375 l 1
 701.998046875 343.302734375 l 1
 702.331054688 315.817382812 l 1
 674.9375 318.084960938 l 1
 215.9375 356.084960938 l 1
 191.022460938 358.147460938 l 1
 193.084960938 383.0625 l 1
 195.147460938 407.977539062 l 1
 220.0625 405.915039062 l 1
 651.668945312 370.182617188 l 1
 647.001953125 781.697265625 l 1
 646.69921875 806.6953125 l 1
 671.697265625 806.998046875 l 1
EndSplineSet
EndChar

StartChar: lt_WR
Encoding: 305 -1 74
Width: 1000
VWidth: 0
Flags: HW
LayerCount: 2
Fore
SplineSet
583.432952358 781.342317749 m 1
 591.775270107 804.909365392 l 1
 615.342317749 796.567047642 l 2
 720.457441126 759.358154412 884.626933667 725.515929485 886.996409851 577.423667964 c 0
 889.143713811 450.732734339 644.400697361 419.867660337 637.09988058 408.10198076 c 1
 647.227369802 389.065933018 886 333.966120306 886 202 c 0
 886 67.9926628624 711.37445674 34.5470405602 617.836885028 7.95302507357 c 2
 593.789910102 1.11614004546 l 1
 586.953025074 25.1631149719 l 1
 580.116140045 49.2100898983 l 1
 604.163114972 56.0469749264 l 1
 605.124993969 56.3204503276 603.163114972 56.0469749264 604.163114972 56.0469749264 c 1
 714.62554326 87.4529594398 836 120.007337138 836 202 c 0
 836 297.495064043 587 304.861795928 587 408 c 0
 587 517.211062284 838.517256093 487.270041336 837.003590149 576.576332036 c 0
 835.373066333 678.484070515 719.542558874 706.641845588 598.657682251 749.432952358 c 2
 575.090634608 757.775270107 l 1
 583.432952358 781.342317749 l 1
494.244140625 785.411132812 m 1
 505.654296875 763.166992188 l 1
 483.411132812 751.755859375 l 2
 329.728515625 672.918945312 204.264648438 580.439453125 206.997070312 417.39453125 c 0
 209.78125 241.02734375 325.407226562 138.34375 495.493164062 59.69140625 c 2
 518.184570312 49.1982421875 l 1
 507.69140625 26.5068359375 l 1
 497.198242188 3.8154296875 l 1
 474.506835938 14.30859375 l 2
 298.592773438 95.65625 160.21875 212.97265625 157.002929688 416.60546875 c 0
 153.735351562 611.560546875 306.271484375 717.081054688 460.588867188 796.244140625 c 2
 482.833007812 807.654296875 l 1
 494.244140625 785.411132812 l 1
381.56640625 27.4287109375 m 1
 373.224609375 3.861328125 l 1
 349.657226562 12.2041015625 l 2
 244.541992188 49.4130859375 80.373046875 83.2548828125 78.0029296875 231.34765625 c 0
 75.85546875 358.038085938 320.598632812 388.903320312 327.899414062 400.668945312 c 1
 317.772460938 419.705078125 79 474.8046875 79 606.770507812 c 0
 79 740.778320312 253.625 774.223632812 347.163085938 800.818359375 c 2
 371.209960938 807.654296875 l 1
 378.046875 783.607421875 l 1
 384.883789062 759.560546875 l 1
 360.8359375 752.723632812 l 1
 359.875 752.450195312 361.8359375 752.723632812 360.8359375 752.723632812 c 1
 250.374023438 721.318359375 129 688.763671875 129 606.770507812 c 0
 129 511.275390625 378 503.909179688 378 400.770507812 c 0
 378 291.559570312 126.482421875 321.500976562 127.99609375 232.194335938 c 0
 129.625976562 130.287109375 245.45703125 102.12890625 366.341796875 59.337890625 c 2
 389.909179688 50.99609375 l 1
 381.56640625 27.4287109375 l 1
470.755859375 23.3603515625 m 5
 459.344726562 45.6044921875 l 5
 481.588867188 57.0146484375 l 6
 635.271484375 135.8515625 760.735351562 228.331054688 758.002929688 391.375976562 c 4
 755.217773438 567.743164062 639.592773438 670.426757812 469.506835938 749.080078125 c 6
 446.815429688 759.572265625 l 5
 457.30859375 782.263671875 l 5
 467.801757812 804.955078125 l 5
 490.4921875 794.461914062 l 6
 666.40625 713.114257812 804.78125 595.798828125 807.99609375 392.166015625 c 4
 811.263671875 197.2109375 658.728515625 91.6904296875 504.41015625 12.52734375 c 6
 482.166015625 1.1162109375 l 5
 470.755859375 23.3603515625 l 5
EndSplineSet
EndChar

StartChar: lt_WS
Encoding: 306 -1 75
Width: 1000
VWidth: 0
Flags: HW
LayerCount: 2
Fore
SplineSet
746.749023438 337.53515625 m 0
 750.041015625 314.489257812 762.326171875 305.373046875 770.3046875 305.942382812 c 0
 785.6328125 306.931640625 797.498046875 321.607421875 795.206054688 338.797851562 c 0
 792.53125 360.193359375 776.741210938 373.69140625 758.9921875 372.078125 c 0
 753.3671875 371.690429688 743.251953125 362.016601562 746.749023438 337.53515625 c 0
697.250976562 330.46484375 m 0
 691.201171875 394.032226562 702.783203125 415.185546875 755.0078125 421.921875 c 0
 803.059570312 428.120117188 839.46875 387.806640625 844.793945312 345.202148438 c 0
 850.501953125 302.392578125 820.3671875 259.068359375 773.6953125 256.057617188 c 0
 725.673828125 252.626953125 700.405273438 297.326171875 697.250976562 330.46484375 c 0
85.0078125 315.383789062 m 1
 84.390625 340.375976562 l 1
 109.383789062 340.9921875 l 1
 108.383789062 340.967773438 109.383789062 339.9921875 109.383789062 340.9921875 c 1
 717.383789062 355.9921875 l 1
 742.375976562 356.609375 l 1
 742.9921875 331.616210938 l 1
 743.609375 306.624023438 l 1
 718.616210938 306.0078125 l 1
 110.616210938 291.0078125 l 1
 110.616210938 292.0078125 109.6171875 290.983398438 110.616210938 291.0078125 c 1
 85.6240234375 290.390625 l 1
 85.0078125 315.383789062 l 1
447.266601562 -7.9990234375 m 1
 422.267578125 -8.2646484375 l 1
 422.000976562 16.7333984375 l 1
 422.01171875 15.7333984375 422.000976562 17.7333984375 422.000976562 16.7333984375 c 1
 414.000976562 767.733398438 l 1
 414 812 l 1
 455.780273438 786.53125 l 1
 743.340820312 593.59375 l 1
 761.872070312 576.813476562 l 1
 745.091796875 558.282226562 l 1
 728.311523438 539.750976562 l 1
 709.780273438 556.53125 l 1
 464.607421875 711.0859375 l 1
 471.999023438 17.2666015625 l 1
 471.999023438 16.2666015625 472.008789062 16.2666015625 471.999023438 17.2666015625 c 1
 472.264648438 -7.732421875 l 1
 447.266601562 -7.9990234375 l 1
307.436523438 467.114257812 m 0
 304.14453125 490.16015625 291.859375 499.27734375 283.880859375 498.70703125 c 0
 268.552734375 497.717773438 256.6875 483.041992188 258.979492188 465.852539062 c 0
 261.654296875 444.456054688 277.444335938 430.958007812 295.193359375 432.571289062 c 0
 300.818359375 432.959960938 310.93359375 442.633789062 307.436523438 467.114257812 c 0
356.93359375 474.185546875 m 0
 361.436523438 442.666015625 351.552734375 386.33984375 299.176757812 382.727539062 c 0
 250.926757812 378.340820312 214.716796875 416.842773438 209.390625 459.447265625 c 0
 203.682617188 502.256835938 233.818359375 545.581054688 280.490234375 548.591796875 c 0
 328.51171875 552.022460938 352.2265625 507.138671875 356.93359375 474.185546875 c 0
969.177734375 489.266601562 m 1
 969.793945312 464.2734375 l 1
 944.801757812 463.657226562 l 1
 945.801757812 463.681640625 944.801757812 464.657226562 944.801757812 463.657226562 c 1
 336.801757812 448.657226562 l 1
 311.809570312 448.041015625 l 1
 311.192382812 473.033203125 l 1
 310.576171875 498.025390625 l 1
 335.568359375 498.641601562 l 1
 943.568359375 513.641601562 l 1
 943.568359375 512.641601562 944.568359375 513.666992188 943.568359375 513.641601562 c 1
 968.561523438 514.258789062 l 1
 969.177734375 489.266601562 l 1
606.918945312 824.6484375 m 1
 631.91796875 824.9140625 l 1
 632.18359375 799.916015625 l 1
 632.172851562 800.916015625 632.18359375 798.916015625 632.18359375 799.916015625 c 1
 640.18359375 48.916015625 l 1
 642 0 l 1
 598.404296875 30.1181640625 l 1
 326 204 l 1
 307.46875 220.780273438 l 1
 324.249023438 239.311523438 l 1
 341.030273438 257.84375 l 1
 359.561523438 241.0625 l 1
 589.577148438 105.564453125 l 1
 582.186523438 799.3828125 l 1
 582.186523438 800.3828125 582.17578125 800.3828125 582.186523438 799.3828125 c 1
 581.919921875 824.381835938 l 1
 606.918945312 824.6484375 l 1
EndSplineSet
EndChar

StartChar: lt_WT
Encoding: 307 -1 76
Width: 1000
VWidth: 0
Flags: HW
LayerCount: 2
Fore
SplineSet
785.474609375 219.751953125 m 1
 807.61328125 208.138671875 l 1
 796 186 l 1
 764 125 l 1
 757.048828125 111.749023438 l 1
 742.086914062 111.614257812 l 1
 299.086914062 107.614257812 l 1
 286.487304688 107.500976562 l 1
 278.900390625 117.560546875 l 1
 232.900390625 178.560546875 l 1
 217.848632812 198.521484375 l 1
 237.80859375 213.57421875 l 1
 257.76953125 228.625976562 l 1
 272.822265625 208.666015625 l 1
 311.235351562 157.725585938 l 1
 726.673828125 161.477539062 l 1
 751.72265625 209.2265625 l 1
 763.3359375 231.365234375 l 1
 785.474609375 219.751953125 l 1
507.487304688 87.283203125 m 1
 480.130859375 41.2060546875 l 1
 538.703125 41.986328125 l 1
 507.487304688 87.283203125 l 1
526.505859375 147.799804688 m 1
 606.446289062 31.7998046875 l 1
 633.01953125 -6.759765625 l 1
 586.194335938 -7.384765625 l 1
 436.194335938 -9.384765625 l 1
 391.591796875 -9.9794921875 l 1
 414.364257812 28.3759765625 l 1
 484.423828125 146.375976562 l 1
 504.354492188 179.943359375 l 1
 526.505859375 147.799804688 l 1
501.618164062 131.002929688 m 1
 476.62109375 131.384765625 l 1
 477.002929688 156.381835938 l 1
 481.002929688 670.381835938 l 1
 481.384765625 695.37890625 l 1
 506.381835938 694.997070312 l 1
 531.37890625 694.615234375 l 1
 530.997070312 669.618164062 l 1
 526.997070312 155.618164062 l 1
 526.615234375 130.62109375 l 1
 501.618164062 131.002929688 l 1
226.38671875 581.861328125 m 1
 204.248046875 593.474609375 l 1
 215.861328125 615.61328125 l 1
 247.861328125 676.61328125 l 1
 254.8125 689.864257812 l 1
 269.774414062 689.999023438 l 1
 712.774414062 693.999023438 l 1
 725.374023438 694.112304688 l 1
 732.9609375 684.052734375 l 1
 778.9609375 623.052734375 l 1
 794.012695312 603.091796875 l 1
 774.052734375 588.0390625 l 1
 754.091796875 572.987304688 l 1
 739.0390625 592.947265625 l 1
 700.625976562 643.887695312 l 1
 285.1875 640.135742188 l 1
 260.138671875 592.38671875 l 1
 248.525390625 570.248046875 l 1
 226.38671875 581.861328125 l 1
504.374023438 714.330078125 m 1
 531.73046875 760.407226562 l 1
 473.158203125 759.626953125 l 1
 504.374023438 714.330078125 l 1
485.35546875 653.813476562 m 1
 405.415039062 769.813476562 l 1
 378.841796875 808.373046875 l 1
 425.666992188 808.998046875 l 1
 575.666992188 810.998046875 l 1
 620.26953125 811.592773438 l 1
 597.497070312 773.237304688 l 1
 527.4375 655.237304688 l 1
 507.506835938 621.669921875 l 1
 485.35546875 653.813476562 l 1
EndSplineSet
EndChar

StartChar: lt_WU
Encoding: 308 -1 77
Width: 1000
VWidth: 0
Flags: HW
LayerCount: 2
Fore
SplineSet
79.1376953125 778.6171875 m 1
 81.7548828125 803.479492188 l 1
 106.6171875 800.862304688 l 2
 241.684570312 786.64453125 313.081054688 766.95703125 444.400390625 764.997070312 c 0
 558.303710938 763.049804688 622.522460938 780.708007812 741.87109375 790.909179688 c 2
 804.025390625 796.221679688 l 1
 762.7421875 749.455078125 l 2
 642.995117188 613.803710938 534.892578125 663.647460938 460.892578125 530.42578125 c 1
 515.962890625 523.057617188 574.681640625 517.475585938 642.9765625 514.981445312 c 0
 708.219726562 512.262695312 738.678710938 532.997070312 811.71484375 562.211914062 c 2
 834.926757812 571.497070312 l 1
 844.211914062 548.28515625 l 1
 853.497070312 525.073242188 l 1
 830.28515625 515.788085938 l 2
 763.321289062 489.002929688 719.780273438 461.737304688 641.0234375 465.018554688 c 0
 564.264648438 467.823242188 498.8046875 474.478515625 437.6796875 483.16015625 c 1
 386.0625 362.704101562 433.489257812 290.133789062 443.938476562 141.755859375 c 2
 449.865234375 57.587890625 l 1
 389 121 l 1
 66.0439453125 551.942382812 l 1
 29.7734375 600.010742188 l 1
 89.423828125 591.764648438 l 2
 216.311523438 574.22265625 310.345703125 553.650390625 408.357421875 538.131835938 c 1
 479.71484375 677.185546875 578.518554688 634.084960938 679.493164062 734.129882812 c 1
 602.573242188 724.81640625 538.330078125 713.383789062 443.572265625 715.00390625 c 0
 306.954101562 717.04296875 232.297851562 737.356445312 101.3828125 751.137695312 c 2
 76.5205078125 753.754882812 l 1
 79.1376953125 778.6171875 l 1
386.849609375 490.947265625 m 1
 308.370117188 503.764648438 234.329101562 518.97265625 142.704101562 533.356445312 c 1
 392 196 l 1
 377.404296875 283.920898438 347.350585938 389.333007812 386.849609375 490.947265625 c 1
913.1328125 3.4501953125 m 5
 910.515625 -21.412109375 l 5
 885.653320312 -18.794921875 l 6
 750.5859375 -4.5771484375 679.189453125 15.1103515625 547.870117188 17.0703125 c 4
 433.966796875 19.017578125 369.748046875 1.359375 250.399414062 -8.841796875 c 6
 188.245117188 -14.154296875 l 5
 229.528320312 32.6123046875 l 6
 349.275390625 168.263671875 457.377929688 118.419921875 531.377929688 251.641601562 c 5
 476.307617188 259.009765625 417.588867188 264.591796875 349.293945312 267.0859375 c 4
 284.05078125 269.8046875 253.591796875 249.0703125 180.555664062 219.85546875 c 6
 157.34375 210.5703125 l 5
 148.05859375 233.782226562 l 5
 138.7734375 256.994140625 l 5
 161.985351562 266.279296875 l 6
 228.94921875 293.064453125 272.490234375 320.330078125 351.247070312 317.048828125 c 4
 428.005859375 314.244140625 493.465820312 307.588867188 554.590820312 298.907226562 c 5
 606.208007812 419.36328125 558.78125 491.93359375 548.33203125 640.311523438 c 6
 542.405273438 724.479492188 l 5
 603.270507812 661.067382812 l 5
 926.2265625 230.125 l 5
 962.497070312 182.056640625 l 5
 902.846679688 190.302734375 l 6
 775.958984375 207.844726562 681.924804688 228.416992188 583.913085938 243.935546875 c 5
 512.555664062 104.881835938 413.751953125 147.982421875 312.77734375 47.9375 c 5
 389.697265625 57.2509765625 453.940429688 68.68359375 548.698242188 67.0634765625 c 4
 685.31640625 65.0244140625 759.97265625 44.7109375 890.887695312 30.9296875 c 6
 915.75 28.3125 l 5
 913.1328125 3.4501953125 l 5
605.420898438 291.120117188 m 5
 683.900390625 278.302734375 757.94140625 263.094726562 849.56640625 248.7109375 c 5
 600.270507812 586.067382812 l 5
 614.866210938 498.146484375 644.919921875 392.734375 605.420898438 291.120117188 c 5
EndSplineSet
EndChar

StartChar: lt_WV
Encoding: 309 -1 78
Width: 1000
VWidth: 0
Flags: HW
LayerCount: 2
Fore
SplineSet
616.4296875 783 m 1
 606.6640625 770.561523438 l 2
 512.2421875 650.298828125 417.556640625 488.631835938 419.982421875 423.936523438 c 0
 422.712890625 351.141601562 477.16796875 160.620117188 618.982421875 29.3466796875 c 2
 627 21.9248046875 l 1
 608 -16.6845703125 l 1
 595.184570312 -13.052734375 l 2
 346.936523438 57.2841796875 218.08984375 223.568359375 210.020507812 422.989257812 c 0
 202.305664062 613.658203125 365.383789062 742.874023438 579.537109375 809.860351562 c 2
 591 813.4453125 l 1
 616.4296875 783 l 1
516.96875 733.994140625 m 1
 352.522460938 664.856445312 254.514648438 560.083984375 259.979492188 425.010742188 c 0
 266.108398438 273.548828125 348.107421875 144.634765625 515.157226562 68.9482421875 c 1
 412.872070312 200.416992188 372.760742188 348.91796875 370.017578125 422.063476562 c 0
 367.03125 501.700195312 440.282226562 626.009765625 516.96875 733.994140625 c 1
392.590820312 13.76171875 m 1
 402.356445312 26.2001953125 l 2
 496.778320312 146.462890625 591.463867188 308.129882812 589.038085938 372.825195312 c 0
 586.307617188 445.620117188 531.8515625 636.141601562 390.038085938 767.415039062 c 2
 382.020507812 774.836914062 l 1
 401.020507812 813.4453125 l 1
 413.8359375 809.814453125 l 2
 662.083984375 739.477539062 790.930664062 573.193359375 799 373.772460938 c 0
 806.71484375 183.102539062 643.63671875 53.8876953125 429.483398438 -13.0986328125 c 2
 418.020507812 -16.6845703125 l 1
 392.590820312 13.76171875 l 1
492.051757812 62.767578125 m 1
 656.498046875 131.905273438 754.505859375 236.677734375 749.041015625 371.750976562 c 0
 742.912109375 523.212890625 660.913085938 652.125976562 493.862304688 727.813476562 c 1
 596.1484375 596.34375 636.259765625 447.84375 639.002929688 374.698242188 c 0
 641.989257812 295.061523438 568.73828125 170.751953125 492.051757812 62.767578125 c 1
EndSplineSet
EndChar

StartChar: lt_WX
Encoding: 310 -1 79
Width: 1000
VWidth: 0
Flags: HW
LayerCount: 2
Fore
SplineSet
903.645507812 770.997070312 m 1
 928.643554688 771.3515625 l 1
 928.997070312 746.354492188 l 1
 938.997070312 40.3544921875 l 1
 939.3515625 15.3564453125 l 1
 914.354492188 15.0029296875 l 1
 889.356445312 14.6484375 l 1
 889.002929688 39.6455078125 l 1
 879.002929688 745.645507812 l 1
 878.6484375 770.643554688 l 1
 903.645507812 770.997070312 l 1
383.107421875 117.015625 m 1
 358.124023438 117.908203125 l 1
 359.015625 142.892578125 l 2
 361.673828125 217.310546875 329.198780477 282.218957935 369.368164062 368.62109375 c 0
 437.208984375 514.54296875 551.072265625 485.04296875 526 587 c 0
 500.463867188 690.794921875 432.44562635 696.257738097 293.734375 719.366210938 c 0
 289.25 720.11328125 283.59765625 720.064453125 278.165039062 719.079101562 c 0
 251.947265625 714.325195312 235.52734375 693.356445312 238.596679688 676.471679688 c 2
 243.069335938 651.875 l 1
 218.471679688 647.403320312 l 1
 193.875 642.930664062 l 1
 189.403320312 667.528320312 l 2
 179.505859375 721.963867188 226.311523438 760.4921875 269.244140625 768.27734375 c 0
 279.984375 770.224609375 290.853132086 770.684447689 302.265625 768.633789062 c 0
 419.859375 747.50390625 538.088867188 747.150390625 574.552734375 598.9453125 c 0
 609.48046875 456.90234375 453.380536732 429.180371913 414.631835938 347.37890625 c 0
 383.420898438 281.490234375 412.326171875 234.689453125 408.984375 141.107421875 c 2
 408.091796875 116.124023438 l 1
 383.107421875 117.015625 l 1
383.053710938 81.478515625 m 0
 386.345703125 58.431640625 398.630859375 49.3154296875 406.609375 49.884765625 c 0
 421.9375 50.8740234375 433.802734375 65.5498046875 431.510742188 82.740234375 c 0
 428.8359375 104.135742188 413.045898438 117.633789062 395.296875 116.020507812 c 0
 389.671875 115.6328125 379.555664062 105.958984375 383.053710938 81.478515625 c 0
333.555664062 74.4072265625 m 0
 329.052734375 105.926757812 338.9375 162.252929688 391.3125 165.864257812 c 0
 439.563476562 170.250976562 475.7734375 131.749023438 481.098632812 89.1455078125 c 0
 486.806640625 46.3349609375 456.671875 3.0107421875 410 0 c 0
 361.978515625 -3.4296875 338.263671875 41.453125 333.555664062 74.4072265625 c 0
120.109375 0.3544921875 m 1
 95.111328125 0 l 1
 94.7578125 24.9970703125 l 1
 84.7578125 730.997070312 l 1
 84.4033203125 755.995117188 l 1
 109.400390625 756.348632812 l 1
 134.3984375 756.703125 l 1
 134.751953125 731.706054688 l 1
 144.751953125 25.7060546875 l 1
 145.106445312 0.7080078125 l 1
 120.109375 0.3544921875 l 1
666.647460938 654.3359375 m 1
 691.630859375 653.443359375 l 1
 690.739257812 628.458984375 l 2
 688.081054688 554.041015625 720.556102336 489.132604565 680.38671875 402.73046875 c 0
 612.545898438 256.80859375 492.927734375 278.95703125 518 177 c 0
 543.536132812 73.205078125 617.309256463 75.0938244028 756.020507812 51.9853515625 c 0
 760.504882812 51.23828125 766.157226562 51.287109375 771.58984375 52.2724609375 c 0
 797.807617188 57.0263671875 814.227539062 77.9951171875 811.158203125 94.8798828125 c 2
 806.685546875 119.4765625 l 1
 831.282226562 123.948242188 l 1
 855.879882812 128.420898438 l 1
 860.3515625 103.823242188 l 2
 870.249023438 49.3876953125 823.443359375 10.859375 780.510742188 3.07421875 c 0
 769.770507812 1.126953125 758.901750726 0.667114810922 747.489257812 2.7177734375 c 0
 629.895507812 23.84765625 505.911132812 16.849609375 469.447265625 165.0546875 c 0
 434.518554688 307.09765625 596.374346081 342.171190587 635.123046875 423.97265625 c 0
 666.333984375 489.861328125 637.428710938 536.662109375 640.770507812 630.244140625 c 2
 641.663085938 655.227539062 l 1
 666.647460938 654.3359375 l 1
666.701171875 689.873046875 m 0
 663.409179688 712.919921875 651.124023438 722.036132812 643.145507812 721.466796875 c 0
 627.817382812 720.477539062 615.952148438 705.801757812 618.244140625 688.611328125 c 0
 620.918945312 667.215820312 636.708984375 653.717773438 654.458007812 655.331054688 c 0
 660.083007812 655.71875 670.19921875 665.392578125 666.701171875 689.873046875 c 0
716.19921875 696.944335938 m 0
 720.702148438 665.424804688 710.817382812 609.098632812 658.442382812 605.487304688 c 0
 610.19140625 601.100585938 573.981445312 639.602539062 568.65625 682.206054688 c 0
 562.948242188 725.016601562 593.083007812 768.340820312 639.754882812 771.3515625 c 0
 687.776367188 774.78125 711.491210938 729.8984375 716.19921875 696.944335938 c 0
EndSplineSet
EndChar

StartChar: lt_WY
Encoding: 311 -1 80
Width: 1000
VWidth: 0
Flags: HW
LayerCount: 2
Fore
SplineSet
710.05859375 194.33984375 m 1
 727.19921875 176.140625 l 1
 709 159 l 1
 532.05859375 -23.66015625 l 1
 516.311523438 -38.4912109375 l 1
 499.372070312 -25.0390625 l 1
 310.40234375 154.836914062 l 1
 290.825195312 170.383789062 l 1
 306.372070312 189.9609375 l 1
 321.918945312 209.5390625 l 1
 341.497070312 193.9921875 l 1
 513.526367188 27.5693359375 l 1
 674.719726562 195.399414062 l 1
 692.918945312 212.5390625 l 1
 710.05859375 194.33984375 l 1
312.860351562 574.19921875 m 1
 295.719726562 592.3984375 l 1
 313.918945312 609.5390625 l 1
 490.859876199 792.199344935 l 1
 506.60711361 807.030076466 l 1
 523.54705359 793.577771187 l 1
 712.516601562 613.702148438 l 1
 732.09375 598.155273438 l 1
 716.546875 578.578125 l 1
 701 559 l 1
 681.421875 574.546875 l 1
 509.39288639 740.969923534 l 1
 348.19921875 573.139648438 l 1
 330 556 l 1
 312.860351562 574.19921875 l 1
507.576338353 633.003590042 m 0
 362.406299412 635.464025471 245.74609375 551.340820312 241.9921875 398.38671875 c 0
 238.415039062 252.572265625 356.766601562 164.688476562 499.471679688 161.995117188 c 0
 662.408203125 158.920898438 792.381835938 232.866210938 797.009765625 396.706054688 c 0
 801.604492188 559.350585938 671.195135166 630.230390096 507.576338353 633.003590042 c 0
508.423661528 682.99640996 m 0
 698.804866502 679.769609876 852.395507812 586.649414062 846.990234375 395.293945312 c 0
 841.618164062 205.133789062 689.580078125 108.399414062 498.528320312 112.004882812 c 0
 323.233398438 115.311523438 187.831054688 229.421875 192.0078125 399.61328125 c 0
 196.25390625 572.659179688 327.585886364 686.061365183 508.423661528 682.99640996 c 0
EndSplineSet
EndChar

StartChar: lt_WZ
Encoding: 312 -1 81
Width: 1000
VWidth: 0
Flags: HW
LayerCount: 2
Fore
SplineSet
712.72265625 758.205078125 m 1
 732.927734375 743.482421875 l 1
 718.205078125 723.27734375 l 2
 623.912109375 593.875 573.118164062 520.91015625 577.986328125 375.838867188 c 0
 582.671875 236.211914062 648.799804688 172.599609375 743 47 c 2
 758 27 l 1
 738 12 l 1
 718 -3 l 1
 703 17 l 2
 611.3203125 139.240234375 533.189453125 215.784179688 528.013671875 374.161132812 c 0
 522.754882812 535.0859375 584.087890625 624.125 677.794921875 752.72265625 c 2
 692.517578125 772.927734375 l 1
 712.72265625 758.205078125 l 1
898.765625 395.525390625 m 1
 184.234375 2.0205078125 l 1
 176.163085938 16.6025390625 168.091796875 31.18359375 160.020507812 45.765625 c 1
 372.424804688 163.334960938 584.829101562 280.905273438 797.234375 398.474609375 c 1
 180.84375 754.87109375 l 1
 189.186523438 769.299804688 197.528320312 783.727539062 205.87109375 798.15625 c 1
 205.87109375 798.15625 675.014648438 524.897460938 898.765625 395.525390625 c 1
266.0625 36.951171875 m 1
 245.858398438 51.6748046875 l 1
 260.581054688 71.87890625 l 2
 354.874023438 201.28125 405.66796875 274.24609375 400.799804688 419.318359375 c 0
 396.114257812 558.9453125 329.985351562 622.556640625 235.786132812 748.15625 c 2
 220.786132812 768.15625 l 1
 240.786132812 783.15625 l 1
 260.786132812 798.15625 l 1
 275.786132812 778.15625 l 2
 367.465820312 655.916015625 445.595703125 579.372070312 450.771484375 420.995117188 c 0
 456.030273438 260.0703125 394.698242188 171.03125 300.990234375 42.43359375 c 2
 286.267578125 22.228515625 l 1
 266.0625 36.951171875 l 1
80.0205078125 399.630859375 m 1
 794.551757812 793.13671875 l 1
 802.623046875 778.5546875 810.694335938 763.97265625 818.765625 749.390625 c 1
 606.361328125 631.821289062 393.956054688 514.250976562 181.551757812 396.681640625 c 1
 797.942382812 40.28515625 l 1
 789.599609375 25.8564453125 781.256835938 11.4287109375 772.915039062 -3 c 1
 772.915039062 -3 303.771484375 270.258789062 80.0205078125 399.630859375 c 1
EndSplineSet
EndChar

StartChar: lt_DN
Encoding: 313 -1 82
Width: 1000
Flags: HW
LayerCount: 2
Fore
SplineSet
765.5703125 73.06640625 m 1
 499.560546875 358.3671875 l 1
 225.577148438 68.3720703125 l 1
 765.5703125 73.06640625 l 1
787.073242188 662.977539062 m 1
 534.059570312 394.881835938 l 1
 796.3359375 113.416992188 l 1
 787.073242188 662.977539062 l 1
499.791015625 430.359375 m 1
 834.991210938 785.696289062 l 1
 847.275390625 56.8369140625 l 1
 848.424804688 22.3115234375 l 1
 822.744140625 22.3134765625 l 1
 798.999023438 22.009765625 l 1
 108.987304688 16.1015625 l 1
 465.291015625 393.844726562 l 1
 156.651367188 725.024414062 l 1
 193.294921875 759.04296875 l 1
 499.791015625 430.359375 l 1
491.274414062 842.774414062 m 5
 516.140625 845.35546875 l 5
 518.72265625 820.489257812 l 5
 538.009765625 -2.3271484375 l 5
 540.590820312 -27.193359375 l 5
 515.725585938 -29.7744140625 l 5
 490.859375 -32.35546875 l 5
 488.27734375 -7.4892578125 l 5
 468.990234375 815.327148438 l 5
 466.409179688 840.193359375 l 5
 491.274414062 842.774414062 l 5
50.7255859375 414.225585938 m 5
 53.306640625 439.090820312 l 5
 78.1728515625 436.509765625 l 5
 926.989257812 402.22265625 l 5
 951.85546875 399.640625 l 5
 949.274414062 374.774414062 l 5
 946.693359375 349.909179688 l 5
 921.827148438 352.490234375 l 5
 73.0107421875 386.77734375 l 5
 48.14453125 389.359375 l 5
 50.7255859375 414.225585938 l 5
EndSplineSet
EndChar

StartChar: lt_DK
Encoding: 314 -1 83
Width: 1000
Flags: HW
LayerCount: 2
Fore
SplineSet
678.854492188 315.600585938 m 1
 697.700195312 351.578125 l 1
 721.33203125 318.546875 l 1
 897.33203125 72.546875 l 1
 924.9609375 33.9296875 l 1
 877.487304688 33.0048828125 l 1
 569.487304688 27.0048828125 l 1
 527.25390625 26.181640625 l 1
 546.854492188 63.6005859375 l 1
 678.854492188 315.600585938 l 1
704.299804688 256.421875 m 1
 610.74609375 77.818359375 l 1
 829.0390625 82.0703125 l 1
 704.299804688 256.421875 l 1
808.014648438 536.193359375 m 1
 783.603515625 541.588867188 l 1
 759.193359375 546.985351562 l 1
 764.588867188 571.396484375 l 1
 790.688476562 689.46484375 l 1
 106.456054688 22.103515625 l 1
 88.55859375 4.6474609375 l 1
 71.103515625 22.5439453125 l 1
 53.6474609375 40.44140625 l 1
 71.5439453125 57.896484375 l 1
 735.037109375 705.029296875 l 1
 611.116210938 673.759765625 l 1
 598.78515625 722.21484375 l 1
 629.82421875 730.180664062 l 1
 873 792 l 1
 808.014648438 536.193359375 l 1
459.274414062 842.774414062 m 5
 484.140625 845.35546875 l 5
 486.72265625 820.489257812 l 5
 506.009765625 -2.3271484375 l 5
 508.590820312 -27.193359375 l 5
 483.725585938 -29.7744140625 l 5
 458.859375 -32.35546875 l 5
 456.27734375 -7.4892578125 l 5
 436.990234375 815.327148438 l 5
 434.409179688 840.193359375 l 5
 459.274414062 842.774414062 l 5
18.7255859375 414.225585938 m 5
 21.306640625 439.090820312 l 5
 46.1728515625 436.509765625 l 5
 894.989257812 402.22265625 l 5
 919.85546875 399.640625 l 5
 917.274414062 374.774414062 l 5
 914.693359375 349.909179688 l 5
 889.827148438 352.490234375 l 5
 41.0107421875 386.77734375 l 5
 16.14453125 389.359375 l 5
 18.7255859375 414.225585938 l 5
EndSplineSet
EndChar

